<svg width="120" height="120" viewBox="0 0 120 120" fill="none" xmlns="http://www.w3.org/2000/svg">
<rect width="120" height="120" rx="60" fill="#2965F1"/>
<rect x="30" y="30" width="60" height="60" rx="30" fill="#2965F1"/>
<path d="M72.4637 45H48.0973C47.5085 45 47.0471 45.5063 47.1016 46.0926L47.4074 49.3795C47.4552 49.8937 47.8867 50.2869 48.4031 50.2869H66.6106C67.1954 50.2869 67.6554 50.7865 67.6072 51.3693L67.3218 54.8201C67.2789 55.3387 66.8455 55.7377 66.3252 55.7377H49.0725C48.4867 55.7377 48.0264 56.239 48.0761 56.8227L48.3564 60.1096C48.4005 60.627 48.8334 61.0246 49.3528 61.0246H65.6953C66.2851 61.0246 66.7467 61.5323 66.6908 62.1194L66.2053 67.2169C66.1657 67.6334 65.871 67.9812 65.4667 68.0886L60.538 69.3983C60.3681 69.4434 60.1894 69.443 60.0197 69.3971L55.0511 68.0514C54.6462 67.9417 54.3528 67.5911 54.3163 67.1732L54.088 64.5605C54.0428 64.0439 53.6103 63.6475 53.0918 63.6475H49.7729C49.1858 63.6475 48.725 64.151 48.7768 64.7359L49.357 71.2784C49.3937 71.6929 49.6833 72.0413 50.0841 72.1532L60.0097 74.9249C60.1857 74.974 60.3717 74.974 60.5476 74.9249L70.474 72.153C70.8744 72.0412 71.1639 71.6933 71.201 71.2792L73.4597 46.0893C73.5122 45.5041 73.0512 45 72.4637 45Z" fill="white"/>
</svg>
