<svg width="120" height="120" viewBox="0 0 120 120" fill="none" xmlns="http://www.w3.org/2000/svg">
<rect width="120" height="120" rx="60" fill="white"/>
<rect x="30" y="30" width="60" height="60" rx="30" fill="white"/>
<path d="M80 70.6046C78.545 70.9746 77.645 70.6209 76.8375 69.4084L71.095 61.4634L70.265 60.3634L63.5588 69.4346C62.7925 70.5259 61.9888 71.0009 60.5588 70.6146L69.1462 59.0871L61.1512 48.6746C62.5262 48.4071 63.4762 48.5434 64.32 49.7746L70.2763 57.8184L76.2762 49.8184C77.045 48.7271 77.8712 48.3121 79.2512 48.7146L76.1512 52.8246L71.9513 58.2934C71.4513 58.9184 71.52 59.3459 71.98 59.9496L80 70.6046ZM40.01 58.8946L40.7125 55.4396C42.625 48.6021 50.4625 45.7609 55.8675 49.9859C59.0263 52.4709 59.8112 55.9859 59.655 59.9234H41.85C41.5825 67.0109 46.6838 71.2884 53.1875 69.1059C55.4688 68.3396 56.8125 66.5534 57.485 64.3184C57.8262 63.1984 58.3913 63.0234 59.4438 63.3434C58.9063 66.1384 57.6937 68.4734 55.1312 69.9346C51.3025 72.1221 45.8375 71.4146 42.9625 68.3746C41.25 66.6109 40.5425 64.3759 40.225 61.9859C40.175 61.5909 40.075 61.2146 40 60.8359C40.0067 60.1892 40.01 59.5425 40.01 58.8959V58.8946ZM41.8825 58.4196H57.9725C57.8675 53.2946 54.6762 49.6546 50.315 49.6234C45.5275 49.5859 42.09 53.1396 41.8825 58.4196Z" fill="black"/>
</svg>
