<svg width="120" height="120" viewBox="0 0 120 120" fill="none" xmlns="http://www.w3.org/2000/svg">
<rect width="120" height="120" rx="60" fill="white"/>
<rect x="30" y="30" width="60" height="60" rx="30" fill="white"/>
<g clip-path="url(#clip0_83_138)">
<path d="M53.6694 80C57.3494 80 60.336 77.0133 60.336 73.3333V66.6666H53.6694C49.9894 66.6666 47.0027 69.6533 47.0027 73.3333C47.0027 77.0133 49.9894 80 53.6694 80Z" fill="#0ACF83"/>
<path d="M47.0027 60C47.0027 56.32 49.9894 53.3334 53.6694 53.3334H60.336V66.6667H53.6694C49.9894 66.6667 47.0027 63.68 47.0027 60Z" fill="#A259FF"/>
<path d="M47.0027 46.6667C47.0027 42.9867 49.9894 40 53.6694 40H60.336V53.3333H53.6694C49.9894 53.3333 47.0027 50.3467 47.0027 46.6667Z" fill="#F24E1E"/>
<path d="M60.3361 40H67.0027C70.6827 40 73.6694 42.9867 73.6694 46.6667C73.6694 50.3467 70.6827 53.3333 67.0027 53.3333H60.3361V40Z" fill="#FF7262"/>
<path d="M73.6694 60C73.6694 63.68 70.6827 66.6667 67.0027 66.6667C63.3227 66.6667 60.3361 63.68 60.3361 60C60.3361 56.32 63.3227 53.3334 67.0027 53.3334C70.6827 53.3334 73.6694 56.32 73.6694 60Z" fill="#1ABCFE"/>
</g>
<defs>
<clipPath id="clip0_83_138">
<rect width="26.672" height="40" fill="white" transform="translate(47 40)"/>
</clipPath>
</defs>
</svg>
