<svg width="120" height="120" viewBox="0 0 120 120" fill="none" xmlns="http://www.w3.org/2000/svg">
<rect width="120" height="120" rx="60" fill="#039BE5"/>
<rect x="30" y="30" width="60" height="60" rx="30" fill="#039BE5"/>
<path d="M45 72.2866L45.2422 71.9476L56.6971 50.2122L56.7213 49.9821L51.6717 40.4972C51.2487 39.7027 50.0577 39.9036 49.9188 40.793L45 72.2866Z" fill="#FFC24A"/>
<path d="M45.1428 72.0281L45.326 71.6709L56.661 50.1633L51.624 40.6398C51.2054 39.8536 50.1423 40.054 50.0049 40.9341L45.1428 72.0281Z" fill="#FFA712"/>
<path d="M60.4025 57.1566L64.1623 53.306L60.4014 46.1264C60.0444 45.4468 59.0476 45.4448 58.6943 46.1264L56.6851 49.9585V50.2848L60.4025 57.1566Z" fill="#F4BD62"/>
<path d="M60.3355 56.9961L63.9907 53.2526L60.3355 46.2924C59.9884 45.6317 59.1452 45.5625 58.8018 46.2251L56.7818 50.1166L56.7214 50.3155L60.3355 56.9961Z" fill="#FFA50E"/>
<path d="M45 72.2866L45.1098 72.1763L45.5086 72.0142L60.1663 57.4109L60.352 56.9054L56.6955 49.9376L45 72.2866Z" fill="#F6820C"/>
<path d="M60.872 79.6514L74.1376 72.2531L70.3494 48.9227C70.2309 48.1928 69.3354 47.9042 68.8129 48.4276L45 72.2866L58.1895 79.6507C59.0231 80.1161 60.0382 80.1164 60.872 79.6514Z" fill="#FDE068"/>
<path d="M74.0189 72.191L70.2594 49.0378C70.1418 48.3134 69.3971 48.0136 68.8786 48.533L45.1472 72.2413L58.1919 79.5325C59.0191 79.9944 60.0265 79.9946 60.854 79.5332L74.0189 72.191Z" fill="#FCCA3F"/>
<path d="M60.872 79.4335C60.0382 79.8984 59.0231 79.8982 58.1895 79.4328L45.1062 72.1745L45 72.2867L58.1895 79.6508C59.0231 80.1162 60.0382 80.1164 60.872 79.6514L74.1376 72.2531L74.1051 72.0532L60.872 79.4335Z" fill="#EEAB37"/>
</svg>
