<svg width="120" height="120" viewBox="0 0 120 120" fill="none" xmlns="http://www.w3.org/2000/svg">
<rect width="120" height="120" rx="60" fill="#F05133"/>
<rect x="30" y="30" width="60" height="60" rx="30" fill="#F05133"/>
<path d="M78.1774 58.2578L61.6335 41.7147C60.6809 40.7618 59.1358 40.7618 58.1824 41.7147L54.7473 45.1506L59.1048 49.5081C60.1176 49.1659 61.2789 49.3956 62.0859 50.203C62.8978 51.0154 63.1255 52.1865 62.7745 53.203L66.9749 57.403C67.9914 57.0525 69.1634 57.2793 69.9749 58.0921C71.109 59.2261 71.109 61.0636 69.9749 62.1985C68.8401 63.3329 67.0026 63.3329 65.8673 62.1985C65.0145 61.3448 64.8034 60.0912 65.236 59.0405L61.3185 55.1234V65.4314C61.5947 65.5684 61.8558 65.7506 62.0859 65.9807C63.2199 67.1147 63.2199 68.9523 62.0859 70.0875C60.9519 71.2211 59.1131 71.2211 57.9799 70.0875C56.8459 68.9519 56.8459 67.1143 57.9799 65.9807C58.2603 65.7007 58.5848 65.4888 58.9312 65.3469V54.9428C58.5848 54.8009 58.2611 54.591 57.9799 54.309C57.1209 53.4504 56.9143 52.1894 57.3547 51.1345L53.0591 46.838L41.7147 58.1811C40.7618 59.1349 40.7618 60.6801 41.7147 61.6331L58.2595 78.1766C59.2121 79.1296 60.7568 79.1296 61.7106 78.1766L78.1774 61.7098C79.1304 60.7568 79.1304 59.2108 78.1774 58.2578Z" fill="white"/>
</svg>
