<svg width="120" height="120" viewBox="0 0 120 120" fill="none" xmlns="http://www.w3.org/2000/svg">
<rect width="120" height="120" rx="60" fill="#FC4A0A"/>
<rect x="30" y="30" width="60" height="60" rx="30" fill="#FC4A0A"/>
<path d="M53.8326 63.1467H50.4539C49.874 63.1467 49.4157 63.6384 49.4564 64.2169L49.916 70.7478C49.9442 71.1487 50.2097 71.4938 50.59 71.6238L60.1401 74.8886C60.3512 74.9608 60.5804 74.9603 60.7911 74.8872L70.2007 71.6253C70.5787 71.4942 70.8422 71.1505 70.8706 70.7514L71.8742 56.6501C71.9154 56.0714 71.457 55.5792 70.8767 55.5792H55.115C54.6032 55.5792 54.1741 55.1928 54.1205 54.6839L53.7496 51.1627C53.6874 50.5722 54.1504 50.0579 54.7441 50.0579H71.4558C71.9803 50.0579 72.4157 49.6527 72.4533 49.1296L72.673 46.0717C72.7146 45.4927 72.2561 45 71.6756 45H49.0765C48.4953 45 48.0365 45.4939 48.0793 46.0736L49.0946 59.8265C49.1332 60.3488 49.5682 60.7529 50.0919 60.7529H65.6042C66.1854 60.7529 66.6442 61.2467 66.6015 61.8264L66.2596 66.4637C66.2287 66.883 65.9388 67.2382 65.5341 67.3525L60.7403 68.7063C60.5609 68.7569 60.371 68.7565 60.1919 68.7049L55.556 67.3704C55.1276 67.2471 54.8326 66.8552 54.8326 66.4094V64.1467C54.8326 63.5944 54.3849 63.1467 53.8326 63.1467Z" fill="white"/>
</svg>
