<svg width="120" height="120" viewBox="0 0 120 120" fill="none" xmlns="http://www.w3.org/2000/svg">
<rect width="120" height="120" rx="60" fill="#F7DF1E"/>
<rect x="30" y="30" width="60" height="60" rx="30" fill="#F7DF1E"/>
<path d="M64.7906 65.9946C66.0132 68.1032 67.6037 69.6531 70.4169 69.6531C72.7802 69.6531 74.2898 68.4055 74.2898 66.6815C74.2898 64.6157 72.7387 63.884 70.1375 62.6821L68.7117 62.0359C64.596 60.1837 61.8618 57.8634 61.8618 52.9582C61.8618 48.4397 65.121 45 70.2146 45C73.8409 45 76.4479 46.3332 78.3265 49.8238L73.8852 52.8361C72.9073 50.9839 71.8524 50.2542 70.2146 50.2542C68.544 50.2542 67.4852 51.3737 67.4852 52.8361C67.4852 54.6435 68.545 55.3752 70.9921 56.4946L72.4179 57.1398C77.2639 59.3349 80 61.5728 80 66.6042C80 72.0284 75.9662 75 70.5489 75C65.2521 75 61.83 72.3337 60.1556 68.839L64.7906 65.9946ZM44.6427 66.5167C45.5387 68.1958 46.3537 69.6155 48.3133 69.6155C50.1871 69.6155 51.3693 68.841 51.3693 65.8297V45.344H57.0727V65.9112C57.0727 72.1495 53.6102 74.9888 48.5561 74.9888C43.9895 74.9888 41.3449 72.4925 40 69.4857L44.6427 66.5167Z" fill="black"/>
</svg>
