<svg width="120" height="120" viewBox="0 0 120 120" fill="none" xmlns="http://www.w3.org/2000/svg">
<rect width="120" height="120" rx="60" fill="#15C213"/>
<rect x="30" y="30" width="60" height="60" rx="30" fill="#15C213"/>
<path d="M77.2605 59.6932C77.2605 57.2851 75.6049 55.259 73.382 54.6802L78.3603 40H53.6888L58.6787 54.7265C56.5253 55.3517 54.9392 57.343 54.9392 59.7048C54.9392 61.4414 55.8075 62.9812 57.1273 63.9305C56.6063 64.6715 56.0043 65.3546 55.3212 66.0029C54.0361 67.2069 52.6121 68.1331 51.0723 68.7467C49.683 67.809 49.081 66.1534 49.6251 64.6715C51.7438 64.0232 53.2836 62.0434 53.2836 59.7164C53.2836 56.8567 50.9565 54.5412 48.1085 54.5412C45.2489 54.5412 42.9218 56.8683 42.9218 59.7279C42.9218 61.1404 43.5007 62.437 44.4269 63.3632C44.3458 63.5253 44.2648 63.6874 44.1838 63.8611C43.4081 65.4588 42.5282 67.2648 42.1924 69.2909C41.5209 73.343 42.6208 76.5962 45.272 78.437C46.7655 79.4674 48.4095 79.9884 50.1809 79.9884C53.2257 79.9884 56.3169 78.4602 59.3039 76.9783C61.4341 75.9247 63.6338 74.8249 65.7988 74.2923C66.5976 74.0955 67.4312 73.9797 68.3111 73.8524C70.094 73.5977 71.9348 73.3314 73.5904 72.3705C75.5238 71.2475 76.8437 69.3719 77.2257 67.2185C77.5152 65.563 77.2257 63.8958 76.4848 62.437C76.9826 61.6382 77.2605 60.7004 77.2605 59.6932ZM75.0029 59.6932C75.0029 61.3025 73.6946 62.6107 72.0853 62.6107C70.4761 62.6107 69.1678 61.3025 69.1678 59.6932C69.1678 59.1722 69.3068 58.6744 69.5499 58.246C69.6425 58.0839 69.7583 57.9219 69.8741 57.7829C69.9898 57.644 70.1288 57.5166 70.2793 57.4009L70.2908 57.3893C70.3835 57.3198 70.4877 57.2504 70.5919 57.1809C70.5919 57.1809 70.6034 57.1809 70.6034 57.1693C70.6497 57.1462 70.6961 57.1114 70.7424 57.0883C70.7539 57.0883 70.7655 57.0767 70.7771 57.0767C70.8234 57.0535 70.8813 57.0304 70.9392 57.0072C70.9971 56.9841 71.055 56.9609 71.1013 56.9378C71.1128 56.9378 71.1244 56.9262 71.136 56.9262C71.1823 56.9146 71.2286 56.8915 71.2749 56.8799C71.2865 56.8799 71.3097 56.8683 71.3212 56.8683C71.3791 56.8567 71.4254 56.8452 71.4833 56.8336H71.4949L71.6686 56.7988C71.6801 56.7988 71.7033 56.7988 71.7149 56.7873C71.7612 56.7873 71.8075 56.7757 71.8538 56.7757H71.9117C71.9696 56.7757 72.0275 56.7641 72.0969 56.7641H72.2474C72.2937 56.7641 72.3285 56.7641 72.3748 56.7757H72.3979C72.4906 56.7873 72.5832 56.7988 72.6758 56.822C73.9956 57.0999 75.0029 58.2808 75.0029 59.6932ZM56.9189 42.3155H75.1302L70.9508 54.6454C70.7771 54.6802 70.6034 54.7381 70.4298 54.7959L66.0304 45.8234L61.6194 54.7381C61.4457 54.6802 61.2605 54.6454 61.0752 54.6107L56.9189 42.3155ZM65.1968 58.686C64.9768 57.5977 64.4211 56.6252 63.6338 55.9074L66.0304 51.068L68.45 56.0116C67.7322 56.7294 67.2112 57.644 67.0029 58.686H65.1968ZM59.3965 56.8567C59.4544 56.8452 59.5007 56.8336 59.5586 56.822H59.5933C59.6396 56.8104 59.6859 56.8104 59.7322 56.7988H59.7785C59.8249 56.7988 59.8596 56.7873 59.9059 56.7873H60.3574C60.4037 56.7873 60.4385 56.7988 60.4732 56.7988C60.4963 56.7988 60.5079 56.7988 60.5311 56.8104C60.5774 56.822 60.6121 56.822 60.6584 56.8336C60.67 56.8336 60.6816 56.8336 60.7047 56.8452C60.7626 56.8567 60.8205 56.8683 60.8668 56.8799H60.8784C60.9247 56.8915 60.971 56.903 61.0173 56.9262C61.0289 56.9262 61.0405 56.9378 61.0636 56.9378C61.0984 56.9493 61.1447 56.9609 61.1794 56.9841C61.191 56.9841 61.2026 56.9957 61.2141 56.9957C61.2605 57.0188 61.3068 57.0304 61.3531 57.0535H61.3647C61.4225 57.0767 61.4688 57.0999 61.5152 57.1346H61.5267C61.573 57.1577 61.6194 57.1925 61.6657 57.2156C61.6772 57.2156 61.6772 57.2272 61.6888 57.2272C61.7351 57.2504 61.7699 57.2851 61.8162 57.3082L61.8277 57.3198C61.9667 57.424 62.094 57.5398 62.2214 57.6556L62.233 57.6672C62.3487 57.7945 62.4645 57.9334 62.5571 58.0839C62.8581 58.547 63.0318 59.0912 63.0318 59.6816C63.0318 61.2909 61.7236 62.5991 60.1143 62.5991C58.505 62.5991 57.1968 61.2909 57.1968 59.6816C57.1852 58.3271 58.123 57.1809 59.3965 56.8567ZM48.0043 56.7757C49.6136 56.7757 50.9218 58.0839 50.9218 59.6932C50.9218 61.3025 49.6136 62.6107 48.0043 62.6107C46.395 62.6107 45.0868 61.3025 45.0868 59.6932C45.0868 58.0839 46.395 56.7757 48.0043 56.7757ZM74.9334 66.8133C74.6787 68.2952 73.7641 69.5919 72.4211 70.3676C71.1591 71.097 69.6078 71.3285 67.9754 71.5601C67.0839 71.6874 66.1461 71.8263 65.2431 72.0463C62.835 72.6368 60.5195 73.7945 58.2735 74.9059C55.4023 76.33 52.6932 77.6729 50.1809 77.6729C48.8726 77.6729 47.7033 77.3025 46.5919 76.5268C44.0448 74.767 44.1722 71.4674 44.4732 69.6614C44.751 67.9711 45.5267 66.385 46.2677 64.8683C46.314 64.7757 46.3487 64.6946 46.395 64.602C46.6497 64.6946 46.916 64.7641 47.1939 64.8104C46.7539 67.2648 48.0043 69.8003 50.4356 71.0507L50.8755 71.2822L51.3502 71.1085C53.3762 70.3907 55.2518 69.2214 56.9073 67.6585C57.8451 66.7786 58.644 65.8292 59.3154 64.7988C59.5817 64.8452 59.848 64.8567 60.1143 64.8567C62.5224 64.8567 64.5484 63.2012 65.1273 60.9783H67.0723C67.6512 63.2127 69.6772 64.8567 72.0853 64.8567C73.0463 64.8567 73.9377 64.5904 74.7018 64.1389C75.0029 65.0072 75.0955 65.9103 74.9334 66.8133Z" fill="white"/>
</svg>
