<svg width="120" height="120" viewBox="0 0 120 120" fill="none" xmlns="http://www.w3.org/2000/svg">
<rect width="120" height="120" rx="60" fill="white"/>
<rect x="30" y="30" width="60" height="60" rx="30" fill="white"/>
<g clip-path="url(#clip0_83_97)">
<path d="M69.5566 54.005H79.6592V55.9291H75.6516V66.0515H73.6477V55.9291H69.5566V54.005ZM52.9417 54.005V55.9291H44.8438V59.0243H51.3561V60.9484H44.8438V64.1274H52.9417V66.0516H42.84V55.9291H42.8391V54.005H52.9417ZM57.9862 54.01H55.3639L64.7566 66.0565H67.3867L62.6897 60.0374L67.3791 54.0191L64.7566 54.0234L61.3767 58.3549L57.9862 54.01ZM60.6772 62.6149L59.364 60.9301L55.3564 66.0658H57.9862L60.6772 62.6149Z" fill="black"/>
<path fill-rule="evenodd" clip-rule="evenodd" d="M42.9102 66.0515L33.5047 54H31V66.0465H33.0038V56.575L40.3929 66.0515H42.9102Z" fill="black"/>
<path d="M80.1096 65.978C80.0399 65.9791 79.9707 65.9658 79.906 65.9388C79.8414 65.9117 79.7827 65.8716 79.7335 65.8206C79.629 65.7157 79.5773 65.5887 79.5786 65.4381C79.5773 65.2919 79.629 65.1662 79.7335 65.0613C79.7827 65.0103 79.8414 64.9701 79.906 64.9431C79.9707 64.9161 80.0399 64.9027 80.1096 64.9039C80.2508 64.9039 80.3743 64.9563 80.4788 65.0613C80.5848 65.1661 80.6377 65.2919 80.6391 65.4381C80.6389 65.5341 80.613 65.6282 80.5643 65.71C80.5167 65.7909 80.4499 65.8579 80.3702 65.9048C80.2915 65.9533 80.2013 65.9786 80.1096 65.978ZM83.5297 60.903H84.4177V64.4332C84.4163 64.7575 84.3483 65.035 84.2154 65.2683C84.081 65.5016 83.8949 65.6797 83.656 65.8053C83.4184 65.9295 83.14 65.9932 82.8237 65.9932C82.5344 65.9932 82.2752 65.9392 82.0444 65.8343C81.8136 65.7295 81.6303 65.5721 81.4959 65.3649C81.36 65.1579 81.2935 64.8997 81.2935 64.5905H82.1829C82.1842 64.7257 82.2141 64.8431 82.2711 64.9411C82.3272 65.038 82.4092 65.1162 82.5073 65.1661C82.6091 65.2186 82.7259 65.2449 82.8575 65.2449C83.0002 65.2449 83.1224 65.2145 83.2215 65.1523C83.3205 65.0915 83.3966 65.0004 83.4496 64.879C83.5011 64.759 83.5284 64.6098 83.5297 64.4332V60.903ZM88.0712 62.2837C88.0496 62.0696 87.9545 61.9025 87.7889 61.7839C87.6218 61.6639 87.406 61.6044 87.1412 61.6044C86.9552 61.6044 86.7951 61.6334 86.662 61.69C86.5289 61.7481 86.4257 61.8252 86.3551 61.9233C86.2846 62.0213 86.2492 62.1331 86.2464 62.2587C86.2464 62.3637 86.2709 62.4547 86.3184 62.5306C86.3676 62.6102 86.4341 62.6769 86.5126 62.7254C86.5978 62.7808 86.6889 62.8257 86.7842 62.8593C86.8846 62.8952 86.9851 62.9256 87.0855 62.9505L87.5485 63.0678C87.733 63.111 87.9134 63.1711 88.0876 63.2473C88.2551 63.3188 88.4118 63.4145 88.5532 63.5317C88.6889 63.6444 88.8 63.7855 88.8791 63.9457C88.9592 64.1073 89 64.2965 89 64.5146C89 64.8087 88.9266 65.0667 88.7786 65.2905C88.6306 65.5127 88.4175 65.6866 88.1378 65.8123C87.8594 65.9365 87.5227 66 87.1263 66C86.7434 66 86.4094 65.9392 86.1284 65.8177C85.846 65.6977 85.6259 65.5209 85.4671 65.2891C85.3083 65.0572 85.2227 64.7742 85.2105 64.4415H86.0904C86.1026 64.6153 86.1569 64.7604 86.2492 64.8776C86.3429 64.9935 86.465 65.0792 86.6145 65.1372C86.7652 65.1937 86.9335 65.2227 87.1195 65.2227C87.3137 65.2227 87.4847 65.1924 87.6327 65.1331C87.7793 65.0737 87.8947 64.9908 87.9776 64.8831C88.0618 64.7768 88.1039 64.6513 88.1052 64.5076C88.1039 64.3765 88.0658 64.2674 87.9925 64.1818C87.9178 64.0963 87.8146 64.0244 87.6829 63.9665C87.5322 63.9023 87.377 63.8502 87.2186 63.8105L86.6566 63.6641C86.2506 63.5578 85.9288 63.3963 85.6938 63.1796C85.4577 62.9628 85.3408 62.6757 85.3408 62.3152C85.3408 62.02 85.4196 61.7604 85.5785 61.5381C85.7359 61.3159 85.9519 61.1432 86.2248 61.0205C86.499 60.8962 86.8086 60.8354 87.1534 60.8354C87.5037 60.8354 87.8105 60.8962 88.0753 61.0205C88.34 61.1433 88.5479 61.3145 88.6985 61.5327C88.8492 61.7508 88.928 62.0005 88.9321 62.2837H88.0712Z" fill="black"/>
</g>
<defs>
<clipPath id="clip0_83_97">
<rect width="58" height="12" fill="white" transform="translate(31 54)"/>
</clipPath>
</defs>
</svg>
