<svg width="120" height="120" viewBox="0 0 120 120" fill="none" xmlns="http://www.w3.org/2000/svg">
<rect width="120" height="120" rx="60" fill="white"/>
<rect x="30" y="30" width="60" height="60" rx="30" fill="white"/>
<g clip-path="url(#clip0_83_103)">
<path d="M40 52H80V65.3333H60V67.5556H51.1111V65.3333H40V52ZM42.2222 63.1111H46.6667V56.4444H48.8889V63.1111H51.1111V54.2222H42.2222V63.1111ZM53.3333 54.2222V65.3333H57.7778V63.1111H62.2222V54.2222H53.3333ZM57.7778 56.4444H60V60.8889H57.7778V56.4444ZM64.4444 54.2222V63.1111H68.8889V56.4444H71.1111V63.1111H73.3333V56.4444H75.5556V63.1111H77.7778V54.2222H64.4444Z" fill="#CB3837"/>
<path d="M42.2222 63.1111H46.6666V56.4444H48.8888V63.1111H51.1111V54.2222H42.2222V63.1111Z" fill="white"/>
<path d="M53.3334 54.2222V65.3333H57.7778V63.1111H62.2223V54.2222H53.3334ZM60 60.8888H57.7778V56.4444H60V60.8888Z" fill="white"/>
<path d="M64.4445 54.2222V63.1111H68.8889V56.4444H71.1111V63.1111H73.3333V56.4444H75.5556V63.1111H77.7778V54.2222H64.4445Z" fill="white"/>
</g>
<defs>
<clipPath id="clip0_83_103">
<rect width="40" height="15.5556" fill="white" transform="translate(40 52)"/>
</clipPath>
</defs>
</svg>
