<svg width="120" height="120" viewBox="0 0 120 120" fill="none" xmlns="http://www.w3.org/2000/svg">
<rect width="120" height="120" rx="60" fill="#2B2C2E"/>
<rect x="30" y="30" width="60" height="60" rx="30" fill="#2B2C2E"/>
<g clip-path="url(#clip0_83_52)">
<path d="M60 63.3396C61.969 63.3396 63.5652 61.7449 63.5652 59.7777C63.5652 57.8105 61.969 56.2158 60 56.2158C58.031 56.2158 56.4348 57.8105 56.4348 59.7777C56.4348 61.7449 58.031 63.3396 60 63.3396Z" fill="#61DAFB"/>
<path d="M60.0001 67.0753C70.5655 67.0753 79.1305 63.8081 79.1305 59.7778C79.1305 55.7475 70.5655 52.4802 60.0001 52.4802C49.4346 52.4802 40.8696 55.7475 40.8696 59.7778C40.8696 63.8081 49.4346 67.0753 60.0001 67.0753Z" stroke="#61DAFB"/>
<path d="M53.6742 63.4266C58.9569 72.568 66.0716 78.345 69.5652 76.3299C73.0588 74.3147 71.6084 65.2705 66.3257 56.1291C61.043 46.9876 53.9284 41.2106 50.4347 43.2258C46.9411 45.241 48.3915 54.2852 53.6742 63.4266Z" stroke="#61DAFB"/>
<path d="M53.6744 56.1291C48.3917 65.2705 46.9413 74.3148 50.4349 76.3299C53.9285 78.3451 61.0432 72.5681 66.3259 63.4267C71.6086 54.2852 73.059 45.241 69.5654 43.2259C66.0717 41.2107 58.9571 46.9877 53.6744 56.1291Z" stroke="#61DAFB"/>
</g>
<defs>
<clipPath id="clip0_83_52">
<rect width="40" height="35.5556" fill="white" transform="translate(40 42)"/>
</clipPath>
</defs>
</svg>
