<svg width="120" height="120" viewBox="0 0 120 120" fill="none" xmlns="http://www.w3.org/2000/svg">
<rect width="120" height="120" rx="60" fill="#D0021B"/>
<rect x="30" y="30" width="60" height="60" rx="30" fill="#D0021B"/>
<path d="M52.1978 63.4669C54.2006 63.4669 55.8242 61.8433 55.8242 59.8405C55.8242 57.8377 54.2006 56.2141 52.1978 56.2141C50.195 56.2141 48.5714 57.8377 48.5714 59.8405C48.5714 61.8433 50.195 63.4669 52.1978 63.4669ZM43.6264 70.7196C45.6292 70.7196 47.2527 69.096 47.2527 67.0932C47.2527 65.0904 45.6292 63.4669 43.6264 63.4669C41.6236 63.4669 40 65.0904 40 67.0932C40 69.096 41.6236 70.7196 43.6264 70.7196ZM76.3736 70.7196C78.3764 70.7196 80 69.096 80 67.0932C80 65.0904 78.3764 63.4669 76.3736 63.4669C74.3708 63.4669 72.7473 65.0904 72.7473 67.0932C72.7473 69.096 74.3708 70.7196 76.3736 70.7196Z" fill="white"/>
<path d="M64.4634 59.9933C64.3474 58.7817 64.2884 57.7733 63.3602 57.0646C62.1848 56.167 60.8533 56.7494 59.2132 56.1574C57.6016 55.7675 56.4062 54.3367 56.4062 52.6312C56.4062 50.6257 58.059 49 60.0979 49C61.6079 49 62.9062 49.8918 63.4781 51.1691C64.3533 52.8316 63.7845 54.5234 64.8841 55.3756C66.1862 56.3847 67.9416 55.6458 69.9003 56.6018C70.5297 56.891 71.0624 57.3498 71.4378 57.9183C71.8132 58.4868 72.0312 59.1651 72.0312 59.8935C72.0312 61.599 70.8359 63.0298 69.2243 63.4197C67.5842 64.0117 66.2527 63.4293 65.0773 64.3269C63.7555 65.3362 64.4631 67.0248 63.3858 68.8085C62.7744 69.9831 61.5316 70.787 60.0979 70.787C58.059 70.787 56.4062 69.1612 56.4062 67.1558C56.4062 65.699 57.2784 64.4426 58.5372 63.8642C60.4959 62.9081 62.2513 63.647 63.5534 62.638C64.3045 62.0558 64.4634 61.1579 64.4634 59.9933Z" fill="white"/>
</svg>
