<svg width="120" height="120" viewBox="0 0 120 120" fill="none" xmlns="http://www.w3.org/2000/svg">
<rect width="120" height="120" rx="60" fill="#764ABC"/>
<rect x="30" y="30" width="60" height="60" rx="30" fill="#764ABC"/>
<path d="M67.7158 67.5208C69.1919 67.368 70.3117 66.0955 70.2608 64.5683C70.21 63.0413 68.9373 61.8195 67.4103 61.8195H67.3086C65.7305 61.8705 64.5089 63.1939 64.5598 64.7719C64.6108 65.5355 64.9161 66.1972 65.3742 66.6553C63.6436 70.0659 60.9967 72.5602 57.0264 74.6472C54.3286 76.0725 51.5291 76.5816 48.7295 76.2253C46.4389 75.9198 44.6573 74.9019 43.5373 73.2219C41.9086 70.7277 41.7559 68.0297 43.1303 65.3319C44.0975 63.3975 45.6244 61.9722 46.5916 61.2595C46.388 60.5978 46.0825 59.478 45.9298 58.6636C38.5491 64.0084 39.3127 71.2367 41.5523 74.6472C43.232 77.1925 46.6425 78.7705 50.4092 78.7705C51.4272 78.7705 52.4452 78.6686 53.4633 78.4142C59.9787 77.1416 64.9162 73.2728 67.7158 67.5208ZM76.6745 61.2088C72.8059 56.6783 67.105 54.1841 60.5895 54.1841H59.7752C59.317 53.2678 58.3498 52.6569 57.2809 52.6569H57.1791C55.6012 52.7078 54.3797 54.0313 54.4305 55.6094C54.4814 57.1364 55.7539 58.3581 57.2809 58.3581H57.3827C58.5025 58.3072 59.4697 57.5945 59.8769 56.6273H60.7931C64.6617 56.6273 68.3266 57.7472 71.6353 59.9361C74.1803 61.6159 76.0128 63.8048 77.0308 66.4517C77.8961 68.5897 77.8452 70.6767 76.9289 72.4584C75.5038 75.1563 73.1114 76.6325 69.9555 76.6325C67.9194 76.6325 65.9852 76.0216 64.967 75.5634C64.4072 76.0725 63.3891 76.8869 62.6764 77.3961C64.8653 78.4141 67.105 78.9741 69.2428 78.9741C74.1294 78.9741 77.7434 76.2761 79.1178 73.5783C80.5939 70.6258 80.492 65.5355 76.6745 61.2088ZM50.8164 68.3859C50.8673 69.9131 52.1398 71.1347 53.6669 71.1347H53.7687C55.3467 71.0839 56.5683 69.7603 56.5173 68.1823C56.4666 66.6552 55.1939 65.4336 53.6669 65.4336H53.5652C53.4633 65.4336 53.3105 65.4336 53.2089 65.4844C51.1219 62.023 50.2566 58.2563 50.562 54.1839C50.7655 51.1297 51.7836 48.4827 53.5652 46.2938C55.0412 44.4103 57.8917 43.4941 59.8261 43.4433C65.2216 43.3414 67.512 50.0606 67.6648 52.7586C68.3266 52.9113 69.4464 53.2677 70.21 53.5222C69.5991 45.2759 64.5089 41 59.6225 41C55.0412 41 50.8164 44.3088 49.1366 49.1955C46.7952 55.7111 48.3222 61.9722 51.1727 66.9098C50.9183 67.2661 50.7655 67.8259 50.8164 68.3859Z" fill="white"/>
</svg>
