<svg width="120" height="120" viewBox="0 0 120 120" fill="none" xmlns="http://www.w3.org/2000/svg">
<rect width="120" height="120" rx="60" fill="#CD6799"/>
<rect x="30" y="30" width="60" height="60" rx="30" fill="#CD6799"/>
<path d="M74.4431 62.2445C73.0477 62.2518 71.8348 62.5878 70.8193 63.0847C70.4467 62.3467 70.074 61.6892 70.0083 61.207C69.9352 60.6444 69.8476 60.301 69.9352 59.6289C70.0229 58.9567 70.4174 57.9996 70.4101 57.9265C70.4028 57.8535 70.3225 57.5101 69.5188 57.5028C68.7151 57.4955 68.021 57.6562 67.9407 57.8681C67.8603 58.0799 67.7069 58.5622 67.6046 59.059C67.4658 59.7896 65.9972 62.3979 65.157 63.7641C64.8867 63.2308 64.6529 62.7632 64.6017 62.3906C64.5287 61.828 64.441 61.4846 64.5287 60.8124C64.6164 60.1403 65.0109 59.1832 65.0036 59.1101C64.9963 59.0371 64.9159 58.6937 64.1122 58.6864C63.3085 58.6791 62.6145 58.8398 62.5341 59.0517C62.4537 59.2635 62.3661 59.7604 62.198 60.2426C62.03 60.7248 60.0792 65.0792 59.5678 66.2044C59.3048 66.7816 59.0783 67.2419 58.9175 67.556C58.9175 67.556 58.9102 67.5779 58.8883 67.6145C58.7495 67.8848 58.6691 68.0309 58.6691 68.0309C58.6691 68.0309 58.6691 68.0309 58.6691 68.0382C58.5595 68.2355 58.4427 68.4182 58.3842 68.4182C58.3404 68.4182 58.26 67.8921 58.3988 67.1761C58.6911 65.6637 59.3851 63.3112 59.3778 63.2308C59.3778 63.1869 59.5093 62.7778 58.9249 62.5659C58.355 62.354 58.1504 62.7047 58.0993 62.7047C58.0481 62.7047 58.0116 62.8289 58.0116 62.8289C58.0116 62.8289 58.6472 60.1841 56.7988 60.1841C55.6444 60.1841 54.0517 61.4481 53.2626 62.5878C52.7658 62.8582 51.7064 63.4354 50.5739 64.0564C50.1429 64.2975 49.6972 64.5386 49.2807 64.7651C49.2515 64.7359 49.2223 64.6993 49.1931 64.6701C46.9574 62.281 42.8221 60.5933 42.9974 57.3859C43.0632 56.2169 43.465 53.1483 50.9392 49.4222C57.091 46.3901 61.9861 47.2303 62.8336 49.0934C64.0465 51.7528 60.2107 56.6918 53.8544 57.4078C51.4287 57.6781 50.1575 56.7429 49.836 56.3922C49.4999 56.0269 49.4488 56.005 49.3246 56.0781C49.12 56.1877 49.2515 56.5164 49.3246 56.7064C49.5145 57.2032 50.2963 58.0799 51.6187 58.511C52.7877 58.8909 55.6298 59.1028 59.071 57.7731C62.9213 56.2826 65.9315 52.14 65.0474 48.6696C64.1634 45.1481 58.3184 43.9864 52.7877 45.9517C49.4999 47.1207 45.9345 48.9619 43.3701 51.3583C40.3234 54.2077 39.8412 56.6845 40.0384 57.7219C40.7471 61.4042 45.8249 63.8007 47.856 65.5761C47.7537 65.6345 47.6588 65.6857 47.5784 65.7295C46.5628 66.2336 42.6906 68.2574 41.7262 70.3981C40.6302 72.8238 41.9015 74.5626 42.7417 74.7964C45.35 75.5197 48.0314 74.2192 49.4707 72.0712C50.91 69.9232 50.7347 67.1323 50.0698 65.8537C50.0625 65.8391 50.0552 65.8245 50.0406 65.8099C50.3036 65.6564 50.5739 65.4957 50.8369 65.3423C51.3557 65.0354 51.8671 64.7505 52.3055 64.5167C52.0571 65.1961 51.8744 66.0071 51.7867 67.1761C51.6772 68.5497 52.2397 70.3324 52.9776 71.0338C53.3064 71.3406 53.6936 71.3479 53.9421 71.3479C54.8042 71.3479 55.1914 70.6319 55.6225 69.7844C56.1485 68.7469 56.6234 67.5414 56.6234 67.5414C56.6234 67.5414 56.0316 70.8 57.639 70.8C58.2235 70.8 58.8153 70.0401 59.0783 69.6529C59.0783 69.6602 59.0783 69.6602 59.0783 69.6602C59.0783 69.6602 59.0929 69.6383 59.1221 69.5871C59.1806 69.4922 59.2171 69.4337 59.2171 69.4337C59.2171 69.4337 59.2171 69.4264 59.2171 69.4191C59.4509 69.01 59.9769 68.0821 60.7587 66.5405C61.767 64.5532 62.7387 62.0691 62.7387 62.0691C62.7387 62.0691 62.8263 62.6755 63.1259 63.6838C63.3012 64.2756 63.6666 64.9258 63.9588 65.5541C63.725 65.8829 63.5789 66.0656 63.5789 66.0656C63.5789 66.0656 63.5789 66.0656 63.5862 66.0729C63.3962 66.3213 63.1916 66.5916 62.9652 66.8546C62.1688 67.8044 61.219 68.8931 61.0875 69.2072C60.934 69.5798 60.9706 69.8502 61.2628 70.0693C61.4747 70.2301 61.8546 70.252 62.2419 70.2301C62.9579 70.1789 63.462 70.0036 63.7104 69.894C64.0976 69.7552 64.5506 69.5433 64.9744 69.2291C65.7561 68.652 66.231 67.8264 66.1872 66.7377C66.1653 66.1386 65.968 65.5395 65.7269 64.977C65.7999 64.8747 65.8657 64.7724 65.9388 64.6701C67.1735 62.8655 68.1306 60.8855 68.1306 60.8855C68.1306 60.8855 68.2183 61.4919 68.5178 62.5002C68.664 63.0116 68.9635 63.5669 69.2265 64.1075C68.0649 65.05 67.3489 66.1459 67.0931 66.8619C66.6328 68.1917 66.9909 68.7908 67.6703 68.9296C67.9772 68.9953 68.4156 68.8492 68.737 68.7104C69.1462 68.5789 69.6284 68.3524 70.0887 68.0163C70.8704 67.4391 71.623 66.6355 71.5791 65.5468C71.5572 65.05 71.4257 64.5605 71.243 64.0856C72.2294 63.6765 73.5006 63.45 75.1226 63.6399C78.6003 64.0491 79.2871 66.219 79.1556 67.1323C79.0241 68.0455 78.2935 68.5424 78.0524 68.6958C77.8113 68.8492 77.7309 68.9004 77.7528 69.01C77.782 69.1707 77.8989 69.1634 78.1035 69.1342C78.3885 69.083 79.9301 68.3962 79.9958 66.7158C80.1054 64.5678 78.0597 62.2225 74.4431 62.2445ZM47.6149 71.2895C46.4606 72.5461 44.8532 73.021 44.1591 72.6192C43.4139 72.1881 43.7061 70.3324 45.1235 69.0026C45.9857 68.1917 47.0962 67.4391 47.8341 66.9788C48.0022 66.8766 48.2506 66.7304 48.5501 66.5478C48.6013 66.5186 48.6305 66.5039 48.6305 66.5039C48.6889 66.4674 48.7474 66.4309 48.8058 66.3943C49.3246 68.2939 48.8278 69.9671 47.6149 71.2895ZM56.017 65.5761C55.6152 66.5551 54.775 69.0611 54.2635 68.9223C53.8252 68.8054 53.5548 66.9058 54.1759 65.0281C54.49 64.0856 55.1549 62.9605 55.5421 62.5221C56.1704 61.8207 56.8645 61.5869 57.0326 61.8718C57.2444 62.2445 56.2654 64.9623 56.017 65.5761ZM62.9505 68.8931C62.7825 68.9807 62.6218 69.0392 62.5487 68.9953C62.4976 68.9661 62.6218 68.8492 62.6218 68.8492C62.6218 68.8492 63.4912 67.914 63.8346 67.4903C64.0319 67.2419 64.2657 66.9496 64.5141 66.6208C64.5141 66.6501 64.5141 66.6866 64.5141 66.7158C64.5141 67.8337 63.4328 68.5862 62.9505 68.8931ZM68.2987 67.6729C68.1744 67.5853 68.1964 67.293 68.6128 66.3797C68.7736 66.0217 69.1535 65.4226 69.8037 64.8454C69.8768 65.0792 69.9279 65.3057 69.9206 65.5176C69.9133 66.9277 68.9051 67.4537 68.2987 67.6729Z" fill="white"/>
</svg>
