<svg width="120" height="120" viewBox="0 0 120 120" fill="none" xmlns="http://www.w3.org/2000/svg">
<rect width="120" height="120" rx="60" fill="#38BDF8"/>
<rect x="30" y="30" width="60" height="60" rx="30" fill="#38BDF8"/>
<path fill-rule="evenodd" clip-rule="evenodd" d="M60.0004 48C54.6666 48 51.3338 50.6508 49.9998 55.9525C52.0001 53.3017 54.3335 52.3078 57 52.9701C58.5213 53.3479 59.6093 54.4452 60.8124 55.6601C62.7735 57.6385 65.0434 59.928 70.0002 59.928C75.3332 59.928 78.6667 57.2771 80 51.9763C78.0005 54.6271 75.6671 55.621 73.0006 54.9579C71.4785 54.5801 70.3905 53.4827 69.1874 52.2686C67.2263 50.2887 64.9572 48 60.0004 48ZM49.9998 59.928C44.6668 59.928 41.3333 62.5788 40 67.8805C42.0003 65.2296 44.3337 64.2358 46.9994 64.8981C48.5215 65.2759 49.6095 66.3732 50.8126 67.5881C52.7737 69.5664 55.0428 71.8559 60.0004 71.8559C65.3334 71.8559 68.6669 69.2059 70.0002 63.9042C67.9999 66.5551 65.6665 67.5489 63 66.8866C61.4787 66.508 60.3907 65.4107 59.1876 64.1966C57.2265 62.2182 54.9566 59.928 49.9998 59.928Z" fill="white"/>
</svg>
