<svg width="120" height="120" viewBox="0 0 120 120" fill="none" xmlns="http://www.w3.org/2000/svg">
<rect width="120" height="120" rx="60" fill="#3178C6"/>
<rect x="30" y="30" width="60" height="60" rx="30" fill="#3178C6"/>
<path fill-rule="evenodd" clip-rule="evenodd" d="M62.6067 66.9083V73.3817C63.5315 73.9212 64.6252 74.3256 65.888 74.5954C67.1507 74.8651 68.4815 75 69.8806 75C71.2441 75 72.5393 74.8517 73.7665 74.5549C74.9936 74.2583 76.0697 73.7694 76.9944 73.0883C77.9192 72.4073 78.6514 71.5172 79.1908 70.418C79.7302 69.3189 80 67.9602 80 66.3419C80 65.1685 79.8459 64.1403 79.5376 63.2569C79.2293 62.3736 78.7848 61.5881 78.2038 60.9003C77.6228 60.2125 76.9262 59.5954 76.1141 59.0492C75.3019 58.503 74.386 57.9872 73.3664 57.5017C72.6194 57.151 71.9495 56.8106 71.3567 56.4802C70.7639 56.1497 70.26 55.8125 69.845 55.4687C69.43 55.1247 69.1099 54.7606 68.8847 54.3763C68.6594 53.9919 68.5467 53.557 68.5467 53.0714C68.5467 52.6265 68.6475 52.2252 68.8491 51.8678C69.0507 51.5104 69.3352 51.2037 69.7027 50.9474C70.0703 50.6912 70.5208 50.4922 71.0543 50.3506C71.588 50.209 72.1807 50.1383 72.8328 50.1383C73.307 50.1383 73.808 50.1788 74.3356 50.2596C74.8632 50.3405 75.3938 50.4653 75.9274 50.6338C76.4609 50.8024 76.9795 51.0149 77.4835 51.271C77.9874 51.5273 78.4527 51.824 78.8795 52.1612V46.1126C78.0141 45.735 77.0685 45.4552 76.043 45.2731C75.0174 45.091 73.8406 45 72.5127 45C71.161 45 69.8806 45.1653 68.6713 45.4956C67.4619 45.826 66.3978 46.3419 65.4789 47.0431C64.56 47.7445 63.8339 48.6379 63.3003 49.7236C62.7668 50.8091 62.5 52.1072 62.5 53.6176C62.5 55.5462 62.9891 57.1915 63.9673 58.5537C64.9453 59.9157 66.4303 61.0688 68.4223 62.0128C69.2048 62.377 69.934 62.7343 70.6098 63.085C71.2856 63.4356 71.8695 63.7998 72.3615 64.1774C72.8535 64.555 73.2418 64.9663 73.5265 65.4114C73.811 65.8563 73.9533 66.3621 73.9533 66.9286C73.9533 67.3466 73.8643 67.7343 73.6865 68.0917C73.5086 68.4491 73.2389 68.7592 72.8773 69.0222C72.5157 69.2853 72.0651 69.4909 71.5257 69.6392C70.9861 69.7876 70.3549 69.8617 69.6316 69.8617C68.3985 69.8617 67.1774 69.6156 65.968 69.1234C64.7586 68.6312 63.6382 67.8928 62.6067 66.9083ZM53.0432 50.9589H60.3409V45.6466H40V50.9589H47.262V74.6121H53.0432V50.9589Z" fill="white"/>
</svg>
