<svg width="120" height="120" viewBox="0 0 120 120" fill="none" xmlns="http://www.w3.org/2000/svg">
<rect width="120" height="120" rx="60" fill="white"/>
<rect x="30" y="30" width="60" height="60" rx="30" fill="white"/>
<path d="M78.9894 45.8935L61.0384 78.4698C60.6677 79.1423 59.7155 79.1463 59.3393 78.477L41.0324 45.8966C40.6225 45.1672 41.2371 44.2838 42.0515 44.4315L60.0218 47.6913C60.1364 47.7121 60.2538 47.7119 60.3684 47.6907L77.9629 44.4362C78.7746 44.286 79.392 45.1627 78.9894 45.8935Z" fill="url(#paint0_linear_83_125)"/>
<path d="M68.5819 40.1559L55.2976 42.7976C55.0793 42.841 54.9176 43.0288 54.9045 43.2541L54.0873 57.2604C54.0681 57.5903 54.3666 57.8464 54.6839 57.7721L58.3824 56.9059C58.7285 56.8249 59.0412 57.1342 58.97 57.4874L57.8712 62.9481C57.7973 63.3156 58.1373 63.6298 58.4909 63.5208L60.7753 62.8165C61.1295 62.7074 61.4697 63.0225 61.3948 63.3903L59.6486 71.9679C59.5393 72.5044 60.2425 72.797 60.5358 72.337L60.7317 72.0297L71.5565 50.1062C71.7377 49.7391 71.4252 49.3205 71.0279 49.3983L67.2209 50.144C66.8631 50.214 66.5587 49.8759 66.6597 49.5207L69.1445 40.7789C69.2455 40.4231 68.9401 40.0847 68.5819 40.1559Z" fill="url(#paint1_linear_83_125)"/>
<defs>
<linearGradient id="paint0_linear_83_125" x1="40.5854" y1="43.2673" x2="63.3558" y2="73.7388" gradientUnits="userSpaceOnUse">
<stop stop-color="#41D1FF"/>
<stop offset="1" stop-color="#BD34FE"/>
</linearGradient>
<linearGradient id="paint1_linear_83_125" x1="58.9903" y1="40.8731" x2="63.1501" y2="68.9913" gradientUnits="userSpaceOnUse">
<stop stop-color="#FFEA83"/>
<stop offset="0.0833333" stop-color="#FFDD35"/>
<stop offset="1" stop-color="#FFA800"/>
</linearGradient>
</defs>
</svg>
