<svg width="120" height="120" viewBox="0 0 120 120" fill="none" xmlns="http://www.w3.org/2000/svg">
<rect width="120" height="120" rx="60" fill="white"/>
<rect x="30" y="30" width="60" height="60" rx="30" fill="white"/>
<path d="M59.6773 40L77.3546 49.9989V70.0011L59.6773 80L42 70.0011V49.9989L59.6773 40Z" fill="black"/>
<path d="M74.1982 69.3114L60.262 77.1954V71.0563L68.9453 66.2784L74.1982 69.3114ZM75.1529 68.4481V51.963L70.0553 54.9092V65.5065L75.1529 68.4481ZM45.1015 69.3114L59.0378 77.1954V71.0563L50.3499 66.2784L45.1015 69.3114ZM44.1469 68.4481V51.963L49.2445 54.9092V65.5065L44.1469 68.4481ZM44.7452 50.8942L59.0378 42.8092V48.7427L49.8794 53.781L49.8063 53.8221L44.7452 50.8942ZM74.5545 50.8942L60.262 42.8092V48.7427L69.4203 53.7764L69.4934 53.8175L74.5545 50.8942Z" fill="#8ED6FB"/>
<path d="M59.0378 69.6586L50.4686 64.9446V55.6126L59.0378 60.5595V69.6586ZM60.2619 69.6586L68.8311 64.9492V55.6126L60.2619 60.5595V69.6586ZM51.0487 54.5347L59.6499 49.807L68.251 54.5347L59.6499 59.4998L51.0487 54.5347Z" fill="#1C78C0"/>
</svg>
