<svg width="120" height="120" viewBox="0 0 120 120" fill="none" xmlns="http://www.w3.org/2000/svg">
<rect width="120" height="120" rx="60" fill="#2E2A65"/>
<rect x="30" y="30" width="60" height="60" rx="30" fill="#2E2A65"/>
<path d="M78.4072 69.222C78.1958 67.5549 76.7869 66.4043 74.9789 66.4278C72.2785 66.463 70.0126 67.8601 68.5098 68.7876C67.9227 69.1516 67.4179 69.4216 66.9835 69.6212C67.0774 68.2593 66.9952 66.4747 66.2908 64.514C65.4337 62.1659 64.2831 60.7218 63.4613 59.8882C64.4123 58.5028 65.7155 56.4834 66.326 53.3604C66.8543 50.6952 66.6899 46.5508 65.4807 44.2261C65.2341 43.7565 64.8232 43.416 64.3066 43.2751C64.0953 43.2164 63.6961 43.099 62.9094 43.3221C61.7236 40.8683 61.3127 40.61 60.9957 40.3987C60.3382 39.976 59.5633 39.8821 58.8354 40.1521C57.8609 40.5043 57.0274 41.4436 56.2407 43.1108C56.1233 43.3573 56.0177 43.5921 55.9237 43.8269C54.4327 43.9326 52.0845 44.4727 50.1004 46.6212C49.8538 46.8913 49.3724 47.0909 48.8676 47.2787H48.8793C47.8461 47.6427 47.3765 48.488 46.8012 50.0143C46.0029 52.1511 46.8247 54.2527 47.6348 55.6146C46.5312 56.6008 45.0636 58.1741 44.2887 60.0173C43.326 62.295 43.2203 64.5258 43.2555 65.7351C42.4337 66.6039 41.1657 68.2358 41.0248 70.0674C40.837 72.6269 41.7645 74.3645 42.1754 74.9985C42.2928 75.1863 42.4219 75.3389 42.5628 75.4916C42.5159 75.8086 42.5041 76.1491 42.5746 76.5013C42.7272 77.3231 43.2438 77.9923 44.0304 78.415C45.5802 79.2369 47.7405 79.5891 49.4077 78.7555C50.0064 79.3895 51.0983 80 53.0825 80H53.1999C53.7047 80 60.1152 79.6595 61.9819 79.2016C62.8155 79.002 63.3908 78.6498 63.7665 78.3328C64.9641 77.9571 68.2749 76.83 71.398 74.8106C73.6052 73.3783 74.3684 73.073 76.0121 72.6738C77.6088 72.2864 78.6067 70.8305 78.4072 69.222ZM75.6129 70.9479C73.7344 71.3941 72.7834 71.805 70.4587 73.3195C66.8308 75.6677 62.8625 76.7596 62.8625 76.7596C62.8625 76.7596 62.5337 77.2527 61.5827 77.4757C59.9391 77.8749 53.7517 78.2154 53.1882 78.2272C51.6736 78.2389 50.7461 77.8397 50.4878 77.2175C49.7012 75.3389 51.6149 74.5171 51.6149 74.5171C51.6149 74.5171 51.1922 74.2588 50.9457 74.024C50.7226 73.8009 50.4878 73.3548 50.4174 73.5191C50.1238 74.2353 49.9712 75.9847 49.1846 76.7713C48.1044 77.8632 46.0616 77.4992 44.8523 76.8652C43.5256 76.1608 44.9462 74.5054 44.9462 74.5054C44.9462 74.5054 44.23 74.928 43.6547 74.0592C43.1381 73.2608 42.6568 71.8989 42.7859 70.22C42.9268 68.3063 45.0636 66.4512 45.0636 66.4512C45.0636 66.4512 44.6879 63.6217 45.9207 60.7218C47.036 58.0801 50.0417 55.9551 50.0417 55.9551C50.0417 55.9551 47.5174 53.1608 48.4567 50.6483C49.0672 49.0046 49.3137 49.0163 49.5133 48.9459C50.2178 48.6758 50.8987 48.3823 51.4036 47.8305C53.9278 45.1067 57.1448 45.6233 57.1448 45.6233C57.1448 45.6233 58.6711 40.9857 60.0799 41.8897C60.5143 42.1715 62.0759 45.6468 62.0759 45.6468C62.0759 45.6468 63.743 44.6723 63.9309 45.0362C64.9406 46.9969 65.058 50.7422 64.6118 53.0199C63.8604 56.7769 61.9819 58.7963 61.2305 60.0643C61.0544 60.3578 63.2499 61.2853 64.6353 65.1246C65.9151 68.635 64.7762 71.5819 64.9758 71.9107C65.011 71.9694 65.0228 71.9929 65.0228 71.9929C65.0228 71.9929 66.4904 72.1103 69.4373 70.2905C71.0105 69.316 72.8773 68.2241 75.0024 68.2006C77.057 68.1654 77.1626 70.5722 75.6129 70.9479Z" fill="white"/>
</svg>
