<svg width="60" height="60" viewBox="0 0 60 60" fill="none" xmlns="http://www.w3.org/2000/svg">
<g clip-path="url(#clip0_8_84)">
<path fill-rule="evenodd" clip-rule="evenodd" d="M29.9106 0C13.3708 0 0 13.75 0 30.7606C0 44.3581 8.56714 55.8681 20.452 59.9419C21.938 60.2481 22.4822 59.28 22.4822 58.4656C22.4822 57.7525 22.4333 55.3081 22.4333 52.7612C14.1129 54.595 12.3802 49.0944 12.3802 49.0944C11.0431 45.5294 9.06184 44.6131 9.06184 44.6131C6.33857 42.7287 9.2602 42.7287 9.2602 42.7287C12.281 42.9325 13.8661 45.8862 13.8661 45.8862C16.5398 50.5713 20.8482 49.2475 22.5814 48.4325C22.8288 46.4462 23.6216 45.0712 24.4635 44.3075C17.8273 43.5944 10.8453 40.9463 10.8453 29.1306C10.8453 25.7694 12.0331 23.0194 13.9151 20.8806C13.6182 20.1169 12.578 16.9587 14.2127 12.7319C14.2127 12.7319 16.7382 11.9169 22.4327 15.8894C24.8707 15.216 27.385 14.8735 29.9106 14.8706C32.4361 14.8706 35.0106 15.2275 37.388 15.8894C43.0831 11.9169 45.6086 12.7319 45.6086 12.7319C47.2433 16.9587 46.2024 20.1169 45.9055 20.8806C47.8371 23.0194 48.9759 25.7694 48.9759 29.1306C48.9759 40.9463 41.9939 43.5431 35.3082 44.3075C36.398 45.275 37.3384 47.1081 37.3384 50.0112C37.3384 54.1362 37.2894 57.4469 37.2894 58.465C37.2894 59.28 37.8343 60.2481 39.3196 59.9425C51.2045 55.8675 59.7716 44.3581 59.7716 30.7606C59.8206 13.75 46.4008 0 29.9106 0Z" fill="black"/>
</g>
<defs>
<clipPath id="clip0_8_84">
<rect width="60" height="60" fill="white"/>
</clipPath>
</defs>
</svg>
