<svg width="60" height="60" viewBox="0 0 60 60" fill="none" xmlns="http://www.w3.org/2000/svg">
<g id="Telegram_logo 3" clip-path="url(#clip0_8_116)">
<path id="Vector" d="M30 60C46.5685 60 60 46.5685 60 30C60 13.4315 46.5685 0 30 0C13.4315 0 0 13.4315 0 30C0 46.5685 13.4315 60 30 60Z" fill="url(#paint0_linear_8_116)"/>
<path id="Vector_2" d="M20.3073 32.193L23.8665 42.0445C23.8665 42.0445 24.3115 42.9663 24.788 42.9663C25.2645 42.9663 32.3518 35.5933 32.3518 35.5933L40.233 20.3708L20.4343 29.65L20.3073 32.193Z" fill="#C8DAEA"/>
<path id="Vector_3" d="M25.0265 34.7195L24.3433 41.981C24.3433 41.981 24.0573 44.206 26.2818 41.981C28.5063 39.756 30.6355 38.0403 30.6355 38.0403" fill="#A9C6D8"/>
<path id="Vector_4" d="M20.3715 32.5445L13.05 30.159C13.05 30.159 12.175 29.804 12.4568 28.999C12.5148 28.833 12.6318 28.6918 12.9818 28.449C14.604 27.3183 43.0083 17.109 43.0083 17.109C43.0083 17.109 43.8103 16.8388 44.2833 17.0185C44.4003 17.0547 44.5056 17.1214 44.5884 17.2117C44.6712 17.3019 44.7285 17.4126 44.7545 17.5323C44.8056 17.7437 44.827 17.9612 44.818 18.1785C44.8158 18.3665 44.793 18.5408 44.7758 18.814C44.6028 21.6053 39.4258 42.4373 39.4258 42.4373C39.4258 42.4373 39.116 43.6563 38.0063 43.698C37.7336 43.7068 37.4619 43.6606 37.2074 43.5622C36.9529 43.4637 36.7208 43.3151 36.525 43.125C34.3473 41.2518 26.8203 36.1933 25.157 35.0808C25.1195 35.0552 25.0879 35.0219 25.0644 34.9831C25.0408 34.9443 25.0259 34.9008 25.0205 34.8558C24.9973 34.7385 25.1248 34.5933 25.1248 34.5933C25.1248 34.5933 38.2313 22.9433 38.58 21.7203C38.607 21.6255 38.505 21.5788 38.368 21.6203C37.4975 21.9405 22.407 31.4703 20.7415 32.522C20.6216 32.5583 20.4949 32.566 20.3715 32.5445Z" fill="white"/>
</g>
<defs>
<linearGradient id="paint0_linear_8_116" x1="30" y1="60" x2="30" y2="0" gradientUnits="userSpaceOnUse">
<stop stop-color="#1D93D2"/>
<stop offset="1" stop-color="#38B0E3"/>
</linearGradient>
<clipPath id="clip0_8_116">
<rect width="60" height="60" fill="white"/>
</clipPath>
</defs>
</svg>
