<svg width="20" height="20" viewBox="0 0 20 20" fill="none" xmlns="http://www.w3.org/2000/svg">
<path d="M10 20C15.4706 20 20 15.4608 20 10C20 4.52942 15.4608 0 9.99021 0C4.52942 0 0 4.52942 0 10C0 15.4608 4.53922 20 10 20ZM10 18.3334C5.37256 18.3334 1.67648 14.6275 1.67648 10C1.67648 5.37256 5.36276 1.66667 9.99021 1.66667C14.6177 1.66667 18.3334 5.37256 18.3334 10C18.3334 14.6275 14.6275 18.3334 10 18.3334ZM13.0589 12.4314C13.4902 12.4314 13.7844 12.098 13.7844 11.6471V7.01962C13.7844 6.44119 13.4608 6.2157 12.9608 6.2157H8.31374C7.85296 6.2157 7.55884 6.50001 7.55884 6.93139C7.55884 7.36276 7.86276 7.64707 8.33335 7.64707H10.1177L11.5686 7.49021L10.0392 8.91175L6.42158 12.5295C6.28433 12.6667 6.18629 12.8628 6.18629 13.0589C6.18629 13.5 6.4804 13.7844 6.91178 13.7844C7.14707 13.7844 7.32355 13.6961 7.47061 13.5588L11.0785 9.95097L12.4902 8.44116L12.3432 9.97064V11.6667C12.3432 12.1275 12.6275 12.4314 13.0589 12.4314Z" fill="white"/>
</svg>
