<svg width="40" height="40" viewBox="0 0 40 40" fill="none" xmlns="http://www.w3.org/2000/svg">
<rect width="40" height="40" fill="#1E1E1E"/>
<g id="1">
<rect width="1920" height="963" transform="translate(-1190 -193)" fill="black"/>
<g id="Telegram_logo 3" clip-path="url(#clip0_0_1)">
<path id="Exclude" fill-rule="evenodd" clip-rule="evenodd" d="M40 20C40 31.0457 31.0457 40 20 40C8.95431 40 0 31.0457 0 20C0 8.95431 8.95431 0 20 0C31.0457 0 40 8.95431 40 20ZM13.581 21.6963L8.69998 20.106C8.69998 20.106 8.11664 19.8693 8.30448 19.3327C8.34314 19.222 8.42114 19.1278 8.65448 18.966C9.73598 18.2122 28.6721 11.406 28.6721 11.406C28.6721 11.406 29.2068 11.2258 29.5221 11.3457C29.6002 11.3698 29.6703 11.4142 29.7255 11.4744C29.7807 11.5346 29.819 11.6084 29.8363 11.6882C29.8704 11.8291 29.8846 11.9741 29.8786 12.119C29.8777 12.1958 29.8717 12.2692 29.8645 12.3564V12.3564C29.8599 12.4115 29.8549 12.4721 29.8505 12.5427C29.7351 14.4035 26.2838 28.2915 26.2838 28.2915C26.2838 28.2915 26.0773 29.1042 25.3375 29.132C25.1557 29.1379 24.9745 29.1071 24.8049 29.0414C24.6352 28.9758 24.4805 28.8767 24.35 28.75C23.5708 28.0798 21.7644 26.7979 20.0865 25.6393C19.5788 26.0662 18.5657 26.9425 17.5211 27.9873C16.8793 28.6293 16.551 28.7156 16.385 28.607C16.1255 28.4739 15.911 28.0297 15.911 28.0297L13.625 21.7021C13.6103 21.7008 13.5956 21.6989 13.581 21.6963Z" fill="white"/>
</g>
</g>
<defs>
<clipPath id="clip0_0_1">
<rect width="40" height="40" fill="white"/>
</clipPath>
</defs>
</svg>
