<svg width="32" height="32" viewBox="0 0 32 32" fill="none" xmlns="http://www.w3.org/2000/svg">
<g clip-path="url(#clip0_157_293)">
<path d="M14.6547 0.668017L0.669373 14.6418C-0.0824994 15.3931 -0.0824994 16.6065 0.669373 17.3577L14.6547 31.3315C15.4065 32.0828 16.6209 32.0828 17.3728 31.3315L23.2367 25.4725C23.91 24.7997 23.91 23.7089 23.2367 23.0361C22.5633 22.3633 21.4716 22.3633 20.7982 23.0361L16.3529 27.4777C16.1657 27.6647 15.8817 27.6647 15.6946 27.4777L4.52632 16.3187C4.33918 16.1317 4.33918 15.8479 4.52632 15.6609L15.6946 4.50183C15.8817 4.31485 16.1657 4.31485 16.3529 4.50183L20.7982 8.94351C21.4716 9.61631 22.5633 9.61631 23.2367 8.94351C23.91 8.2707 23.91 7.17987 23.2367 6.50707L17.3735 0.648692C16.6185 -0.0863051 15.4037 -0.0803549 14.6547 0.668017Z" fill="white"/>
<path d="M24.5899 21.7368C25.2633 22.4096 26.355 22.4096 27.0283 21.7368L31.3538 17.4149C32.1057 16.6636 32.1057 15.4502 31.3539 14.699L26.9907 10.3549C26.3158 9.68293 25.2237 9.6839 24.5499 10.3571C23.8766 11.0299 23.8766 12.1207 24.5499 12.7935L27.4968 15.738C27.684 15.925 27.684 16.2088 27.4968 16.3958L24.5899 19.3003C23.9165 19.9731 23.9165 21.064 24.5899 21.7368Z" fill="white"/>
<path d="M16.0827 19.8427C18.1681 19.8427 19.8587 18.1535 19.8587 16.0698C19.8587 13.9861 18.1681 12.2969 16.0827 12.2969C13.9972 12.2969 12.3066 13.9861 12.3066 16.0698C12.3066 18.1535 13.9972 19.8427 16.0827 19.8427Z" fill="white"/>
</g>
<defs>
<clipPath id="clip0_157_293">
<rect width="32" height="32" fill="white"/>
</clipPath>
</defs>
</svg>
