<svg width="33" height="30" viewBox="0 0 33 30" fill="none" xmlns="http://www.w3.org/2000/svg">
<path fill-rule="evenodd" clip-rule="evenodd" d="M25.3979 15.8822C21.4994 15.8822 18.3392 19.0425 18.3392 22.9412C18.3392 26.8396 21.4994 30 25.3979 30C29.2964 30 32.4566 26.8396 32.4566 22.9412C32.4566 19.0425 29.2964 15.8822 25.3979 15.8822ZM7.05873 15.8828C3.16033 15.8828 0 19.0425 0 22.9412C0 26.8396 3.16033 30 7.05873 30C10.9573 30 14.1178 26.8396 14.1178 22.9412C14.1178 19.0425 10.9573 15.8828 7.05873 15.8828ZM23.2869 7.05857C23.2869 10.9573 20.1267 14.1179 16.2284 14.1179C12.3298 14.1179 9.16959 10.9573 9.16959 7.05857C9.16959 3.16064 12.3298 0 16.2284 0C20.1267 0 23.2869 3.16064 23.2869 7.05857Z" fill="#F06A6A"/>
</svg>
