<svg width="32" height="30" viewBox="0 0 32 30" fill="none" xmlns="http://www.w3.org/2000/svg">
<path d="M25.0611 15.8662C23.2208 15.8662 21.4558 16.5973 20.1545 17.8986C18.8532 19.1999 18.1222 20.9648 18.1222 22.8051C18.1222 24.6455 18.8532 26.4104 20.1545 27.7117C21.4558 29.013 23.2208 29.7441 25.0611 29.7441C26.9014 29.7441 28.6663 29.013 29.9676 27.7117C31.2689 26.4104 32 24.6455 32 22.8051C32 20.9648 31.2689 19.1999 29.9676 17.8986C28.6663 16.5973 26.9014 15.8662 25.0611 15.8662ZM7.03484 15.8676C6.11566 15.8548 5.2031 16.0248 4.35017 16.3677C3.49725 16.7106 2.72097 17.2195 2.06644 17.865C1.4119 18.5105 0.892168 19.2796 0.537423 20.1277C0.182679 20.9758 0 21.8859 0 22.8051C0 23.7244 0.182679 24.6345 0.537423 25.4826C0.892168 26.3307 1.4119 27.0998 2.06644 27.7453C2.72097 28.3907 3.49725 28.8997 4.35017 29.2426C5.2031 29.5855 6.11566 29.7555 7.03484 29.7427C8.85807 29.7173 10.598 28.9752 11.8784 27.6769C13.1587 26.3787 13.8765 24.6285 13.8765 22.8051C13.8765 20.9817 13.1587 19.2316 11.8784 17.9333C10.598 16.6351 8.85807 15.893 7.03484 15.8676ZM22.9855 7.1941C22.9855 9.03424 22.2545 10.799 20.9534 12.1002C19.6522 13.4013 17.8874 14.1323 16.0473 14.1323C14.2072 14.1323 12.4424 13.4013 11.1412 12.1002C9.84004 10.799 9.10905 9.03424 9.10905 7.1941C9.10905 5.35396 9.84004 3.5892 11.1412 2.28802C12.4424 0.98685 14.2072 0.255859 16.0473 0.255859C17.8874 0.255859 19.6522 0.98685 20.9534 2.28802C22.2545 3.5892 22.9855 5.35396 22.9855 7.1941Z" fill="white"/>
</svg>
