<svg width="30" height="32" viewBox="0 0 30 32" fill="none" xmlns="http://www.w3.org/2000/svg">
<path d="M28.153 6.93923C28.176 6.69793 27.9921 6.58302 27.8657 6.42215C26.3604 4.60663 24.5219 3.21625 22.3962 2.25104C21.1781 1.69949 19.8682 1.33179 18.5008 1.17092C17.1909 1.01005 15.9039 0.929614 14.594 1.07899C12.9279 1.26284 11.3421 1.74545 9.82537 2.45787C7.40084 3.59545 5.45892 5.31905 3.93066 7.4678C2.95396 8.8237 2.25303 10.352 1.83936 11.9951C1.41421 13.6728 1.17291 15.3619 1.35676 17.1085C1.48315 18.3035 1.65551 19.464 2.01172 20.6131C2.5288 22.2908 3.36762 23.819 4.43625 25.1979C5.65426 26.7721 7.12507 28.082 8.86016 29.0473C10.871 30.1619 13.0313 30.8283 15.3409 30.9662C16.1912 31.0122 17.0415 31.0237 17.8688 30.9202C18.857 30.8053 19.8452 30.587 20.8104 30.2883C22.0055 29.9091 23.1316 29.415 24.1887 28.76C25.7055 27.8178 27.0729 26.6917 28.1415 25.1864C25.625 23.2904 23.1086 21.4175 20.5691 19.51C19.4086 20.8199 17.9952 21.4864 16.2716 21.4749C14.7089 21.4519 13.3875 20.8199 12.3763 19.6824C10.331 17.3842 10.6297 13.8106 13.0428 11.8687C15.1915 10.1336 18.7077 10.3749 20.5691 12.6961C23.0971 10.8001 25.625 8.90413 28.153 6.93923Z" fill="white" stroke="black" stroke-width="2"/>
</svg>
