<svg width="30" height="32" viewBox="0 0 30 32" fill="none" xmlns="http://www.w3.org/2000/svg">
<path d="M29.3229 6.33518C29.3475 6.07779 29.1513 5.95522 29.0165 5.78363C27.4109 3.84707 25.4498 2.36401 23.1823 1.33444C21.8831 0.74612 20.4859 0.353907 19.0273 0.182313C17.63 0.0107189 16.2573 -0.0750784 14.86 0.0842587C13.0828 0.280366 11.3914 0.795148 9.7735 1.55506C7.18733 2.76848 5.11595 4.60698 3.48581 6.89899C2.44399 8.34528 1.69633 9.97542 1.25509 11.7281C0.801589 13.5176 0.544199 15.3193 0.740306 17.1824C0.87513 18.4571 1.05898 19.695 1.43894 20.9207C1.99049 22.7101 2.88523 24.3403 4.0251 25.8111C5.32431 27.4902 6.89317 28.8875 8.74393 29.9171C10.8889 31.106 13.1931 31.8169 15.6567 31.9639C16.5637 32.013 17.4707 32.0252 18.3532 31.9149C19.4073 31.7924 20.4613 31.5595 21.4909 31.2408C22.7656 30.8363 23.9668 30.3093 25.0944 29.6107C26.7123 28.6056 28.1708 27.4045 29.3107 25.7988C26.6265 23.7765 23.9422 21.7786 21.2335 19.744C19.9956 21.1413 18.488 21.8522 16.6495 21.8399C14.9826 21.8154 13.5731 21.1413 12.4945 19.9279C10.3128 17.4765 10.6315 13.6647 13.2054 11.5933C15.4974 9.74254 19.2479 9.99993 21.2335 12.4758C23.93 10.4534 26.6265 8.43107 29.3229 6.33518Z" fill="white"/>
</svg>
