<svg width="30" height="30" viewBox="0 0 30 30" fill="none" xmlns="http://www.w3.org/2000/svg">
<g clip-path="url(#clip0_148_2)">
<path d="M15 19.6883C17.5884 19.6883 19.6867 17.5893 19.6867 15C19.6867 12.4107 17.5884 10.3116 15 10.3116C12.4116 10.3116 10.3133 12.4107 10.3133 15C10.3133 17.5893 12.4116 19.6883 15 19.6883Z" fill="white"/>
<path d="M23.445 26.0983C23.845 26.4983 23.805 27.1567 23.335 27.4717C20.8698 29.1242 17.9679 30.0045 15 30C12.0316 30.0048 9.12905 29.1246 6.66335 27.4717C6.55471 27.3968 6.46412 27.2987 6.39815 27.1844C6.33218 27.0702 6.29248 26.9426 6.28195 26.8111C6.27142 26.6796 6.29031 26.5474 6.33725 26.4241C6.3842 26.3008 6.45802 26.1895 6.55335 26.0983L9.97835 22.6733C10.133 22.5255 10.3304 22.4304 10.5424 22.4017C10.7543 22.373 10.9699 22.412 11.1583 22.5133C12.3473 23.1222 13.6643 23.4387 15 23.4367C16.3833 23.4367 17.69 23.1033 18.8417 22.5133C19.0301 22.412 19.2457 22.373 19.4577 22.4017C19.6696 22.4304 19.8671 22.5255 20.0217 22.6733L23.445 26.0983Z" fill="white"/>
<path opacity="0.5" d="M23.3367 2.52831C23.4453 2.60318 23.5359 2.7013 23.6019 2.81556C23.6678 2.92981 23.7075 3.05732 23.7181 3.18884C23.7286 3.32035 23.7097 3.45255 23.6628 3.57585C23.6158 3.69915 23.542 3.81044 23.4467 3.90165L20.0217 7.32665C19.867 7.47444 19.6696 7.56952 19.4577 7.59826C19.2457 7.627 19.0301 7.58793 18.8417 7.48665C17.253 6.67207 15.4469 6.38246 13.6832 6.65949C11.9195 6.93653 10.2891 7.76593 9.02671 9.02834C7.76429 10.2908 6.93489 11.9211 6.65786 13.6848C6.38082 15.4485 6.67043 17.2546 7.48501 18.8433C7.68501 19.2316 7.63501 19.7116 7.32668 20.0216L3.90168 23.4466C3.81032 23.5417 3.69899 23.6153 3.57573 23.662C3.45247 23.7088 3.32036 23.7276 3.18894 23.7171C3.05753 23.7066 2.9301 23.667 2.81585 23.6012C2.70161 23.5354 2.6034 23.445 2.52834 23.3366C0.597472 20.451 -0.272566 16.985 0.0666092 13.5295C0.405784 10.0741 1.93317 6.84333 4.38826 4.38823C6.84336 1.93313 10.0741 0.405754 13.5296 0.0665787C16.985 -0.272596 20.4511 0.597442 23.3367 2.52831Z" fill="white"/>
</g>
<defs>
<clipPath id="clip0_148_2">
<rect width="30" height="30" fill="white"/>
</clipPath>
</defs>
</svg>
