<svg width="26" height="32" viewBox="0 0 26 32" fill="none" xmlns="http://www.w3.org/2000/svg">
<path d="M25.2425 2.697C25.7424 3.03181 25.7851 3.7361 25.3596 4.16149L21.7057 7.81545C21.3755 8.14569 20.8631 8.19786 20.4475 7.98492C19.2183 7.35525 17.8255 7 16.3496 7C11.379 7 7.34961 11.0294 7.34961 16C7.34961 17.4759 7.70486 18.8687 8.33453 20.0979C8.54747 20.5135 8.4953 21.0259 8.16505 21.3561L4.5111 25.01C4.08569 25.4355 3.38142 25.3928 3.04661 24.8929C1.34314 22.3497 0.349609 19.2908 0.349609 16C0.349609 7.16344 7.51305 0 16.3496 0C19.6404 0 22.6993 0.993528 25.2425 2.697Z" fill="white"/>
<path d="M21.3495 16C21.3495 18.7614 19.111 20.9999 16.3496 20.9999C13.5882 20.9999 11.3496 18.7614 11.3496 16C11.3496 13.2386 13.5882 11 16.3496 11C19.111 11 21.3495 13.2386 21.3495 16Z" fill="white"/>
<path d="M25.3599 27.8385C25.7854 28.2638 25.7427 28.9682 25.2428 29.303C22.6996 31.0064 19.6407 32 16.3499 32C13.059 32 10.0001 31.0066 7.45695 29.303C6.95712 28.9682 6.9144 28.264 7.33981 27.8385L10.9938 24.1846C11.324 23.8544 11.8363 23.8022 12.252 24.0152C13.4811 24.6448 14.874 25 16.3499 25C17.8258 25 19.2186 24.6448 20.4477 24.0152C20.8634 23.8022 21.3758 23.8544 21.706 24.1846L25.3599 27.8385Z" fill="white"/>
</svg>
