<svg width="32" height="32" viewBox="0 0 32 32" fill="none" xmlns="http://www.w3.org/2000/svg">
<path d="M20.1922 25.2216C24.9242 24.705 29.3853 22.2271 31.8416 18.0911C30.6784 28.3208 19.2964 34.7867 10.0058 30.8169C9.14971 30.452 8.41282 29.8452 7.90712 29.065C5.81926 25.8429 5.13295 21.743 6.11908 18.0225C8.93659 22.8014 14.6655 25.7309 20.1922 25.2216Z" fill="white"/>
<path d="M5.94639 15.0205C4.02831 19.3768 3.94523 24.4772 6.29677 28.6746C-1.97878 22.5555 -1.88848 9.4613 6.19563 3.40364C6.94335 2.84374 7.83196 2.51142 8.7639 2.46085C12.5964 2.26218 16.4904 3.7179 19.2212 6.43066C13.6729 6.48484 8.26903 9.97784 5.94639 15.0205Z" fill="white"/>
<path d="M21.8977 7.77087C19.0982 3.93471 14.7166 1.32309 9.91602 1.24363C19.1958 -2.89596 30.6103 3.81551 31.8529 13.7382C31.9685 14.6593 31.8168 15.5985 31.4014 16.4293C29.6675 19.8898 26.4527 22.5737 22.696 23.567C25.4485 18.5497 25.1089 12.4198 21.8977 7.77087Z" fill="white"/>
</svg>
