<svg width="31" height="30" viewBox="0 0 31 30" fill="none" xmlns="http://www.w3.org/2000/svg">
<path d="M19.4517 23.645C23.8879 23.1608 28.0702 20.8377 30.3729 16.9602C29.2825 26.5506 18.6118 32.6123 9.90192 28.8906C9.09934 28.5486 8.40851 27.9797 7.9344 27.2482C5.97704 24.2275 5.33362 20.3839 6.25812 16.8959C8.89954 21.3761 14.2704 24.1225 19.4517 23.645Z" fill="#F3B01C"/>
<path d="M6.09561 14.0818C4.29741 18.1658 4.21952 22.9475 6.4241 26.8825C-1.33423 21.1459 -1.24957 8.87006 6.32928 3.191C7.03027 2.6661 7.86333 2.35455 8.73703 2.30714C12.33 2.12089 15.9806 3.48562 18.5408 6.02884C13.3392 6.07963 8.27309 9.35432 6.09561 14.0818Z" fill="#8D2676"/>
<path d="M21.0502 7.28519C18.4257 3.6888 14.318 1.2404 9.81738 1.1659C18.5171 -2.71496 29.2183 3.57704 30.3832 12.8796C30.4916 13.7431 30.3494 14.6236 29.9599 15.4025C28.3344 18.6467 25.3205 21.1628 21.7986 22.0941C24.3791 17.3903 24.0607 11.6435 21.0502 7.28519Z" fill="#EE342F"/>
</svg>
