<svg width="34" height="30" viewBox="0 0 34 30" fill="none" xmlns="http://www.w3.org/2000/svg">
<path d="M30.368 13.4246C30.368 11.7547 28.4024 10.2739 25.3801 9.36985C26.1072 6.29908 25.7897 3.85603 24.3428 3.02957C23.988 2.83252 23.5876 2.73222 23.1819 2.73873C21.8319 2.73873 20.1256 3.68153 18.4024 5.31265C16.6792 3.69365 14.9778 2.7557 13.6302 2.7557C13.2182 2.74659 12.8113 2.84874 12.4523 3.05138C11.0127 3.88027 10.7146 6.30877 11.432 9.365C8.42423 10.2642 6.46834 11.7329 6.46349 13.3955C6.45864 15.0582 8.4315 16.5463 11.4538 17.4479C10.7267 20.5211 11.0418 22.9617 12.4911 23.7882C12.8446 23.9863 13.2445 24.0867 13.6496 24.079C15.002 24.079 16.7083 23.1362 18.4315 21.5051C20.1523 23.1241 21.8537 24.062 23.2037 24.062C23.6156 24.0696 24.0221 23.9676 24.3816 23.7664C25.8212 22.9375 26.1169 20.509 25.4019 17.4649C28.4097 16.5536 30.3656 15.0848 30.368 13.4246ZM19.5124 5.8604C21.4974 4.08386 22.7383 3.89239 23.1794 3.89239C23.384 3.88582 23.5866 3.93437 23.766 4.03296C24.4591 4.42802 24.7354 5.82162 24.5149 7.66844C24.4584 8.14008 24.3775 8.60848 24.2725 9.07174C23.2682 8.8383 22.2497 8.67072 21.2235 8.57004C20.6125 7.71253 19.9453 6.8964 19.2265 6.127C19.3161 6.03732 19.4131 5.94765 19.5124 5.8604ZM13.5042 14.7988C13.6933 15.1624 13.8944 15.5259 14.1029 15.8919C14.3113 16.2579 14.5294 16.6287 14.7718 16.9947C14.115 16.9001 13.4775 16.7814 12.8716 16.6408C13.0413 16.0252 13.257 15.4193 13.5042 14.7988ZM12.8329 10.1842C13.446 10.0412 14.0883 9.92244 14.7548 9.83034C14.5124 10.189 14.304 10.5574 14.0859 10.9428C13.8678 11.3282 13.6763 11.6699 13.4897 12.0383C13.2425 11.4081 13.0235 10.7901 12.8329 10.1842ZM14.0956 13.4174C14.3961 12.7824 14.7265 12.1474 15.0869 11.5124C15.4504 10.8774 15.8406 10.2593 16.2429 9.66796C16.9482 9.61464 17.6753 9.58555 18.4242 9.58798C19.1731 9.5904 19.8784 9.61706 20.5789 9.67281C20.9812 10.2593 21.3665 10.8846 21.7301 11.5027C22.0936 12.1207 22.4281 12.7678 22.7286 13.4004C22.4305 14.0354 22.0985 14.6728 21.7398 15.303C21.3811 15.9331 20.986 16.5584 20.5837 17.1498C19.8784 17.2055 19.1513 17.2322 18.4024 17.2322C17.6535 17.2322 16.9482 17.2007 16.2478 17.1449C15.8455 16.5584 15.4577 15.9476 15.0941 15.3151C14.7306 14.6825 14.4082 14.0499 14.1053 13.4174H14.0956ZM22.0597 9.83762C22.7189 9.92971 23.3564 10.0485 23.9599 10.189C23.7805 10.7877 23.5672 11.4009 23.32 12.0189C23.1285 11.6554 22.9298 11.2918 22.7189 10.9258C22.5081 10.5599 22.2851 10.1915 22.0694 9.83762H22.0597ZM22.7286 15.8774C22.9371 15.5106 23.1358 15.1446 23.3249 14.7794C23.5672 15.4096 23.8096 16.0301 23.9792 16.636C23.3685 16.779 22.7262 16.8953 22.0597 16.9874C22.294 16.6287 22.5202 16.2587 22.7383 15.8774H22.7286ZM18.4073 6.95104C18.8435 7.41638 19.2725 7.9205 19.6918 8.46098C19.2774 8.44401 18.8532 8.4319 18.4242 8.4319C17.9952 8.4319 17.5566 8.4319 17.1324 8.46098C17.5469 7.92293 17.971 7.41638 18.4073 6.95104ZM13.0316 4.04266C13.2155 3.94486 13.4222 3.898 13.6302 3.90693C14.0669 3.92513 14.4951 4.03322 14.8881 4.22443C15.7763 4.6432 16.594 5.19757 17.3118 5.86767L17.5953 6.127C16.8838 6.89077 16.2232 7.7004 15.6176 8.55065C14.5859 8.6506 13.5618 8.81738 12.5517 9.04993C12.4451 8.57974 12.3578 8.11924 12.3093 7.67571C12.0573 5.84586 12.3481 4.44983 13.0292 4.05235L13.0316 4.04266ZM11.7495 16.3306C11.2941 16.1916 10.846 16.0298 10.4068 15.8459C8.68598 15.1188 7.61957 14.1857 7.61957 13.3883C7.61957 12.5909 8.69083 11.6626 10.4092 10.9476C10.8406 10.769 11.2806 10.6121 11.7277 10.4775C12.0307 11.4816 12.3999 12.4645 12.8329 13.4198C12.4091 14.3656 12.0472 15.3379 11.7495 16.3306ZM17.3239 20.9598C15.3389 22.7363 14.098 22.9254 13.6545 22.9254C13.4499 22.9322 13.2472 22.8836 13.068 22.7848C12.3748 22.3897 12.0985 20.9961 12.319 19.1493C12.3753 18.6784 12.4562 18.2108 12.5614 17.7484C13.566 17.9798 14.5844 18.1466 15.6104 18.2477C16.2207 19.1058 16.8879 19.922 17.6075 20.6907L17.3239 20.9598ZM18.4315 19.8667C17.9952 19.4014 17.5663 18.8972 17.1445 18.3568C17.5614 18.3762 17.9855 18.3858 18.4145 18.3858C18.8435 18.3858 19.2822 18.3858 19.7063 18.3592C19.287 18.8972 18.8605 19.4014 18.4291 19.8667H18.4315ZM23.8072 22.7751C23.6233 22.8758 23.4157 22.9252 23.2061 22.9181C22.765 22.9181 21.5095 22.7242 19.5318 20.9549L19.2483 20.6956C19.959 19.9318 20.6188 19.1221 21.2235 18.2719C22.2562 18.1734 23.2812 18.0066 24.2919 17.7727C24.3985 18.2429 24.4834 18.7033 24.5343 19.1469C24.7742 20.9743 24.4955 22.3703 23.8047 22.7654L23.8072 22.7751ZM26.4247 15.8822C26.0103 16.0519 25.5716 16.2094 25.1062 16.35C24.8021 15.3459 24.4321 14.363 23.9986 13.4077C24.4244 12.4629 24.7879 11.4914 25.0869 10.4993C25.5422 10.6383 25.9904 10.8001 26.4296 10.984C28.1479 11.7111 29.2168 12.6442 29.2143 13.4416C29.2119 14.239 28.1431 15.1575 26.4223 15.8725L26.4247 15.8822ZM18.4073 15.635C18.8473 15.6355 19.2776 15.5055 19.6438 15.2614C20.0099 15.0173 20.2955 14.6701 20.4643 14.2638C20.6332 13.8574 20.6777 13.4101 20.5923 12.9784C20.5069 12.5467 20.2955 12.15 19.9846 11.8385C19.6738 11.527 19.2776 11.3147 18.8461 11.2284C18.4146 11.1421 17.9672 11.1856 17.5605 11.3536C17.1538 11.5216 16.806 11.8064 16.5611 12.172C16.3162 12.5376 16.1853 12.9676 16.1848 13.4077C16.1841 13.6999 16.2411 13.9895 16.3526 14.2597C16.464 14.5299 16.6276 14.7754 16.834 14.9823C17.0404 15.1892 17.2857 15.3534 17.5556 15.4654C17.8256 15.5774 18.115 15.635 18.4073 15.635ZM3.62297 0V26.8177H33.2085V0H3.62297ZM32.0524 25.6641H4.78147V1.15608H32.0524V25.6641ZM11.4514 17.4479C10.7243 20.5211 11.0394 22.9617 12.4887 23.7882C12.8422 23.9863 13.2421 24.0867 13.6472 24.079C14.9996 24.079 16.7059 23.1362 18.4291 21.5051C20.1499 23.1241 21.8513 24.062 23.2012 24.062C23.6131 24.0696 24.0197 23.9676 24.3791 23.7664C25.8188 22.9375 26.1145 20.509 25.3995 17.4649C28.4073 16.5633 30.3631 15.0945 30.3656 13.4343C30.368 11.7741 28.4 10.2836 25.3777 9.37955C26.1048 6.30877 25.7873 3.86573 24.3404 3.03926C23.9856 2.84222 23.5852 2.74192 23.1794 2.74842C21.8295 2.74842 20.1232 3.69123 18.4 5.32235C16.6768 3.70334 14.9754 2.76539 13.6278 2.76539C13.2157 2.75629 12.8088 2.85843 12.4499 3.06108C11.0103 3.88997 10.7122 6.31847 11.4296 9.3747C8.4218 10.2739 6.46591 11.7426 6.46107 13.4052C6.45622 15.0679 8.4315 16.5414 11.4538 17.4479H11.4514ZM17.319 20.9598C15.3341 22.7363 14.0932 22.9254 13.6496 22.9254C13.445 22.9322 13.2424 22.8836 13.0631 22.7848C12.3699 22.3897 12.0936 20.9961 12.3142 19.1493C12.3705 18.6784 12.4514 18.2108 12.5566 17.7484C13.5612 17.9798 14.5796 18.1466 15.6055 18.2477C16.2158 19.1058 16.883 19.922 17.6026 20.6907L17.319 20.9598ZM23.3273 12.0189C23.1358 11.6554 22.9371 11.2918 22.7262 10.9258C22.5154 10.5599 22.29 10.1987 22.067 9.83762C22.7262 9.92971 23.3636 10.0485 23.9671 10.189C23.7902 10.7877 23.5769 11.4009 23.3297 12.0189H23.3273ZM23.9865 16.6238C23.3758 16.7668 22.7335 16.8832 22.067 16.9753C22.2948 16.6166 22.5178 16.2466 22.7359 15.8652C22.954 15.4839 23.1528 15.118 23.3321 14.7673C23.5866 15.4096 23.8072 16.0252 23.9817 16.636L23.9865 16.6238ZM22.7238 13.3883C22.4257 14.0233 22.0936 14.6607 21.7349 15.2908C21.3762 15.921 20.9812 16.5463 20.5789 17.1377C19.8736 17.1934 19.1465 17.2201 18.3976 17.2201C17.6487 17.2201 16.9434 17.1886 16.2429 17.1328C15.8406 16.5463 15.4528 15.9355 15.0893 15.303C14.7257 14.6704 14.3937 14.0378 14.0907 13.4052C14.3913 12.7702 14.7217 12.1352 15.082 11.5002C15.4456 10.8652 15.8358 10.2472 16.2381 9.65584C16.9434 9.60252 17.6705 9.57344 18.4194 9.57586C19.1683 9.57828 19.8736 9.60494 20.574 9.66069C20.9763 10.2472 21.3617 10.8725 21.7252 11.4905C22.0888 12.1086 22.4257 12.7678 22.7262 13.4004L22.7238 13.3883ZM14.7718 16.9947C14.115 16.9001 13.4775 16.7814 12.8716 16.6408C13.051 16.0446 13.2667 15.429 13.5139 14.811C13.7029 15.1745 13.9041 15.5381 14.1125 15.904C14.321 16.27 14.5294 16.6287 14.7718 16.9947ZM14.0956 10.9355C13.8847 11.2991 13.686 11.6626 13.4994 12.031C13.2457 11.4057 13.0235 10.7901 12.8329 10.1842C13.446 10.0412 14.0883 9.92244 14.7548 9.83034C14.5294 10.189 14.3137 10.5599 14.0956 10.9355ZM18.4291 19.8667C17.9928 19.4014 17.5638 18.8972 17.1421 18.3568C17.559 18.3762 17.9831 18.3858 18.4121 18.3858C18.8411 18.3858 19.2798 18.3858 19.7039 18.3592C19.287 18.8972 18.8605 19.4014 18.4291 19.8667ZM23.8047 22.7751C23.6208 22.8758 23.4132 22.9252 23.2037 22.9181C22.7626 22.9181 21.5071 22.7242 19.5294 20.9549L19.2458 20.6956C19.9566 19.9318 20.6164 19.1221 21.2211 18.2719C22.2538 18.1734 23.2788 18.0066 24.2895 17.7727C24.3961 18.2429 24.4809 18.7033 24.5318 19.1469C24.7742 20.9743 24.4955 22.3703 23.8047 22.7654V22.7751ZM25.0844 10.4968C25.5398 10.6359 25.988 10.7977 26.4271 10.9816C28.1455 11.7087 29.2143 12.6418 29.2119 13.4392C29.2095 14.2365 28.1431 15.1745 26.4223 15.8895C26.0078 16.0591 25.5692 16.2167 25.1038 16.3572C24.7996 15.3532 24.4296 14.3703 23.9962 13.4149C24.4227 12.4639 24.7863 11.4859 25.0844 10.4872V10.4968ZM19.51 5.87009C21.495 4.09355 22.7359 3.90208 23.177 3.90208C23.3816 3.89551 23.5842 3.94406 23.7635 4.04266C24.4567 4.43771 24.733 5.83131 24.5124 7.67814C24.456 8.14978 24.3751 8.61817 24.2701 9.08143C23.2658 8.848 22.2473 8.68041 21.2211 8.57974C20.6101 7.72223 19.9429 6.90609 19.224 6.13669C19.3161 6.03732 19.4131 5.94765 19.5124 5.8604L19.51 5.87009ZM18.4073 6.95104C18.8435 7.41638 19.2725 7.9205 19.6918 8.46098C19.2774 8.44401 18.8532 8.4319 18.4242 8.4319C17.9952 8.4319 17.5566 8.4319 17.1324 8.46098C17.5469 7.92293 17.971 7.41638 18.4073 6.95104ZM13.0316 4.04266C13.2155 3.94486 13.4222 3.898 13.6302 3.90693C14.0669 3.92513 14.4951 4.03322 14.8881 4.22443C15.7763 4.6432 16.594 5.19757 17.3118 5.86767L17.5953 6.127C16.8838 6.89077 16.2232 7.7004 15.6176 8.55065C14.5859 8.6506 13.5618 8.81738 12.5517 9.04993C12.4451 8.57974 12.3578 8.11924 12.3093 7.67571C12.0573 5.84586 12.3481 4.44983 13.0292 4.05235L13.0316 4.04266ZM10.4092 10.9476C10.8406 10.769 11.2806 10.6121 11.7277 10.4775C12.0307 11.4816 12.3999 12.4645 12.8329 13.4198C12.4075 14.3647 12.044 15.3362 11.7446 16.3282C11.2892 16.1891 10.8411 16.0274 10.4019 15.8434C8.68114 15.1163 7.61473 14.1832 7.61473 13.3858C7.61473 12.5885 8.69083 11.6626 10.4092 10.9476ZM18.4073 11.19C17.9672 11.1895 17.5369 11.3196 17.1708 11.5636C16.8046 11.8077 16.5191 12.1549 16.3502 12.5613C16.1814 12.9676 16.1368 13.4149 16.2222 13.8466C16.3076 14.2783 16.5191 14.675 16.8299 14.9865C17.1407 15.298 17.5369 15.5103 17.9684 15.5966C18.3999 15.6829 18.8473 15.6394 19.254 15.4714C19.6608 15.3035 20.0086 15.0187 20.2534 14.653C20.4983 14.2874 20.6293 13.8574 20.6298 13.4174C20.632 13.1241 20.5762 12.8332 20.4655 12.5616C20.3548 12.29 20.1914 12.043 19.9848 11.8348C19.7782 11.6267 19.5325 11.4614 19.2617 11.3487C18.991 11.2359 18.7006 11.1779 18.4073 11.1779V11.19ZM18.4073 11.19C17.9672 11.1895 17.5369 11.3196 17.1708 11.5636C16.8046 11.8077 16.5191 12.1549 16.3502 12.5613C16.1814 12.9676 16.1368 13.4149 16.2222 13.8466C16.3076 14.2783 16.5191 14.675 16.8299 14.9865C17.1407 15.298 17.5369 15.5103 17.9684 15.5966C18.3999 15.6829 18.8473 15.6394 19.254 15.4714C19.6608 15.3035 20.0086 15.0187 20.2534 14.653C20.4983 14.2874 20.6293 13.8574 20.6298 13.4174C20.632 13.1241 20.5762 12.8332 20.4655 12.5616C20.3548 12.29 20.1914 12.043 19.9848 11.8348C19.7782 11.6267 19.5325 11.4614 19.2617 11.3487C18.991 11.2359 18.7006 11.1779 18.4073 11.1779V11.19ZM18.4073 11.19C17.9672 11.1895 17.5369 11.3196 17.1708 11.5636C16.8046 11.8077 16.5191 12.1549 16.3502 12.5613C16.1814 12.9676 16.1368 13.4149 16.2222 13.8466C16.3076 14.2783 16.5191 14.675 16.8299 14.9865C17.1407 15.298 17.5369 15.5103 17.9684 15.5966C18.3999 15.6829 18.8473 15.6394 19.254 15.4714C19.6608 15.3035 20.0086 15.0187 20.2534 14.653C20.4983 14.2874 20.6293 13.8574 20.6298 13.4174C20.632 13.1241 20.5762 12.8332 20.4655 12.5616C20.3548 12.29 20.1914 12.043 19.9848 11.8348C19.7782 11.6267 19.5325 11.4614 19.2617 11.3487C18.991 11.2359 18.7006 11.1779 18.4073 11.1779V11.19ZM30.368 13.4295C30.368 11.7596 28.4024 10.2787 25.3801 9.3747C26.1072 6.30393 25.7897 3.86088 24.3428 3.03442C23.988 2.83737 23.5876 2.73707 23.1819 2.74358C21.8319 2.74358 20.1256 3.68638 18.4024 5.3175C16.6792 3.6985 14.9778 2.76054 13.6302 2.76054C13.2182 2.75144 12.8113 2.85358 12.4523 3.05623C11.0127 3.88512 10.7146 6.31362 11.432 9.36985C8.42423 10.269 6.46834 11.7378 6.46349 13.4004C6.45864 15.063 8.4315 16.5511 11.4538 17.4527C10.7267 20.5259 11.0418 22.9666 12.4911 23.793C12.8446 23.9912 13.2445 24.0916 13.6496 24.0839C15.002 24.0839 16.7083 23.1411 18.4315 21.5099C20.1523 23.1289 21.8537 24.0669 23.2037 24.0669C23.6156 24.0745 24.0221 23.9724 24.3816 23.7712C25.8212 22.9423 26.1169 20.5138 25.4019 17.4697C28.4097 16.5536 30.3656 15.0848 30.368 13.4246V13.4295ZM19.5124 5.8604C21.4974 4.08386 22.7383 3.89239 23.1794 3.89239C23.384 3.88582 23.5866 3.93437 23.766 4.03296C24.4591 4.42802 24.7354 5.82162 24.5149 7.66844C24.4584 8.14008 24.3775 8.60848 24.2725 9.07174C23.2682 8.8383 22.2497 8.67072 21.2235 8.57004C20.6125 7.71253 19.9453 6.8964 19.2265 6.127C19.3161 6.03732 19.4131 5.94765 19.5124 5.8604ZM13.5042 14.7988C13.6933 15.1624 13.8944 15.5259 14.1029 15.8919C14.3113 16.2579 14.5294 16.6287 14.7718 16.9947C14.115 16.9001 13.4775 16.7814 12.8716 16.6408C13.0413 16.0252 13.257 15.4193 13.5042 14.7988ZM12.8329 10.1842C13.446 10.0412 14.0883 9.92244 14.7548 9.83034C14.5124 10.189 14.304 10.5574 14.0859 10.9428C13.8678 11.3282 13.6763 11.6699 13.4897 12.0383C13.2425 11.4081 13.0235 10.7901 12.8329 10.1842ZM14.0956 13.4174C14.3961 12.7824 14.7265 12.1474 15.0869 11.5124C15.4504 10.8774 15.8406 10.2593 16.2429 9.66796C16.9482 9.61464 17.6753 9.58555 18.4242 9.58798C19.1731 9.5904 19.8784 9.61706 20.5789 9.67281C20.9812 10.2593 21.3665 10.8846 21.7301 11.5027C22.0936 12.1207 22.4281 12.7678 22.7286 13.4004C22.4305 14.0354 22.0985 14.6728 21.7398 15.303C21.3811 15.9331 20.986 16.5584 20.5837 17.1498C19.8784 17.2055 19.1513 17.2322 18.4024 17.2322C17.6535 17.2322 16.9482 17.2007 16.2478 17.1449C15.8455 16.5584 15.4577 15.9476 15.0941 15.3151C14.7306 14.6825 14.4082 14.0499 14.1053 13.4174H14.0956ZM22.0597 9.83762C22.7189 9.92971 23.3564 10.0485 23.9599 10.189C23.7805 10.7877 23.5672 11.4009 23.32 12.0189C23.1285 11.6554 22.9298 11.2918 22.7189 10.9258C22.5081 10.5599 22.2851 10.1915 22.0694 9.83762H22.0597ZM22.7286 15.8774C22.9371 15.5106 23.1358 15.1446 23.3249 14.7794C23.5672 15.4096 23.8096 16.0301 23.9792 16.636C23.3685 16.779 22.7262 16.8953 22.0597 16.9874C22.294 16.6287 22.5202 16.2587 22.7383 15.8774H22.7286ZM18.4073 6.95104C18.8435 7.41638 19.2725 7.9205 19.6918 8.46098C19.2774 8.44401 18.8532 8.4319 18.4242 8.4319C17.9952 8.4319 17.5566 8.4319 17.1324 8.46098C17.5469 7.92293 17.971 7.41638 18.4073 6.95104ZM13.0316 4.04266C13.2155 3.94486 13.4222 3.898 13.6302 3.90693C14.0669 3.92513 14.4951 4.03322 14.8881 4.22443C15.7763 4.6432 16.594 5.19757 17.3118 5.86767L17.5953 6.127C16.8838 6.89077 16.2232 7.7004 15.6176 8.55065C14.5859 8.6506 13.5618 8.81738 12.5517 9.04993C12.4451 8.57974 12.3578 8.11924 12.3093 7.67571C12.0573 5.84586 12.3481 4.44983 13.0292 4.05235L13.0316 4.04266ZM11.7495 16.3306C11.2941 16.1916 10.846 16.0298 10.4068 15.8459C8.68598 15.1188 7.61957 14.1857 7.61957 13.3883C7.61957 12.5909 8.69083 11.6626 10.4092 10.9476C10.8406 10.769 11.2806 10.6121 11.7277 10.4775C12.0307 11.4816 12.3999 12.4645 12.8329 13.4198C12.4091 14.3656 12.0472 15.3379 11.7495 16.3306ZM17.3239 20.9598C15.3389 22.7363 14.098 22.9254 13.6545 22.9254C13.4499 22.9322 13.2472 22.8836 13.068 22.7848C12.3748 22.3897 12.0985 20.9961 12.319 19.1493C12.3753 18.6784 12.4562 18.2108 12.5614 17.7484C13.566 17.9798 14.5844 18.1466 15.6104 18.2477C16.2207 19.1058 16.8879 19.922 17.6075 20.6907L17.3239 20.9598ZM18.4315 19.8667C17.9952 19.4014 17.5663 18.8972 17.1445 18.3568C17.5614 18.3762 17.9855 18.3858 18.4145 18.3858C18.8435 18.3858 19.2822 18.3858 19.7063 18.3592C19.287 18.8972 18.8605 19.4014 18.4291 19.8667H18.4315ZM23.8072 22.7751C23.6233 22.8758 23.4157 22.9252 23.2061 22.9181C22.765 22.9181 21.5095 22.7242 19.5318 20.9549L19.2483 20.6956C19.959 19.9318 20.6188 19.1221 21.2235 18.2719C22.2562 18.1734 23.2812 18.0066 24.2919 17.7727C24.3985 18.2429 24.4834 18.7033 24.5343 19.1469C24.7742 20.9743 24.4955 22.3703 23.8047 22.7654L23.8072 22.7751ZM26.4247 15.8822C26.0103 16.0519 25.5716 16.2094 25.1062 16.35C24.8021 15.3459 24.4321 14.363 23.9986 13.4077C24.4244 12.4629 24.7879 11.4914 25.0869 10.4993C25.5422 10.6383 25.9904 10.8001 26.4296 10.984C28.1479 11.7111 29.2168 12.6442 29.2143 13.4416C29.2119 14.239 28.1431 15.1575 26.4223 15.8725L26.4247 15.8822ZM18.4073 15.635C18.8473 15.6355 19.2776 15.5055 19.6438 15.2614C20.0099 15.0173 20.2955 14.6701 20.4643 14.2638C20.6332 13.8574 20.6777 13.4101 20.5923 12.9784C20.5069 12.5467 20.2955 12.15 19.9846 11.8385C19.6738 11.527 19.2776 11.3147 18.8461 11.2284C18.4146 11.1421 17.9672 11.1856 17.5605 11.3536C17.1538 11.5216 16.806 11.8064 16.5611 12.172C16.3162 12.5376 16.1853 12.9676 16.1848 13.4077C16.1841 13.6999 16.2411 13.9895 16.3526 14.2597C16.464 14.5299 16.6276 14.7754 16.834 14.9823C17.0404 15.1892 17.2857 15.3534 17.5556 15.4654C17.8256 15.5774 18.115 15.635 18.4073 15.635ZM1.60649 28.8439V2.01648L0.445557 3.17984V30H30.0263L31.1848 28.8439H1.60649Z" fill="#09D3AC"/>
</svg>
