<svg width="32" height="30" viewBox="0 0 32 30" fill="none" xmlns="http://www.w3.org/2000/svg">
<path d="M22.3247 11.1759L16.247 7.66694C16.0949 7.57912 15.9074 7.57912 15.7553 7.66694L9.6775 11.1759C9.52552 11.2637 9.43164 11.426 9.43164 11.6017V18.6195C9.43164 18.7951 9.52552 18.9575 9.6775 19.0455L15.7553 22.5544C15.9074 22.6422 16.0949 22.6422 16.247 22.5544L22.3247 19.0455C22.4768 18.9576 22.5705 18.7952 22.5705 18.6195V11.6017C22.5704 11.426 22.4766 11.2637 22.3247 11.1759Z" fill="white"/>
<path d="M0.197913 14.3723L7.45961 1.73903C7.7234 1.28225 8.21067 0.945312 8.73811 0.945312H23.2617C23.7893 0.945312 24.2767 1.28225 24.5405 1.73903L31.8022 14.3444C32.0659 14.8014 32.0659 15.378 31.8022 15.8349L24.5405 28.3646C24.2767 28.8214 23.7893 29.0549 23.2617 29.0549H8.73821C8.21076 29.0549 7.7234 28.8284 7.45975 28.3715L0.198038 15.8213C-0.0659918 15.3647 -0.0659918 14.8291 0.197913 14.3723ZM6.21101 20.4472C6.21101 20.633 6.32282 20.8048 6.48382 20.8978L15.7336 26.2344C15.8945 26.3273 16.096 26.3273 16.2569 26.2344L25.5139 20.8978C25.6748 20.8048 25.7873 20.6331 25.7873 20.4472V9.77372C25.7873 9.58791 25.6764 9.41624 25.5154 9.32324L16.266 3.98655C16.1051 3.89356 15.9038 3.89356 15.7429 3.98655L6.48532 9.32324C6.32432 9.41624 6.21101 9.58791 6.21101 9.77372V20.4472Z" fill="white"/>
</svg>
