<svg width="53" height="30" viewBox="0 0 53 30" fill="none" xmlns="http://www.w3.org/2000/svg">
<path d="M52.5125 29.222C50.6316 29.7003 49.4681 29.243 48.4242 27.6756L41.0006 17.4047L39.9276 15.9827L31.2582 27.7095C30.2676 29.1202 29.2286 29.7343 27.3799 29.2349L38.4814 14.3328L28.1459 0.872125C29.9234 0.526316 31.1515 0.702452 32.2423 2.29414L39.9422 12.6927L47.6986 2.3507C48.6924 0.939995 49.7606 0.403506 51.5446 0.923835L47.5371 6.23701L42.1075 13.3067C41.4612 14.1147 41.55 14.6673 42.1447 15.4478L52.5125 29.222ZM0.815662 14.084L1.72381 9.61754C4.19619 0.778402 14.3281 -2.89461 21.3154 2.56724C25.3988 5.77971 26.4136 10.3237 26.2116 15.4139H3.19431C2.8485 24.5762 9.44311 30.1059 17.8508 27.2845C20.7999 26.2939 22.537 23.9848 23.4064 21.0955C23.8475 19.6476 24.5779 19.4214 25.9385 19.8351C25.2437 23.4483 23.6762 26.4668 20.3636 28.3559C15.414 31.1837 8.34913 30.2691 4.63249 26.3392C2.41866 24.0591 1.50405 21.1698 1.0936 18.0802C1.02896 17.5695 0.89969 17.0831 0.802734 16.5935C0.811353 15.7575 0.815662 14.9216 0.815662 14.0856V14.084ZM3.23633 13.4699H24.0366C23.9008 6.8446 19.7754 2.13902 14.1374 2.09862C7.94838 2.05014 3.50457 6.64423 3.23633 13.4699Z" fill="black"/>
</svg>
