<svg width="32" height="20" viewBox="0 0 32 20" fill="none" xmlns="http://www.w3.org/2000/svg">
<path d="M31.8495 0.713048H31.3051C30.632 0.713048 29.9979 1.02687 29.5887 1.56102L24.0167 8.84755L18.4446 1.56102C18.0367 1.02687 17.402 0.713048 16.7295 0.713048H16.1851L23.2116 9.9011L16.0346 19.2864H16.579C17.2521 19.2864 17.8862 18.9726 18.2948 18.4385L24.0173 10.9553L29.7398 18.4385C30.1484 18.9726 30.7825 19.2864 31.4556 19.2864H32L24.823 9.9011L31.8495 0.713048ZM13.6348 15.5986C11.999 18.0843 8.7788 19.3582 5.7001 18.2348C2.99159 17.2466 1.28092 14.5541 1.28092 11.6707V10.9604H8.96646H16.0115V8.31276C16.0115 4.14656 12.9258 0.499134 8.77752 0.109094C4.01761 -0.338589 0 3.40939 0 8.07835V11.6476C0 15.0876 2.05908 18.2854 5.29597 19.4504C9.52494 20.9721 13.9729 18.701 15.4767 14.8032H15.0681C14.4847 14.8032 13.955 15.1113 13.6348 15.5986ZM1.28092 8.07835C1.28092 4.37008 4.29749 1.35351 8.00576 1.35351C11.714 1.35351 14.7306 4.37008 14.7306 8.07835V9.6795H1.28092V8.07835Z" fill="white"/>
</svg>
