<svg width="22" height="32" viewBox="0 0 22 32" fill="none" xmlns="http://www.w3.org/2000/svg">
<path d="M11 15.9998C11 13.0544 13.3878 10.6665 16.3333 10.6665C19.2788 10.6665 21.6667 13.0544 21.6667 15.9998C21.6667 18.9454 19.2788 21.3332 16.3333 21.3332C13.3878 21.3332 11 18.9454 11 15.9998Z" fill="white"/>
<path d="M0.333984 26.6668C0.333984 23.7214 2.7218 21.3335 5.66732 21.3335H11.0007V26.6668C11.0007 29.6124 8.61287 32.0002 5.66732 32.0002C2.7218 32.0002 0.333984 29.6124 0.333984 26.6668Z" fill="white"/>
<path d="M11 0V10.6666H16.3333C19.2789 10.6666 21.6667 8.27885 21.6667 5.33333C21.6667 2.38782 19.2789 0 16.3333 0H11Z" fill="white"/>
<path d="M0.333984 5.33334C0.333984 8.27885 2.7218 10.6666 5.66732 10.6666H11.0007V0H5.66732C2.7218 0 0.333984 2.38781 0.333984 5.33334Z" fill="white"/>
<path d="M0.333984 15.9998C0.333984 18.9454 2.7218 21.3332 5.66732 21.3332H11.0007V10.6665H5.66732C2.7218 10.6665 0.333984 13.0544 0.333984 15.9998Z" fill="white"/>
</svg>
