<svg width="20" height="30" viewBox="0 0 20 30" fill="none" xmlns="http://www.w3.org/2000/svg">
<g clip-path="url(#clip0_102_782)">
<path d="M5.00195 30C7.76195 30 10.002 27.76 10.002 25V20H5.00195C2.24195 20 0.00195312 22.24 0.00195312 25C0.00195312 27.76 2.24195 30 5.00195 30Z" fill="#0ACF83"/>
<path d="M0.00195312 15C0.00195312 12.24 2.24195 10 5.00195 10H10.002V20H5.00195C2.24195 20 0.00195312 17.76 0.00195312 15Z" fill="#A259FF"/>
<path d="M0.00195312 5C0.00195312 2.24 2.24195 0 5.00195 0H10.002V10H5.00195C2.24195 10 0.00195312 7.76 0.00195312 5Z" fill="#F24E1E"/>
<path d="M10.002 0H15.002C17.762 0 20.002 2.24 20.002 5C20.002 7.76 17.762 10 15.002 10H10.002V0Z" fill="#FF7262"/>
<path d="M20.002 15C20.002 17.76 17.762 20 15.002 20C12.242 20 10.002 17.76 10.002 15C10.002 12.24 12.242 10 15.002 10C17.762 10 20.002 12.24 20.002 15Z" fill="#1ABCFE"/>
</g>
<defs>
<clipPath id="clip0_102_782">
<rect width="20.004" height="30" fill="white"/>
</clipPath>
</defs>
</svg>
