<svg width="23" height="30" viewBox="0 0 23 30" fill="none" xmlns="http://www.w3.org/2000/svg">
<mask id="mask0_102_802" style="mask-type:luminance" maskUnits="userSpaceOnUse" x="0" y="0" width="23" height="30">
<path d="M19.816 6.70946C19.7866 6.53033 19.6877 6.37005 19.5407 6.26354C19.3937 6.15703 19.2106 6.11291 19.0312 6.1408C18.8903 6.15952 18.7599 6.22571 18.6616 6.32846L15.1132 9.87121L12.3381 4.5713C12.2967 4.49172 12.24 4.42108 12.1713 4.36343C12.1026 4.30577 12.0232 4.26223 11.9376 4.23529C11.8521 4.20835 11.762 4.19855 11.6727 4.20644C11.5833 4.21434 11.4964 4.23977 11.4169 4.28129C11.2964 4.35076 11.1963 4.4508 11.1269 4.5713L9.61422 7.47146L5.79852 0.351851C5.75573 0.273663 5.69792 0.204698 5.62841 0.148916C5.55889 0.0931336 5.47904 0.0516337 5.39344 0.0267993C5.30784 0.00196478 5.21818 -0.00571498 5.1296 0.00420097C5.04103 0.0141169 4.95528 0.0414334 4.87729 0.0845814C4.78472 0.134001 4.70445 0.203618 4.64243 0.288275C4.58041 0.372932 4.53824 0.470458 4.51904 0.573628L0.822754 24.1844L10.689 29.7458C10.9932 29.9126 11.3344 30 11.6813 30C12.0282 30 12.3694 29.9126 12.6736 29.7458L22.6251 24.2071L19.816 6.70946Z" fill="white"/>
</mask>
<g mask="url(#mask0_102_802)">
<path d="M0.822754 24.1844L4.51904 0.573673C4.54705 0.399143 4.64279 0.242713 4.78547 0.138367C4.92814 0.0340206 5.10623 -0.00981357 5.28104 0.0163872C5.3843 0.0353236 5.48213 0.0767183 5.56762 0.137643C5.65312 0.198568 5.72417 0.277534 5.77578 0.368956L9.59148 7.49426L11.1041 4.59409C11.1455 4.51451 11.2022 4.44387 11.2709 4.38622C11.3396 4.32856 11.419 4.28502 11.5046 4.25808C11.5902 4.23115 11.6802 4.22134 11.7695 4.22924C11.8589 4.23713 11.9458 4.26256 12.0253 4.30408C12.1458 4.37355 12.2459 4.47359 12.3154 4.59409L22.6081 24.1844H0.822754Z" fill="#FFA000"/>
<path opacity="0.12" d="M13.43 0.175588L-4.63062 -1.36548V31.3438L0.822826 24.1844L13.43 0.175588Z" fill="url(#paint0_linear_102_802)"/>
<path d="M13.5835 14.9892L9.60285 7.47717L0.822754 24.1844L13.5835 14.9892Z" fill="#F57C00"/>
<path opacity="0.2" d="M-4.63062 -1.36548H28.0787V31.3438H-4.63062V-1.36548Z" fill="url(#paint1_linear_102_802)"/>
<path d="M22.6308 24.1844L19.7875 6.69243C19.7582 6.5133 19.6592 6.35302 19.5123 6.24651C19.3653 6.14 19.1822 6.09588 19.0028 6.12377C18.8622 6.14378 18.7323 6.20976 18.6332 6.31143L0.822754 24.1844L10.689 29.7459C10.9932 29.9126 11.3344 30 11.6813 30C12.0282 30 12.3694 29.9126 12.6736 29.7459L22.6308 24.1844Z" fill="#FFCA28"/>
<path d="M19.816 6.70946C19.7866 6.53033 19.6877 6.37005 19.5407 6.26354C19.3937 6.15703 19.2106 6.11291 19.0312 6.1408C18.8903 6.15952 18.7599 6.22571 18.6616 6.32846L15.1132 9.87121L12.3381 4.5713C12.2967 4.49172 12.24 4.42108 12.1713 4.36343C12.1026 4.30577 12.0232 4.26223 11.9376 4.23529C11.8521 4.20835 11.762 4.19855 11.6727 4.20644C11.5833 4.21434 11.4964 4.23977 11.4169 4.28129C11.2964 4.35076 11.1963 4.4508 11.1269 4.5713L9.61422 7.47146L5.79852 0.351851C5.75573 0.273663 5.69792 0.204698 5.62841 0.148916C5.55889 0.0931336 5.47904 0.0516337 5.39344 0.0267993C5.30784 0.00196478 5.21818 -0.00571498 5.1296 0.00420097C5.04103 0.0141169 4.95528 0.0414334 4.87729 0.0845814C4.78472 0.134001 4.70445 0.203618 4.64243 0.288275C4.58041 0.372932 4.53824 0.470458 4.51904 0.573628L0.822754 24.1844L0.925113 24.2355L15.1416 10.0191L18.69 6.47631C18.7526 6.4113 18.8277 6.35958 18.9108 6.32426C18.9938 6.28893 19.0831 6.27072 19.1734 6.27072C19.2636 6.27072 19.353 6.28893 19.436 6.32426C19.5191 6.35958 19.5941 6.4113 19.6567 6.47631C19.7618 6.57521 19.8283 6.70823 19.8444 6.85163L22.6422 24.173H22.6763L19.816 6.70946ZM0.856873 24.1502L4.51904 0.744226C4.53085 0.656462 4.56005 0.571938 4.60495 0.495609C4.64985 0.41928 4.70953 0.352682 4.7805 0.299719C4.85148 0.246756 4.93231 0.208493 5.01826 0.187174C5.10421 0.165856 5.19355 0.161909 5.28104 0.175567C5.38471 0.193354 5.48303 0.234292 5.56868 0.295335C5.65434 0.356377 5.72513 0.435951 5.77578 0.528135L9.59148 7.65343L11.1041 4.75327C11.1449 4.67315 11.2013 4.60197 11.2699 4.54389C11.3386 4.4858 11.4181 4.44198 11.5039 4.41498C11.5896 4.38798 11.6799 4.37834 11.7695 4.38663C11.859 4.39492 11.946 4.42097 12.0253 4.46326C12.1458 4.53273 12.2459 4.63277 12.3154 4.75327L15.0392 9.93376L0.856873 24.1502Z" fill="white" fill-opacity="0.2"/>
<path opacity="0.2" d="M12.6736 29.5525C12.3688 29.7202 12.0265 29.8082 11.6785 29.8082C11.3305 29.8082 10.9882 29.7202 10.6833 29.5525L0.839844 24.0592V24.2128L10.689 29.7458C10.9932 29.9126 11.3345 30 11.6813 30C12.0282 30 12.3695 29.9126 12.6736 29.7458L22.6252 24.2071V24.0535L12.6736 29.5525Z" fill="#A52714"/>
<path d="M19.816 6.70946C19.7866 6.53033 19.6877 6.37005 19.5407 6.26354C19.3937 6.15703 19.2106 6.11291 19.0312 6.1408C18.8903 6.15952 18.7599 6.22571 18.6616 6.32846L15.1132 9.87121L12.3381 4.5713C12.2967 4.49172 12.24 4.42108 12.1713 4.36343C12.1026 4.30577 12.0232 4.26223 11.9376 4.23529C11.8521 4.20835 11.762 4.19855 11.6727 4.20644C11.5833 4.21434 11.4964 4.23977 11.4169 4.28129C11.2964 4.35076 11.1963 4.4508 11.1269 4.5713L9.61422 7.47146L5.79852 0.351851C5.75573 0.273663 5.69792 0.204698 5.62841 0.148916C5.55889 0.0931336 5.47904 0.0516337 5.39344 0.0267993C5.30784 0.00196478 5.21818 -0.00571498 5.1296 0.00420097C5.04103 0.0141169 4.95528 0.0414334 4.87729 0.0845814C4.78472 0.134001 4.70445 0.203618 4.64243 0.288275C4.58041 0.372932 4.53824 0.470458 4.51904 0.573628L0.822754 24.1844L10.689 29.7458C10.9932 29.9126 11.3344 30 11.6813 30C12.0282 30 12.3694 29.9126 12.6736 29.7458L22.6251 24.2071L19.816 6.70946Z" fill="url(#paint2_linear_102_802)"/>
</g>
<defs>
<linearGradient id="paint0_linear_102_802" x1="5.07071" y1="16.1037" x2="3.71162" y2="15.3929" gradientUnits="userSpaceOnUse">
<stop stop-color="#A52714"/>
<stop offset="0.4" stop-color="#A52714" stop-opacity="0.5"/>
<stop offset="0.8" stop-color="#A52714" stop-opacity="0"/>
</linearGradient>
<linearGradient id="paint1_linear_102_802" x1="10.8597" y1="14.1191" x2="10.2512" y2="13.5106" gradientUnits="userSpaceOnUse">
<stop stop-color="#A52714" stop-opacity="0.8"/>
<stop offset="0.5" stop-color="#A52714" stop-opacity="0.21"/>
<stop offset="1" stop-color="#A52714" stop-opacity="0"/>
</linearGradient>
<linearGradient id="paint2_linear_102_802" x1="0.241698" y1="5.27411" x2="23.0013" y2="28.0489" gradientUnits="userSpaceOnUse">
<stop stop-color="white" stop-opacity="0.1"/>
<stop offset="1" stop-color="white" stop-opacity="0"/>
</linearGradient>
</defs>
</svg>
