<svg width="24" height="32" viewBox="0 0 24 32" fill="none" xmlns="http://www.w3.org/2000/svg">
<path d="M0.5 24L4.3138 0.612113C4.34367 0.425948 4.4458 0.25909 4.59799 0.147787C4.75018 0.0364839 4.94014 -0.0102725 5.1266 0.017675C5.23674 0.0378738 5.3411 0.0820281 5.43229 0.147015C5.52348 0.212001 5.59928 0.296232 5.65432 0.393748L9.7244 7.99407L11.3379 4.90056C11.382 4.81568 11.4425 4.74033 11.5158 4.67883C11.5891 4.61733 11.6738 4.57088 11.7651 4.54215C11.8563 4.51342 11.9524 4.50296 12.0477 4.51138C12.143 4.5198 12.2357 4.54693 12.3205 4.59121C12.4491 4.66531 12.5558 4.77202 12.6299 4.90056L15.5 9L0.5 24Z" fill="white"/>
<path d="M23.633 25.7968L20.6002 7.13873C20.5689 6.94765 20.4634 6.77669 20.3066 6.66308C20.1498 6.54946 19.9545 6.50241 19.7631 6.53216C19.6132 6.55349 19.4746 6.62388 19.3689 6.73233L0.371094 25.7968L10.8951 31.7291C11.2195 31.9069 11.5835 32.0002 11.9535 32.0002C12.3235 32.0002 12.6876 31.9069 13.012 31.7291L23.633 25.7968Z" fill="white"/>
</svg>
