<svg width="32" height="32" viewBox="0 0 32 32" fill="none" xmlns="http://www.w3.org/2000/svg">
<path d="M31.3975 14.5749L17.4256 0.604107C17.2342 0.41259 17.0069 0.260663 16.7568 0.157007C16.5067 0.053352 16.2386 0 15.9678 0C15.697 0 15.4289 0.053352 15.1788 0.157007C14.9287 0.260663 14.7014 0.41259 14.51 0.604107L11.6098 3.50574L15.2894 7.18537C15.722 7.03845 16.1871 7.01552 16.6321 7.11916C17.077 7.2228 17.4841 7.44888 17.8073 7.77183C18.1322 8.09712 18.3591 8.50731 18.4619 8.95547C18.5646 9.40363 18.5392 9.87167 18.3885 10.3061L21.9361 13.8527C22.3706 13.7017 22.8389 13.6763 23.2872 13.7793C23.7355 13.8823 24.1456 14.1095 24.4707 14.4349C24.6984 14.6626 24.8791 14.9329 25.0023 15.2304C25.1255 15.5279 25.189 15.8467 25.189 16.1687C25.189 16.4907 25.1255 16.8096 25.0023 17.107C24.8791 17.4045 24.6984 17.6748 24.4707 17.9025C24.0104 18.3624 23.3863 18.6207 22.7356 18.6207C22.0848 18.6207 21.4608 18.3624 21.0004 17.9025C20.6584 17.5599 20.4254 17.1239 20.3307 16.6492C20.236 16.1745 20.2839 15.6824 20.4683 15.2349L17.1599 11.9275V20.6328C17.5091 20.8053 17.8121 21.0585 18.044 21.3714C18.2759 21.6844 18.4298 22.0481 18.4931 22.4324C18.5564 22.8167 18.5273 23.2105 18.4081 23.5813C18.2889 23.9521 18.083 24.2891 17.8076 24.5645C17.58 24.7923 17.3097 24.9729 17.0122 25.0961C16.7147 25.2194 16.3958 25.2828 16.0738 25.2828C15.7518 25.2828 15.433 25.2194 15.1355 25.0961C14.838 24.9729 14.5677 24.7923 14.3401 24.5645C14.1123 24.3369 13.9316 24.0666 13.8084 23.769C13.6851 23.4715 13.6217 23.1526 13.6217 22.8306C13.6217 22.5086 13.6851 22.1897 13.8084 21.8922C13.9316 21.5946 14.1123 21.3243 14.3401 21.0966C14.5695 20.8668 14.8422 20.6846 15.1424 20.5607V11.7753C14.8434 11.6522 14.5717 11.4712 14.3429 11.2427C14.114 11.0142 13.9326 10.7427 13.809 10.4439C13.6854 10.1451 13.622 9.82481 13.6226 9.50144C13.6231 9.17806 13.6875 8.85798 13.8121 8.55958L10.184 4.93079L0.602925 14.5095C0.216838 14.8963 0 15.4205 0 15.9671C0 16.5136 0.216838 17.0378 0.602925 17.4247L14.5755 31.3972C14.9623 31.7832 15.4865 32 16.0329 32C16.5794 32 17.1035 31.7832 17.4904 31.3972L31.3975 17.4901C31.7835 17.1033 32.0004 16.5791 32.0004 16.0325C32.0004 15.486 31.7835 14.9618 31.3975 14.5749Z" fill="white"/>
</svg>
