<svg width="31" height="30" viewBox="0 0 31 30" fill="none" xmlns="http://www.w3.org/2000/svg">
<path d="M29.9476 13.664L16.8489 0.566351C16.6695 0.386803 16.4565 0.244371 16.222 0.147194C15.9875 0.0500175 15.7361 0 15.4823 0C15.2284 0 14.9771 0.0500175 14.7426 0.147194C14.5081 0.244371 14.295 0.386803 14.1156 0.566351L11.3966 3.28663L14.8463 6.73629C15.2518 6.59855 15.6879 6.57705 16.105 6.67421C16.5222 6.77137 16.9038 6.98332 17.2068 7.28609C17.5114 7.59105 17.7241 7.9756 17.8204 8.39575C17.9168 8.8159 17.893 9.25469 17.7517 9.66193L21.0776 12.9869C21.4849 12.8454 21.9239 12.8216 22.3442 12.9181C22.7644 13.0147 23.149 13.2277 23.4538 13.5328C23.6672 13.7462 23.8366 13.9996 23.9521 14.2785C24.0676 14.5574 24.1271 14.8563 24.1271 15.1582C24.1271 15.46 24.0676 15.759 23.9521 16.0378C23.8366 16.3167 23.6672 16.5701 23.4538 16.7836C23.0222 17.2147 22.4371 17.4569 21.827 17.4569C21.217 17.4569 20.6319 17.2147 20.2003 16.7836C19.8797 16.4624 19.6613 16.0536 19.5725 15.6086C19.4837 15.1636 19.5286 14.7023 19.7014 14.2827L16.5998 11.1821V19.3432C16.9272 19.5049 17.2113 19.7423 17.4287 20.0357C17.6461 20.3291 17.7904 20.6701 17.8498 21.0303C17.9091 21.3906 17.8818 21.7599 17.77 22.1075C17.6583 22.4551 17.4653 22.7711 17.2071 23.0293C16.9937 23.2427 16.7403 23.4121 16.4614 23.5276C16.1825 23.6432 15.8836 23.7026 15.5817 23.7026C15.2798 23.7026 14.9809 23.6432 14.702 23.5276C14.4231 23.4121 14.1697 23.2427 13.9563 23.0293C13.7427 22.8158 13.5734 22.5624 13.4578 22.2835C13.3422 22.0046 13.2828 21.7056 13.2828 21.4037C13.2828 21.1018 13.3422 20.8028 13.4578 20.5239C13.5734 20.245 13.7427 19.9916 13.9563 19.7781C14.1714 19.5626 14.427 19.3918 14.7085 19.2756V11.0394C14.4282 10.9239 14.1734 10.7542 13.9589 10.54C13.7444 10.3258 13.5743 10.0713 13.4584 9.79118C13.3425 9.51104 13.2831 9.21076 13.2836 8.9076C13.2841 8.60443 13.3445 8.30436 13.4613 8.0246L10.06 4.62262L1.07769 13.6026C0.715737 13.9653 0.512451 14.4567 0.512451 14.9691C0.512451 15.4815 0.715737 15.973 1.07769 16.3356L14.177 29.4349C14.5396 29.7968 15.031 30 15.5433 30C16.0556 30 16.547 29.7968 16.9097 29.4349L29.9476 16.397C30.3095 16.0343 30.5128 15.5429 30.5128 15.0305C30.5128 14.5181 30.3095 14.0267 29.9476 13.664Z" fill="white"/>
</svg>
