<svg width="16" height="32" viewBox="0 0 16 32" fill="none" xmlns="http://www.w3.org/2000/svg">
<g clip-path="url(#clip0_172_2)">
<path fill-rule="evenodd" clip-rule="evenodd" d="M7.7548 6.65584C8.39452 6.65584 9.01562 6.66716 9.60771 6.68885L10.2274 4.1743L14.0977 0.0911439C14.1019 0.0730494 14.1102 0.0559887 14.1227 0.0420302C14.2145 -0.0629178 14.5036 0.0353094 14.7683 0.262783C15.033 0.49129 15.1731 0.761674 15.0797 0.867657C15.0704 0.877995 15.059 0.886786 15.0486 0.893506L15.0657 0.907979L11.4082 4.74142L10.8969 6.75405C13.4033 6.91949 15.1384 7.2762 15.1384 7.68979C15.1384 8.26054 11.8322 8.72377 7.75376 8.72377C3.67529 8.72377 0.369141 8.26054 0.369141 7.68979C0.369141 7.11904 3.67529 6.65584 7.7548 6.65584ZM10.5494 7.97032L10.544 7.97104L10.5445 7.97311C10.5445 7.97311 10.4008 8.00517 9.98035 8.0067C9.55943 8.00878 9.26098 8.00517 9.14163 7.89659C9.10944 7.86765 9.09231 7.81024 9.09231 7.77097C9.09231 7.69548 9.14524 7.65309 9.21271 7.62311L9.27655 7.72288C9.24802 7.73218 9.23246 7.74356 9.23246 7.75546C9.23194 7.8118 9.66271 7.85058 9.99176 7.84645C10.3208 7.8423 10.7194 7.81541 10.7205 7.75959C10.7205 7.74304 10.6893 7.72702 10.6374 7.71411L10.7007 7.61586C10.7859 7.64171 10.8606 7.6934 10.8606 7.78131C10.8606 7.92908 10.6741 7.9538 10.5494 7.97032Z" fill="white"/>
<path d="M7.74216 32C9.96356 32 11.7646 31.5591 11.7646 31.0151H11.7635L12.078 25.7925L12.9469 24.314C12.9469 24.314 10.9694 25.1204 7.65805 25.1204C4.34775 25.1204 2.40039 24.3295 2.40039 24.3295L3.37511 25.9414L3.71973 31.0151C3.71973 31.5591 5.52073 32 7.74216 32Z" fill="white"/>
<path d="M14.9469 8.20508L13.8948 17.6173L13.8076 18.4486L13.2144 23.7555C13.2144 23.7555 11.7689 24.8339 7.57521 24.8339C3.38051 24.8339 1.98796 23.7379 1.98796 23.7379L1.45337 18.6022L1.0304 14.5697L0.369141 8.22215C0.369141 8.22215 1.26289 9.0271 7.60688 9.0271C13.9503 9.0271 14.9469 8.20508 14.9469 8.20508Z" fill="white"/>
</g>
<defs>
<clipPath id="clip0_172_2">
<rect width="16" height="32" fill="white"/>
</clipPath>
</defs>
</svg>
