<svg width="32" height="24" viewBox="0 0 32 24" fill="none" xmlns="http://www.w3.org/2000/svg">
<path d="M19.8325 16.5398C20.8105 18.1368 22.083 19.3106 24.3335 19.3106C26.2241 19.3106 27.4319 18.3657 27.4319 17.0601C27.4319 15.4955 26.191 14.9413 24.11 14.0311L22.9693 13.5417C19.6768 12.139 17.4894 10.3817 17.4894 6.66677C17.4894 3.24472 20.0968 0.639648 24.1717 0.639648C27.0727 0.639648 29.1583 1.64931 30.6612 4.29292L27.1082 6.57428C26.3259 5.17155 25.4819 4.61893 24.1717 4.61893C22.8352 4.61893 21.9882 5.46674 21.9882 6.57428C21.9882 7.9431 22.836 8.49725 24.7937 9.34506L25.9343 9.8337C29.8111 11.4962 32 13.191 32 17.0015C32 21.1095 28.7729 23.36 24.4391 23.36C20.2016 23.36 17.464 21.3407 16.1245 18.694L19.8325 16.5398ZM3.71416 16.9352C4.43094 18.2069 5.08297 19.2821 6.65064 19.2821C8.14971 19.2821 9.0954 18.6956 9.0954 16.415V0.900154H13.6581V16.4766C13.6581 21.2012 10.8881 23.3516 6.84487 23.3516C3.1916 23.3516 1.07594 21.461 0 19.1838L3.71416 16.9352Z" fill="white"/>
</svg>
