<svg width="30" height="32" viewBox="0 0 30 32" fill="none" xmlns="http://www.w3.org/2000/svg">
<g clip-path="url(#clip0_157_180)">
<path d="M28.6673 15.7546C28.6673 13.8281 27.3429 12.2072 25.5646 11.7441L29.5472 0H9.81004L13.8019 11.7812C12.0792 12.2813 10.8103 13.8744 10.8103 15.7638C10.8103 17.1531 11.505 18.3849 12.5608 19.1444C12.144 19.7372 11.6624 20.2836 11.116 20.8023C10.0879 21.7656 8.94868 22.5065 7.71684 22.9974C6.60541 22.2472 6.12379 20.9227 6.5591 19.7372C8.25403 19.2185 9.48587 17.6347 9.48587 15.7731C9.48587 13.4854 7.62422 11.633 5.34579 11.633C3.05809 11.633 1.19644 13.4946 1.19644 15.7823C1.19644 16.9123 1.65953 17.9496 2.40049 18.6906C2.33566 18.8203 2.27082 18.9499 2.20599 19.0889C1.58544 20.367 0.881532 21.8119 0.612936 23.4327C0.0757431 26.6744 0.955627 29.277 3.07661 30.7496C4.2714 31.574 5.5866 31.9907 7.00367 31.9907C9.43956 31.9907 11.9125 30.7682 14.3021 29.5826C16.0063 28.7398 17.766 27.8599 19.498 27.4339C20.1371 27.2764 20.804 27.1838 21.5079 27.0819C22.9342 26.8781 24.4069 26.6651 25.7313 25.8964C27.2781 24.998 28.3339 23.4975 28.6396 21.7748C28.8711 20.4504 28.6396 19.1166 28.0468 17.9496C28.4451 17.3106 28.6673 16.5603 28.6673 15.7546ZM26.8613 15.7546C26.8613 17.042 25.8147 18.0886 24.5273 18.0886C23.2399 18.0886 22.1933 17.042 22.1933 15.7546C22.1933 15.3378 22.3044 14.9395 22.4989 14.5968C22.573 14.4672 22.6656 14.3375 22.7582 14.2263C22.8509 14.1152 22.962 14.0133 23.0824 13.9207L23.0917 13.9114C23.1658 13.8559 23.2491 13.8003 23.3325 13.7447C23.3325 13.7447 23.3417 13.7447 23.3417 13.7355C23.3788 13.7169 23.4158 13.6891 23.4529 13.6706C23.4621 13.6706 23.4714 13.6614 23.4807 13.6614C23.5177 13.6428 23.564 13.6243 23.6103 13.6058C23.6566 13.5873 23.7029 13.5687 23.74 13.5502C23.7493 13.5502 23.7585 13.541 23.7678 13.541C23.8048 13.5317 23.8419 13.5132 23.8789 13.5039C23.8882 13.5039 23.9067 13.4946 23.916 13.4946C23.9623 13.4854 23.9993 13.4761 24.0456 13.4669H24.0549L24.1938 13.4391C24.2031 13.4391 24.2216 13.4391 24.2309 13.4298C24.2679 13.4298 24.305 13.4206 24.342 13.4206H24.3883C24.4346 13.4206 24.481 13.4113 24.5365 13.4113H24.6569C24.694 13.4113 24.7218 13.4113 24.7588 13.4206H24.7773C24.8514 13.4298 24.9255 13.4391 24.9996 13.4576C26.0555 13.6799 26.8613 14.6246 26.8613 15.7546ZM12.3941 1.85239H26.9632L23.6196 11.7164C23.4807 11.7441 23.3417 11.7904 23.2028 11.8368L19.6833 4.65876L16.1545 11.7904C16.0155 11.7441 15.8673 11.7164 15.7192 11.6886L12.3941 1.85239ZM19.0164 14.9488C18.8404 14.0781 18.3959 13.3001 17.766 12.7259L19.6833 8.85441L21.619 12.8093C21.0448 13.3835 20.628 14.1152 20.4613 14.9488H19.0164ZM14.3762 13.4854C14.4225 13.4761 14.4595 13.4669 14.5058 13.4576H14.5336C14.5707 13.4483 14.6077 13.4483 14.6448 13.4391H14.6818C14.7189 13.4391 14.7467 13.4298 14.7837 13.4298H15.1449C15.182 13.4298 15.2098 13.4391 15.2375 13.4391C15.2561 13.4391 15.2653 13.4391 15.2838 13.4483C15.3209 13.4576 15.3487 13.4576 15.3857 13.4669C15.395 13.4669 15.4043 13.4669 15.4228 13.4761C15.4691 13.4854 15.5154 13.4946 15.5524 13.5039H15.5617C15.5988 13.5132 15.6358 13.5224 15.6728 13.541C15.6821 13.541 15.6914 13.5502 15.7099 13.5502C15.7377 13.5595 15.7747 13.5687 15.8025 13.5873C15.8118 13.5873 15.821 13.5965 15.8303 13.5965C15.8673 13.6151 15.9044 13.6243 15.9414 13.6428H15.9507C15.997 13.6614 16.0341 13.6799 16.0711 13.7077H16.0804C16.1174 13.7262 16.1545 13.754 16.1915 13.7725C16.2008 13.7725 16.2008 13.7818 16.21 13.7818C16.2471 13.8003 16.2749 13.8281 16.3119 13.8466L16.3212 13.8559C16.4323 13.9392 16.5342 14.0318 16.6361 14.1245L16.6454 14.1337C16.738 14.2356 16.8306 14.3467 16.9047 14.4671C17.1455 14.8376 17.2844 15.2729 17.2844 15.7453C17.2844 17.0327 16.2378 18.0793 14.9504 18.0793C13.663 18.0793 12.6164 17.0327 12.6164 15.7453C12.6071 14.6617 13.3574 13.7447 14.3762 13.4854ZM5.26243 13.4206C6.54984 13.4206 7.59644 14.4672 7.59644 15.7546C7.59644 17.042 6.54984 18.0886 5.26243 18.0886C3.97502 18.0886 2.92842 17.042 2.92842 15.7546C2.92842 14.4672 3.97502 13.4206 5.26243 13.4206ZM26.8057 21.4507C26.6019 22.6362 25.8702 23.6735 24.7959 24.2941C23.7863 24.8776 22.5452 25.0628 21.2393 25.248C20.5261 25.3499 19.7759 25.4611 19.0535 25.637C17.127 26.1094 15.2746 27.0356 13.4778 27.9247C11.1808 29.064 9.01351 30.1384 7.00367 30.1384C5.95707 30.1384 5.02162 29.842 4.13247 29.2214C2.09485 27.8136 2.19673 25.174 2.43754 23.7291C2.65982 22.3768 3.28037 21.108 3.87314 19.8946C3.91019 19.8206 3.93797 19.7557 3.97502 19.6816C4.17878 19.7557 4.39181 19.8113 4.61409 19.8483C4.26214 21.8119 5.26243 23.8402 7.20744 24.8405L7.55939 25.0258L7.93913 24.8868C9.55997 24.3126 11.0604 23.3771 12.3849 22.1268C13.1351 21.4229 13.7742 20.6634 14.3113 19.8391C14.5244 19.8761 14.7374 19.8854 14.9504 19.8854C16.8769 19.8854 18.4977 18.5609 18.9608 16.7826H20.5168C20.9799 18.5702 22.6008 19.8854 24.5273 19.8854C25.296 19.8854 26.0092 19.6724 26.6205 19.3111C26.8613 20.0058 26.9354 20.7282 26.8057 21.4507Z" fill="white"/>
</g>
<defs>
<clipPath id="clip0_157_180">
<rect width="29.0918" height="32" fill="white" transform="translate(0.455078)"/>
</clipPath>
</defs>
</svg>
