<svg width="28" height="30" viewBox="0 0 28 30" fill="none" xmlns="http://www.w3.org/2000/svg">
<path d="M26.222 14.7708C26.222 13.2286 24.9718 11.9784 23.4296 11.9784C23.3304 11.9784 23.2326 11.9837 23.1361 11.9938L26.9714 0.681946H10.6726L14.5026 11.984C14.4464 11.9806 14.3899 11.9784 14.3329 11.9784C12.7907 11.9784 11.5405 13.2286 11.5405 14.7708C11.5405 16.0174 12.3574 17.0727 13.485 17.4318C12.8894 18.4634 12.1401 19.3924 11.2893 20.1951C10.1324 21.2865 8.8084 22.1141 7.37635 22.6241C5.67143 21.7482 4.86627 19.8003 5.5928 18.0924C5.67477 17.8996 5.75859 17.7041 5.83859 17.5094C7.07381 17.2212 7.99416 16.1139 7.99416 14.7908C7.99416 13.2486 6.744 11.9985 5.20174 11.9985C3.65955 11.9985 2.40932 13.2486 2.40932 14.7908C2.40932 15.7365 2.8799 16.5718 3.59913 17.077C2.90799 18.6506 1.89203 20.2975 1.57551 22.2063C1.19619 24.4938 1.57429 26.922 3.55275 28.2933C8.16043 31.4868 13.162 26.3135 18.4355 25.0131C20.3468 24.5418 22.4446 24.6177 24.1285 23.6425C25.393 22.9101 26.2266 21.6964 26.4632 20.3338C26.6969 18.9877 26.3562 17.6474 25.5725 16.5607C25.9779 16.076 26.222 15.452 26.222 14.7708Z" fill="#99425B"/>
<path d="M25.7913 20.2171C25.5859 21.4001 24.8553 22.4334 23.7867 23.0523C22.7907 23.6292 21.597 23.8014 20.3333 23.9837C19.6563 24.0813 18.9562 24.1823 18.2723 24.3509C16.464 24.7968 14.7125 25.6668 13.0187 26.5081C9.629 28.1918 6.70161 29.6457 3.94131 27.7327C1.9194 26.3314 2.01277 23.7386 2.24833 22.3178C2.46664 21.0015 3.05683 19.7893 3.62759 18.6169C3.72621 18.4142 3.82285 18.2152 3.91689 18.018C4.19979 18.131 4.50068 18.2081 4.81433 18.2432C4.23334 20.1606 5.14701 22.2455 7.06477 23.2307L7.3272 23.3655L7.60518 23.2665C9.12125 22.7266 10.5182 21.8602 11.7574 20.6911C12.5583 19.9355 13.247 19.0995 13.813 18.2062C13.9826 18.2318 14.1562 18.2452 14.3329 18.2452C16.093 18.2452 17.5506 16.9294 17.7761 15.2299C18.4965 15.2035 19.2618 15.2033 19.9864 15.2297C20.2118 16.9293 21.6695 18.2452 23.4296 18.2452C24.1656 18.2452 24.8482 18.0146 25.4106 17.6228C25.801 18.422 25.9468 19.3213 25.7913 20.2171ZM5.20177 12.6804C6.36552 12.6804 7.3122 13.6272 7.3122 14.7909C7.3122 15.2089 7.18958 15.5986 6.97898 15.9269C6.62809 16.474 6.03196 16.849 5.34676 16.8958C5.29882 16.899 5.25053 16.9013 5.20177 16.9013C4.94248 16.9013 4.69403 16.854 4.46433 16.7681C3.99969 16.5942 3.61252 16.2608 3.36898 15.8351C3.19269 15.5269 3.09134 15.1706 3.09134 14.7909C3.09134 13.6272 4.03808 12.6804 5.20177 12.6804ZM12.2225 14.7708C12.2225 13.7135 13.004 12.8356 14.0197 12.6838C14.1219 12.6684 14.2265 12.6604 14.3329 12.6604C15.0094 12.6604 15.6118 12.9809 15.9981 13.4776C16.0942 13.6009 16.1774 13.7348 16.2445 13.8777C16.3718 14.1492 16.4433 14.4517 16.4433 14.7708C16.4433 14.9395 16.4229 15.1036 16.3853 15.2609C16.1796 16.1219 15.4454 16.78 14.5458 16.8705C14.4759 16.8776 14.4048 16.8812 14.3329 16.8812C13.9116 16.8812 13.519 16.7566 13.1891 16.543C12.6081 16.1667 12.2225 15.5131 12.2225 14.7708ZM21.0306 12.2613C20.5785 12.6939 20.2423 13.2466 20.0749 13.8681C19.2934 13.8387 18.4647 13.8387 17.6877 13.8681C17.5092 13.2056 17.139 12.6212 16.6411 12.1773L18.8249 7.76163L21.0306 12.2613ZM11.6238 1.36399H26.0201L22.6199 11.3924C22.4725 11.4278 22.3287 11.4724 22.1892 11.5259L18.8302 4.67377L15.4618 11.485C15.3162 11.4348 15.1662 11.3945 15.0126 11.3639L11.6238 1.36399ZM25.54 14.7708C25.54 14.9824 25.5084 15.1867 25.4502 15.3796C25.3116 15.8384 25.0208 16.2316 24.6368 16.5004C24.2944 16.7401 23.8783 16.8812 23.4296 16.8812C22.4552 16.8812 21.6332 16.2172 21.3915 15.3179C21.3446 15.1433 21.3192 14.96 21.3192 14.7708C21.3192 14.4823 21.3775 14.2073 21.4827 13.9567C21.5369 13.8275 21.6046 13.7054 21.6823 13.5907C22.0621 13.0302 22.703 12.6604 23.4296 12.6604C23.4962 12.6604 23.562 12.6639 23.627 12.6699C24.6985 12.7698 25.54 13.6737 25.54 14.7708ZM26.904 14.7708C26.904 13.0746 25.6819 11.6593 24.0722 11.3569L27.9228 0H9.72141L13.5779 11.38C12.024 11.7258 10.8585 13.1143 10.8585 14.7708C10.8585 16.0146 11.5159 17.1073 12.501 17.7212C12.0272 18.4272 11.4652 19.0915 10.8213 19.699C9.80004 20.6625 8.66234 21.3931 7.43578 21.8738C6.20034 21.0978 5.67807 19.6343 6.22046 18.3593L6.26295 18.2594C6.28955 18.197 6.31615 18.1345 6.34268 18.0719C7.69964 17.5986 8.67619 16.3071 8.67619 14.7909C8.67619 12.875 7.11756 11.3165 5.20177 11.3165C3.28598 11.3165 1.72735 12.875 1.72735 14.7909C1.72735 15.7579 2.12482 16.6335 2.76453 17.264C2.64859 17.5111 2.52651 17.7624 2.40123 18.0198C1.81636 19.2211 1.15346 20.5827 0.902757 22.0947C0.404833 25.0975 1.20802 27.4979 3.16432 28.8538C4.35146 29.6765 5.55695 30 6.77015 30C9.05456 30 11.3654 28.8523 13.6255 27.7297C15.2532 26.9213 16.9364 26.0852 18.5989 25.6752C19.2175 25.5226 19.8541 25.4309 20.528 25.3337C21.8644 25.1409 23.2463 24.9416 24.4703 24.2327C25.8892 23.4108 26.8605 22.0322 27.1352 20.4505C27.3709 19.0925 27.0872 17.7324 26.3952 16.5791C26.7178 16.0519 26.904 15.4328 26.904 14.7708Z" fill="white"/>
</svg>
