<svg width="43" height="30" viewBox="0 0 43 30" fill="none" xmlns="http://www.w3.org/2000/svg">
<path d="M26.2637 20.9946C27.5551 23.1032 29.2353 24.6531 32.2069 24.6531C34.7032 24.6531 36.2979 23.4055 36.2979 21.6815C36.2979 19.6157 34.6595 18.884 31.9118 17.6821L30.4056 17.0359C26.0581 15.1837 23.17 12.8634 23.17 7.95821C23.17 3.43974 26.6127 0 31.9932 0C35.8237 0 38.5775 1.33315 40.562 4.82377L35.8705 7.83609C34.8376 5.98392 33.7232 5.25425 31.9932 5.25425C30.2285 5.25425 29.1101 6.37369 29.1101 7.83609C29.1101 9.64348 30.2296 10.3752 32.8144 11.4946L34.3206 12.1398C39.4395 14.3349 42.3297 16.5728 42.3297 21.6042C42.3297 27.0284 38.0687 30 32.3463 30C26.7511 30 23.1364 27.3337 21.3677 23.839L26.2637 20.9946ZM4.98107 21.5167C5.92751 23.1958 6.78846 24.6155 8.85841 24.6155C10.8378 24.6155 12.0865 23.841 12.0865 20.8297V0.343971H18.1111V20.9112C18.1111 27.1495 14.4536 29.9888 9.11486 29.9888C4.29109 29.9888 1.49758 27.4925 0.0769043 24.4857L4.98107 21.5167Z" fill="black"/>
</svg>
