<svg width="32" height="32" viewBox="0 0 32 32" fill="none" xmlns="http://www.w3.org/2000/svg">
<path d="M14.7886 32C14.4487 31.0226 13.8537 30.3426 13.1313 30.1726C12.4088 30.0027 11.6014 30.3001 10.794 30.9801C9.39157 29.2802 8.92411 26.093 9.77404 22.7357C9.90153 22.2258 10.0715 21.7158 10.2415 21.2483C9.73155 21.3333 9.22158 21.4183 8.66913 21.4183C5.2269 21.6308 2.16714 20.5684 0.764748 18.8685C1.57219 18.2311 2.03965 17.5086 1.99715 16.7437C1.95465 15.9788 1.4022 15.2988 0.509766 14.7888C1.69967 12.919 4.58945 11.4741 8.03168 11.2616C8.58413 11.2191 9.0941 11.2191 9.60406 11.2616C9.34908 10.7942 9.13659 10.3267 8.92411 9.81673C7.64921 6.58699 7.7342 3.39974 8.92411 1.52988C9.77404 2.12483 10.624 2.29482 11.3464 2.03984C12.0689 1.74237 12.5363 1.01992 12.7488 0C14.8736 0.552457 17.126 2.84728 18.4009 6.07703C18.6133 6.58699 18.7408 7.05445 18.9108 7.56441C19.2508 7.18194 19.6333 6.84197 20.0582 6.50199C22.7355 4.29217 25.7953 3.35724 27.9626 3.90969C27.6651 4.92962 27.7501 5.77955 28.2176 6.3745C28.6851 6.96946 29.535 7.18194 30.5549 7.09695C30.6824 9.30677 29.195 12.1541 26.5177 14.3639C26.0928 14.7039 25.6678 15.0013 25.2428 15.2988C25.7103 15.5113 26.1778 15.7663 26.6027 16.0637C29.535 17.9336 31.3624 20.5684 31.4898 22.7782C30.4699 22.8207 29.6625 23.1607 29.2375 23.7981C28.8125 24.4356 28.8975 25.2855 29.28 26.2629C27.1977 27.0704 24.0529 26.5179 21.1207 24.6906C20.6532 24.3931 20.2282 24.0956 19.8458 23.7556C19.7608 24.2656 19.6758 24.7756 19.5483 25.2855C18.7833 28.6428 16.8285 31.1926 14.7886 32Z" fill="white"/>
</svg>
