<svg width="31" height="30" viewBox="0 0 31 30" fill="none" xmlns="http://www.w3.org/2000/svg">
<path d="M29.8103 18.4409C29.0576 17.7957 28.6813 17.0968 28.7888 16.3441C28.8963 15.6452 29.434 15.0538 30.2942 14.5699C29.2727 12.7419 26.6383 11.2366 23.3587 10.8602C22.8748 10.8064 22.3372 10.7527 21.8533 10.7527C22.1221 10.3226 22.3372 9.89246 22.5522 9.46235C23.8963 6.50536 24.0039 3.44086 22.9823 1.6129C22.1221 2.09677 21.3157 2.25806 20.6705 1.98924C20.0254 1.72042 19.5952 0.967742 19.434 0C17.3909 0.430108 15.1329 2.47311 13.7888 5.4301C13.5737 5.91397 13.4125 6.34408 13.2512 6.82795C12.9286 6.4516 12.606 6.12902 12.2297 5.75268C9.8103 3.54838 6.96084 2.52688 4.91783 2.90322C5.13288 3.87097 5.02536 4.67741 4.54148 5.21505C4.05761 5.75268 3.25116 5.91397 2.28342 5.75268C2.06837 7.84945 3.30492 10.5914 5.72428 12.7957C6.10062 13.1183 6.47697 13.4409 6.85331 13.7097C6.42321 13.871 5.93934 14.086 5.50923 14.3548C2.65977 15.9677 0.778042 18.3333 0.562988 20.4301C1.53073 20.5376 2.28342 20.8602 2.606 21.5054C2.98235 22.1505 2.87482 22.957 2.44471 23.8172C4.32643 24.6774 7.39095 24.3548 10.2404 22.7419C10.6705 22.4731 11.1006 22.2043 11.477 21.9355C11.5307 22.4194 11.5845 22.9032 11.692 23.3871C12.3372 26.6129 14.0576 29.086 15.9393 30C16.3157 29.086 16.9071 28.4946 17.606 28.3871C18.3049 28.2258 19.0576 28.6022 19.7565 29.2473C21.1544 27.6882 21.7995 24.7312 21.1544 21.5054C21.0469 21.0215 20.9393 20.5376 20.778 20.0538C21.2619 20.1613 21.7458 20.2688 22.2297 20.3226C25.4555 20.8065 28.3587 20 29.8103 18.4409Z" fill="#FFCCCA"/>
<path d="M21.692 15.914C21.3694 15.6452 21.2081 15.3226 21.2081 15C21.2619 14.6774 21.4769 14.4086 21.8532 14.1936C21.3694 13.3871 20.2403 12.6882 18.7887 12.5269C18.5737 12.5269 18.3586 12.4731 18.1436 12.4731C18.2511 12.3118 18.3586 12.0968 18.4662 11.8817C19.0575 10.5376 19.1113 9.19354 18.6812 8.38709C18.3049 8.60214 17.9285 8.65592 17.6597 8.54839C17.3909 8.44086 17.1758 8.11828 17.1221 7.68817C16.2081 7.84946 15.1866 8.76344 14.5952 10.1075C14.4877 10.3226 14.4339 10.5376 14.3801 10.6989C14.2188 10.5376 14.1113 10.3764 13.8963 10.2151C12.821 9.24732 11.5307 8.76343 10.6167 8.92472C10.7242 9.35483 10.6705 9.73119 10.4554 9.94624C10.2403 10.1613 9.864 10.2688 9.4339 10.2151C9.32637 11.129 9.864 12.3656 10.9393 13.3871C11.1006 13.5484 11.2619 13.6559 11.4231 13.8172C11.2081 13.9247 11.0468 13.9785 10.8317 14.086C9.54142 14.7849 8.73497 15.8602 8.62744 16.7742C9.05755 16.828 9.38013 16.9892 9.54142 17.2581C9.70271 17.5269 9.64895 17.9032 9.48766 18.2796C10.3479 18.6559 11.692 18.4946 12.9285 17.7957C13.1436 17.6882 13.3049 17.5807 13.4662 17.4194C13.4662 17.6344 13.5199 17.8495 13.5737 18.0645C13.8425 19.5161 14.5952 20.5914 15.4554 21.0215C15.6167 20.6452 15.8855 20.3763 16.2081 20.2688C16.5307 20.2151 16.8532 20.3764 17.1758 20.6452C17.821 19.9462 18.0898 18.6022 17.7672 17.2043L17.6059 16.5591C17.821 16.6129 18.036 16.6667 18.2511 16.6667C19.7565 16.9893 21.1006 16.6129 21.692 15.914Z" fill="#F1423D"/>
<path d="M15.1869 15.2687C15.9292 15.2687 16.5309 14.667 16.5309 13.9247C16.5309 13.1823 15.9292 12.5806 15.1869 12.5806C14.4445 12.5806 13.8428 13.1823 13.8428 13.9247C13.8428 14.667 14.4445 15.2687 15.1869 15.2687Z" fill="#58595B"/>
</svg>
