<svg width="30" height="26" viewBox="0 0 30 26" fill="none" xmlns="http://www.w3.org/2000/svg">
<path d="M17.6667 12.963C17.6667 10.0175 15.2788 7.62968 12.3333 7.62968C9.38781 7.62968 7 10.0175 7 12.963C7 18.8541 11.7756 23.6297 17.6667 23.6297C23.5577 23.6297 28.3333 18.8541 28.3333 12.963C28.3333 8.22435 26.2733 3.96682 23 1.03711" stroke="white" stroke-width="2" stroke-linecap="round" stroke-linejoin="round"/>
<path d="M12.3327 12.9631C12.3327 15.9085 14.7205 18.2964 17.666 18.2964C20.6115 18.2964 22.9993 15.9085 22.9993 12.9631C22.9993 7.07201 18.2237 2.29639 12.3327 2.29639C6.44164 2.29639 1.66602 7.07201 1.66602 12.9631C1.66602 17.7419 3.76104 22.0313 7.08272 24.9631" stroke="white" stroke-width="2" stroke-linecap="round" stroke-linejoin="round"/>
</svg>
