<svg width="36" height="32" viewBox="0 0 36 32" fill="none" xmlns="http://www.w3.org/2000/svg">
<path d="M21.2166 15.9535C21.2166 12.2602 18.2226 9.26622 14.5293 9.26622C10.836 9.26622 7.84204 12.2602 7.84204 15.9535C7.84204 23.3402 13.8301 29.3281 21.2166 29.3281C28.6033 29.3281 34.5912 23.3402 34.5912 15.9535C34.5912 10.0119 32.0083 4.67347 27.9039 1" stroke="white" stroke-width="2" stroke-linecap="round" stroke-linejoin="round"/>
<path d="M14.5294 15.9536C14.5294 19.6468 17.5235 22.6409 21.2167 22.6409C24.9099 22.6409 27.904 19.6468 27.904 15.9536C27.904 8.56699 21.916 2.57898 14.5294 2.57898C7.1428 2.57898 1.15479 8.56699 1.15479 15.9536C1.15479 21.9456 3.78167 27.324 7.94663 31" stroke="#F56565" stroke-width="2" stroke-linecap="round" stroke-linejoin="round"/>
</svg>
