<svg width="33" height="32" viewBox="0 0 33 32" fill="none" xmlns="http://www.w3.org/2000/svg">
<g clip-path="url(#clip0_172_10)">
<path fill-rule="evenodd" clip-rule="evenodd" d="M19.2111 0C18.9797 0 18.7649 0.049586 18.5665 0.115697C18.988 0.396674 19.2194 0.768558 19.3351 1.19002C19.3434 1.24787 19.3599 1.28919 19.3681 1.34704C19.3764 1.39662 19.3847 1.44621 19.3847 1.49579C19.4177 2.22303 19.1946 2.31393 19.0376 2.74366C18.7979 3.29736 18.864 3.89237 19.1533 4.37168C19.1781 4.42953 19.2111 4.49564 19.2524 4.55349C18.9384 2.46269 20.6821 2.14865 21.0044 1.49579C21.0292 0.925574 20.5581 0.545427 20.1863 0.280977C19.8309 0.0661128 19.5086 0 19.2111 0ZM21.8391 0.471051C21.806 0.661124 21.8308 0.611539 21.8226 0.710709C21.8143 0.77682 21.8143 0.859463 21.806 0.925573C21.7895 0.991686 21.773 1.0578 21.7482 1.12391C21.7317 1.19002 21.7069 1.25614 21.6821 1.32225C21.649 1.38836 21.6242 1.44621 21.5912 1.51232C21.5664 1.54539 21.5499 1.57843 21.5251 1.61149C21.5086 1.63628 21.492 1.66107 21.4755 1.68587C21.4342 1.74372 21.3928 1.80156 21.3515 1.85115C21.3019 1.90073 21.2606 1.95858 21.2028 1.9999V2.00818C21.1532 2.0495 21.1036 2.09908 21.0458 2.1404C20.8722 2.27262 20.6739 2.37179 20.4921 2.49575C20.4342 2.53707 20.3764 2.57013 20.3268 2.61972C20.2689 2.66104 20.2193 2.70235 20.1698 2.75194C20.1119 2.80152 20.0706 2.85111 20.021 2.90896C19.9797 2.95854 19.9301 3.01639 19.8971 3.07424C19.8557 3.13209 19.8144 3.18994 19.7814 3.24778C19.7483 3.31389 19.7235 3.37174 19.6904 3.43786C19.6657 3.50397 19.6409 3.56182 19.6243 3.62793C19.5995 3.70231 19.583 3.76842 19.5665 3.83453C19.5582 3.8676 19.5582 3.90891 19.55 3.94196C19.5417 3.97503 19.5417 4.00807 19.5335 4.04113C19.5335 4.10724 19.5252 4.18162 19.5252 4.24773C19.5252 4.29732 19.5252 4.3469 19.5335 4.39649C19.5335 4.4626 19.5417 4.52871 19.5582 4.60309C19.5665 4.6692 19.583 4.73531 19.5996 4.80143C19.6244 4.86754 19.6409 4.93365 19.6657 4.99976C19.6822 5.04108 19.707 5.0824 19.7235 5.11546L17.8228 4.37996C17.5005 4.28905 17.1865 4.20641 16.8642 4.13204C16.6906 4.09072 16.5171 4.0494 16.3435 4.00808C15.8477 3.90891 15.3436 3.83453 14.8395 3.78495C14.823 3.78495 14.8147 3.77667 14.7982 3.77667C14.3023 3.72709 13.8147 3.7023 13.3189 3.7023C12.9553 3.7023 12.5917 3.71881 12.2363 3.74362C11.7322 3.77669 11.2281 3.84279 10.724 3.92542C10.6 3.94194 10.4761 3.96675 10.3521 3.99154C10.0959 4.04112 9.84799 4.09897 9.60833 4.15682C9.48437 4.18989 9.36041 4.22293 9.23645 4.25599C9.11249 4.30557 8.9968 4.36342 8.8811 4.413C8.79019 4.45432 8.69929 4.49564 8.60838 4.53697C8.59187 4.54524 8.57531 4.54524 8.56706 4.55348C8.48442 4.5948 8.41005 4.62785 8.33567 4.66918C8.31088 4.67745 8.29435 4.68569 8.27782 4.69397C8.18692 4.73529 8.09601 4.78487 8.02164 4.82619C7.96379 4.85099 7.90594 4.88404 7.85636 4.90884C7.83156 4.92535 7.79851 4.94191 7.78198 4.95016C7.7076 4.99147 7.63323 5.03279 7.56711 5.07412C7.49274 5.11544 7.42663 5.15676 7.36878 5.19807C7.31093 5.2394 7.25308 5.27245 7.20349 5.31377C7.19522 5.32205 7.18698 5.32205 7.1787 5.33029C7.12912 5.36336 7.07127 5.40466 7.02169 5.44599C7.02169 5.44599 7.01341 5.45426 7.00517 5.4625C6.96385 5.49557 6.92253 5.52861 6.88121 5.56167C6.86469 5.56994 6.84814 5.58646 6.83163 5.59474C6.79031 5.62781 6.74899 5.66911 6.70767 5.70217C6.69939 5.71869 6.68288 5.72696 6.6746 5.73524C6.62501 5.78482 6.57543 5.82614 6.52584 5.87573C6.51757 5.87573 6.51757 5.88401 6.50933 5.89224C6.45974 5.93356 6.41016 5.98315 6.36058 6.03273C6.3523 6.04101 6.3523 6.04925 6.34406 6.04925C6.30274 6.09057 6.26142 6.13189 6.2201 6.18147C6.20358 6.19799 6.17878 6.21454 6.16225 6.23105C6.12093 6.28064 6.07135 6.33023 6.02176 6.37981C6.01349 6.39633 5.99697 6.4046 5.98869 6.42113C5.92258 6.48724 5.86473 6.55336 5.79862 6.61947C5.79034 6.62774 5.78211 6.63598 5.77383 6.64426C5.6416 6.78475 5.50111 6.92524 5.35236 7.0492C5.20361 7.18142 5.04659 7.30538 4.88957 7.41281C4.72429 7.52851 4.56728 7.62768 4.39373 7.72685C4.22845 7.81775 4.0549 7.90039 3.8731 7.97477C3.69955 8.04915 3.51774 8.11526 3.33593 8.17311C2.98884 8.24748 2.63349 8.38797 2.32772 8.41276C2.26161 8.41276 2.18723 8.42928 2.12112 8.43756C2.04674 8.45407 1.98063 8.47063 1.91452 8.48714C1.84841 8.51193 1.78229 8.53673 1.71618 8.56152C1.65007 8.58631 1.58396 8.61937 1.51784 8.65242C1.45999 8.69374 1.39388 8.7268 1.33603 8.76812C1.27819 8.80944 1.22034 8.85902 1.17075 8.90861C1.11291 8.94993 1.05506 9.00778 1.00547 9.05736C0.955887 9.11521 0.906302 9.1648 0.864983 9.22264C0.823664 9.28875 0.774079 9.3466 0.741021 9.41272C0.699702 9.47057 0.658383 9.53668 0.625325 9.60279C0.592256 9.67717 0.559213 9.74328 0.534421 9.81765C0.509629 9.88377 0.484836 9.95814 0.460044 10.0325C0.443529 10.0986 0.426975 10.1647 0.418725 10.2309C0.418725 10.2391 0.410448 10.2474 0.410448 10.2556C0.393933 10.33 0.393933 10.4292 0.385656 10.4788C0.377379 10.5366 0.369141 10.5862 0.369141 10.6441C0.369141 10.6771 0.369141 10.7184 0.377417 10.7515C0.385694 10.8093 0.393932 10.8589 0.410487 10.9085C0.427002 10.9581 0.443556 11.0077 0.468333 11.0573V11.0655C0.493125 11.1151 0.526183 11.1647 0.559237 11.2143C0.592306 11.2639 0.625352 11.3135 0.666672 11.363C0.707991 11.4044 0.757575 11.4539 0.80716 11.4953C0.856745 11.5449 0.906329 11.5862 0.964176 11.6275C1.16251 11.801 1.2121 11.8589 1.46828 11.9911C1.5096 12.0159 1.55093 12.0324 1.60051 12.0572C1.60879 12.0572 1.61703 12.0655 1.6253 12.0655C1.6253 12.082 1.6253 12.0903 1.63358 12.1068C1.64186 12.1729 1.65837 12.239 1.6749 12.3052C1.69142 12.3795 1.71622 12.4457 1.74102 12.5035C1.76581 12.5531 1.78234 12.6027 1.80713 12.6523C1.8154 12.6688 1.82364 12.6853 1.83192 12.6936C1.86499 12.7597 1.89803 12.8175 1.93109 12.8754C1.97241 12.9332 2.01373 12.9911 2.05505 13.0489C2.09637 13.0985 2.14595 13.1564 2.19554 13.2059C2.24512 13.2555 2.2947 13.2968 2.35256 13.3464C2.35256 13.3464 2.36083 13.3547 2.36907 13.3547C2.41865 13.396 2.46824 13.4374 2.51782 13.4704C2.57567 13.5117 2.63352 13.5448 2.69963 13.5778C2.75748 13.6109 2.82359 13.644 2.88971 13.6688C2.93929 13.6935 2.99714 13.7101 3.05499 13.7266C3.06326 13.7349 3.0715 13.7349 3.08806 13.7431C3.12112 13.7514 3.16243 13.7596 3.19549 13.7679C3.17069 14.2142 3.16242 14.6356 3.22856 14.7844C3.30293 14.9497 3.66655 14.4456 4.03017 13.8671C3.98058 14.4373 3.94753 15.1067 4.03017 15.305C4.12107 15.5116 4.61691 14.867 5.04665 14.1563C10.9059 12.801 16.2527 16.8504 16.8147 22.5691C16.7072 21.6766 15.6081 21.1808 15.104 21.3047C14.8561 21.9163 14.4346 22.7013 13.757 23.1889C13.8148 22.6435 13.79 22.0815 13.6743 21.5361C13.4925 22.2964 13.1371 23.0071 12.6496 23.6187C11.8645 23.6765 11.0794 23.2964 10.6662 22.7261C10.6331 22.7013 10.6249 22.6518 10.6001 22.6187C10.5753 22.5609 10.5505 22.503 10.534 22.4452C10.5092 22.3873 10.4927 22.3295 10.4844 22.2716C10.4761 22.2138 10.4761 22.1559 10.4761 22.0898C10.4761 22.0485 10.4761 22.0072 10.4761 21.9658C10.4844 21.908 10.5009 21.8501 10.5174 21.7923C10.5339 21.7345 10.5505 21.6766 10.5753 21.6188C10.6083 21.5609 10.6331 21.5031 10.6744 21.4452C10.8149 21.0485 10.8149 20.7262 10.5588 20.5362C10.5092 20.5031 10.4596 20.4783 10.4017 20.4535C10.3687 20.4452 10.3274 20.4287 10.2943 20.4205C10.2695 20.4122 10.253 20.4039 10.2282 20.3957C10.1703 20.3791 10.1125 20.3626 10.0546 20.3543C9.99679 20.3378 9.93895 20.3295 9.8811 20.3295C9.82325 20.3213 9.75714 20.313 9.69929 20.313C9.65797 20.313 9.61665 20.3213 9.57533 20.3213C9.50922 20.3213 9.45137 20.3296 9.39352 20.3461C9.33567 20.3544 9.27782 20.3626 9.21997 20.3792C9.16213 20.3957 9.10428 20.4122 9.04643 20.437C8.98858 20.4618 8.939 20.4866 8.88115 20.5114C8.83157 20.5362 8.78198 20.5692 8.72413 20.594C6.79861 21.8502 7.94731 24.7922 9.26129 25.6434C8.76545 25.7343 8.26135 25.8417 8.12086 25.9491C8.11258 25.9574 8.10434 25.9657 8.10434 25.9657C8.4597 26.1805 8.83158 26.3623 9.21999 26.5193C9.74889 26.6929 10.3108 26.8499 10.5588 26.916V26.9243C11.2447 27.0648 11.9389 27.1144 12.6413 27.073C16.3023 26.8169 19.3021 24.0319 19.8476 20.3626C19.8641 20.437 19.8806 20.5031 19.8971 20.5775C19.9219 20.7263 19.955 20.8833 19.9715 21.0403V21.0486C19.988 21.123 19.9963 21.1973 20.0046 21.2634V21.2965C20.0129 21.3709 20.0211 21.4453 20.0211 21.5114C20.0294 21.6023 20.0376 21.6932 20.0376 21.7841V21.9163C20.0376 21.9576 20.0459 22.0072 20.0459 22.0485C20.0459 22.0981 20.0376 22.1477 20.0376 22.1973V22.313C20.0376 22.3708 20.0293 22.4204 20.0293 22.4783C20.0293 22.5113 20.0293 22.5444 20.0211 22.5857C20.0211 22.6436 20.0128 22.7014 20.0128 22.7675C20.0045 22.7923 20.0045 22.8171 20.0045 22.8419C19.9962 22.908 19.988 22.9658 19.9797 23.032C19.9797 23.0568 19.9797 23.0815 19.9714 23.1063C19.9631 23.189 19.9466 23.2634 19.9384 23.346V23.3543V23.3626C19.9218 23.4369 19.9053 23.5196 19.8888 23.5939V23.6187C19.8723 23.6931 19.8557 23.7675 19.8392 23.8419C19.8392 23.8502 19.8309 23.8667 19.8309 23.8749C19.8144 23.9493 19.7978 24.0237 19.7731 24.0981V24.1229C19.7483 24.2055 19.7235 24.2799 19.707 24.3543C19.6987 24.3625 19.6987 24.3708 19.6987 24.3708C19.6739 24.4534 19.6491 24.536 19.6243 24.6187C19.5912 24.7013 19.5665 24.7757 19.5334 24.8583C19.5003 24.941 19.4756 25.0236 19.4425 25.098C19.4094 25.1806 19.3764 25.255 19.3433 25.3377H19.335C19.302 25.412 19.2689 25.4947 19.2276 25.5691C19.2193 25.5938 19.2111 25.6104 19.2028 25.6269C19.1945 25.6352 19.1945 25.6434 19.1863 25.6517C18.6491 26.7343 17.8558 27.6846 16.8641 28.4284C16.798 28.4697 16.7319 28.5193 16.6658 28.5689C16.6492 28.5854 16.6244 28.5937 16.6079 28.6102C16.5501 28.6515 16.4922 28.6929 16.4261 28.7342L16.4509 28.7838H16.4592C16.5749 28.7673 16.6906 28.7507 16.8063 28.7342H16.8145C17.0294 28.7011 17.2443 28.6598 17.4591 28.6185C17.517 28.6102 17.5831 28.5937 17.6409 28.5772C17.6823 28.5689 17.7153 28.5607 17.7566 28.5524C17.8145 28.5441 17.8723 28.5276 17.9302 28.5193C17.9798 28.5028 18.0294 28.4945 18.0789 28.478C18.9053 28.2796 19.707 28.0069 20.4755 27.6846C19.1615 29.4779 17.4013 30.9241 15.3435 31.8745C16.2939 31.8084 17.2443 31.6514 18.1616 31.3869C21.492 30.4035 24.2935 28.1639 25.9711 25.1476C25.6323 27.0566 24.872 28.8747 23.7481 30.4614C24.5497 29.9325 25.2852 29.3209 25.9546 28.6267C27.8057 26.6929 29.0205 24.2385 29.4337 21.6023C29.7147 22.908 29.7974 24.2551 29.6734 25.5856C35.64 17.2637 30.1692 8.636 27.8801 6.36339C27.8718 6.34688 27.8636 6.3386 27.8636 6.32207C27.8553 6.33034 27.8553 6.33034 27.8553 6.33859C27.8553 6.33031 27.8553 6.33031 27.847 6.32207C27.847 6.42124 27.8387 6.52041 27.8305 6.61957C27.8057 6.80965 27.7809 6.99146 27.7479 7.17327C27.7065 7.35508 27.657 7.53688 27.6074 7.71869C27.5495 7.89224 27.4834 8.07404 27.409 8.24759C27.3347 8.41287 27.252 8.58642 27.1611 8.7517C27.0702 8.90872 26.971 9.074 26.8636 9.22275C26.7562 9.37977 26.6405 9.52852 26.5248 9.66901C26.4008 9.81776 26.2686 9.94999 26.1364 10.0822C26.0537 10.1566 25.9794 10.2227 25.8967 10.2888C25.8306 10.3467 25.7728 10.3962 25.7066 10.4541C25.5579 10.5698 25.4091 10.6772 25.2439 10.7764C25.0868 10.8756 24.9216 10.9747 24.7563 11.0574C24.5827 11.14 24.4092 11.2144 24.2356 11.2888C24.0621 11.3549 23.8803 11.4127 23.6985 11.4623C23.5167 11.5119 23.3266 11.5532 23.1448 11.5863C22.9547 11.6193 22.7646 11.6359 22.5828 11.6524C22.4506 11.6607 22.3184 11.6689 22.1862 11.6689C21.9961 11.6689 21.806 11.6524 21.6242 11.6358C21.4341 11.6193 21.2441 11.5945 21.0623 11.5532C20.8722 11.5201 20.6904 11.4705 20.5086 11.4127H20.5003C20.6821 11.3962 20.8639 11.3796 21.0457 11.3466C21.2358 11.3135 21.4176 11.2722 21.5994 11.2226C21.7812 11.173 21.963 11.1152 22.1366 11.0491C22.3184 10.983 22.4919 10.9003 22.6572 10.8177C22.8307 10.735 22.9878 10.6441 23.153 10.545C23.3101 10.4375 23.4671 10.3301 23.6158 10.2144C23.7646 10.0987 23.9051 9.97475 24.0373 9.84253C24.1778 9.71856 24.3017 9.57808 24.4257 9.43759C24.5497 9.28884 24.6654 9.14008 24.7728 8.99133C24.7893 8.96654 24.8059 8.93348 24.8224 8.90869C24.905 8.77646 24.9877 8.64424 25.062 8.51201C25.1529 8.34673 25.2356 8.18145 25.31 8.00791C25.3843 7.83436 25.4505 7.66082 25.5083 7.47901C25.5661 7.30546 25.6075 7.12365 25.6488 6.94185C25.6819 6.75177 25.7149 6.56996 25.7314 6.38815C25.7479 6.19808 25.7645 6.00801 25.7645 5.8262C25.7645 5.69397 25.7562 5.56175 25.748 5.42953C25.7315 5.23945 25.7067 5.05764 25.6819 4.87584C25.6488 4.68576 25.6075 4.50395 25.5579 4.32214C25.5001 4.1486 25.4422 3.96679 25.3761 3.79325C25.31 3.6197 25.2274 3.44615 25.1447 3.28087C25.0538 3.11559 24.9629 2.95031 24.8637 2.7933C24.7563 2.63628 24.6489 2.48753 24.5332 2.33877C24.4092 2.19828 24.2852 2.05779 24.153 1.91731C24.0869 1.85119 24.0125 1.77682 23.9382 1.71071C23.5663 1.42146 23.1779 1.14875 22.7895 0.900828C22.7316 0.867759 22.682 0.842978 22.6242 0.818185C22.3515 0.644642 22.0953 0.553689 21.8391 0.471051Z" fill="white"/>
</g>
<defs>
<clipPath id="clip0_172_10">
<rect width="33" height="32" fill="white"/>
</clipPath>
</defs>
</svg>
