<svg width="32" height="28" viewBox="0 0 32 28" fill="none" xmlns="http://www.w3.org/2000/svg">
<path d="M17.9935 16.3238H14.0062L13.6758 15.9934V12.0062L14.0062 11.6758H17.9935L18.3239 12.0062V15.9934L17.9935 16.3238Z" fill="white"/>
<path d="M9.69577 22.3326H9.35701L7.66602 20.6416V20.3055L10.2511 17.7178L12.042 17.7205L12.2808 17.9566V19.7475L9.69577 22.3326Z" fill="white"/>
<path d="M7.66602 7.69675V7.35799L9.35701 5.66699H9.69577L12.2808 8.2521V10.0402L12.042 10.2819H10.2511L7.66602 7.69675Z" fill="white"/>
<path d="M10.046 15.4382H0.205471L0 15.2327V12.767L0.205471 12.5615H10.046L10.2514 12.767V15.2327L10.046 15.4382Z" fill="white"/>
<path d="M31.7939 15.4382H21.9536L21.748 15.2327V12.767L21.9536 12.5615H31.7939L31.9994 12.767V15.2327L31.7939 15.4382Z" fill="white"/>
<path d="M14.5625 8.04673V0.666403L14.768 0.460938H17.2338L17.4391 0.666403V8.04673L17.2338 8.25223H14.768L14.5625 8.04673Z" fill="white"/>
<path d="M14.5625 27.3334V19.9531L14.768 19.7476H17.2338L17.4391 19.9531V27.3334L17.2338 27.5389H14.768L14.5625 27.3334Z" fill="white"/>
</svg>
