<svg width="150" height="30" viewBox="0 0 150 30" fill="none" xmlns="http://www.w3.org/2000/svg">
<g clip-path="url(#clip0_102_763)">
<path d="M99.4629 0.0125732H125.524V4.8228H115.186V30.1287H110.016V4.8228H99.4629V0.0125732Z" fill="black"/>
<path d="M56.6019 0.0125732V4.8228H35.7121V12.561H52.5117V17.3712H35.7121V25.3185H56.6019V30.1287H30.5429V4.8228H30.5408V0.0125732H56.6019Z" fill="black"/>
<path d="M69.6152 0.025116H62.8503L87.0805 30.1413H93.865L81.7484 15.0936L93.8457 0.0480927L87.0805 0.0585471L78.3615 10.8872L69.6152 0.025116Z" fill="black"/>
<path d="M76.557 21.5372L73.1693 17.3251L62.8311 30.1643H69.6152L76.557 21.5372Z" fill="black"/>
<path fill-rule="evenodd" clip-rule="evenodd" d="M30.7242 30.1287L6.46143 0H0V30.1162H5.16915V6.43732L24.2304 30.1287H30.7242Z" fill="black"/>
<path d="M126.686 29.9448C126.308 29.9448 125.986 29.8136 125.716 29.5513C125.446 29.2891 125.313 28.9715 125.316 28.5953C125.313 28.2295 125.446 27.9154 125.716 27.6531C125.986 27.3908 126.308 27.2596 126.686 27.2596C127.05 27.2596 127.369 27.3908 127.639 27.6531C127.912 27.9154 128.048 28.2295 128.052 28.5953C128.048 28.8438 127.985 29.0716 127.859 29.2752C127.73 29.4823 127.565 29.6445 127.358 29.7619C127.155 29.8827 126.931 29.9448 126.686 29.9448Z" fill="black"/>
<path d="M135.509 17.2577H137.8V26.0827C137.796 26.8938 137.621 27.5875 137.278 28.1708C136.931 28.7541 136.451 29.1992 135.835 29.5133C135.222 29.8239 134.504 29.9827 133.688 29.9827C132.942 29.9827 132.273 29.8481 131.677 29.5858C131.082 29.3235 130.609 28.9301 130.262 28.4124C129.912 27.8947 129.74 27.2493 129.74 26.4762H132.035C132.038 26.8144 132.115 27.1078 132.262 27.3528C132.409 27.5979 132.612 27.7842 132.872 27.9154C133.134 28.0465 133.436 28.1121 133.775 28.1121C134.143 28.1121 134.458 28.0362 134.714 27.8808C134.969 27.729 135.166 27.5012 135.302 27.1975C135.435 26.8973 135.506 26.5245 135.509 26.0827V17.2577Z" fill="black"/>
<path d="M147.224 20.7091C147.169 20.1741 146.923 19.7565 146.496 19.4597C146.065 19.1594 145.508 19.011 144.825 19.011C144.345 19.011 143.932 19.0835 143.589 19.225C143.246 19.37 142.98 19.5632 142.797 19.8083C142.615 20.0533 142.524 20.3329 142.517 20.647C142.517 20.9093 142.58 21.137 142.703 21.3269C142.825 21.5201 142.99 21.6823 143.204 21.8135C143.414 21.9481 143.648 22.0585 143.904 22.1483C144.163 22.238 144.423 22.3139 144.682 22.3761L145.876 22.6694C146.356 22.7799 146.822 22.9283 147.267 23.1181C147.711 23.3045 148.114 23.5426 148.468 23.8291C148.822 24.1155 149.102 24.4606 149.308 24.8645C149.515 25.2683 149.62 25.7411 149.62 26.2864C149.62 27.0215 149.431 27.6669 149.049 28.226C148.667 28.7817 148.118 29.2166 147.396 29.5306C146.678 29.8413 145.809 30 144.787 30C143.799 30 142.937 29.8482 142.212 29.5445C141.484 29.2442 140.916 28.8024 140.507 28.2226C140.097 27.6428 139.876 26.9352 139.845 26.1035H142.114C142.146 26.5383 142.286 26.9007 142.524 27.1941C142.766 27.484 143.081 27.698 143.466 27.8429C143.855 27.9844 144.289 28.0569 144.769 28.0569C145.27 28.0569 145.711 27.981 146.093 27.8326C146.471 27.6842 146.769 27.4771 146.983 27.2079C147.2 26.9421 147.309 26.6281 147.312 26.2692C147.309 25.9413 147.21 25.6686 147.021 25.4546C146.829 25.2406 146.562 25.0612 146.223 24.9162C145.88 24.7713 145.48 24.6401 145.025 24.5262L143.575 24.1604C142.528 23.8946 141.698 23.4909 141.091 22.949C140.482 22.4071 140.181 21.6893 140.181 20.7885C140.181 20.0499 140.384 19.4011 140.794 18.8454C141.2 18.2897 141.757 17.8583 142.461 17.5511C143.169 17.2405 143.967 17.0886 144.857 17.0886C145.76 17.0886 146.552 17.2405 147.235 17.5511C147.918 17.8583 148.454 18.2863 148.842 18.8315C149.231 19.3769 149.434 20.0015 149.445 20.7091H147.224Z" fill="black"/>
</g>
<defs>
<clipPath id="clip0_102_763">
<rect width="149.62" height="30" fill="white"/>
</clipPath>
</defs>
</svg>
