<svg width="31" height="36" viewBox="0 0 31 36" fill="none" xmlns="http://www.w3.org/2000/svg">
<path d="M15.7387 2.20624C15.2652 1.93842 14.7031 1.93842 14.2298 2.20624L1.77476 9.44002C1.30143 9.708 1.03516 10.2139 1.03516 10.7499V25.247C1.03516 25.7829 1.33097 26.2889 1.77476 26.5569L14.2298 33.7907C14.7031 34.0585 15.2652 34.0585 15.7387 33.7907L28.1936 26.5569C28.6671 26.2889 28.9332 25.7829 28.9332 25.247V10.7499C28.9332 10.2139 28.6374 9.708 28.1936 9.44002L15.7387 2.20624Z" fill="white"/>
<path d="M15.9586 1.77349L15.946 1.76625L15.9331 1.75974C15.7928 1.68911 15.6095 1.61382 15.4455 1.57266L15.0805 1.48104L14.8914 1.80648L0.868425 25.9487L0.696977 26.2438L0.909436 26.511C1.07205 26.7155 1.26881 26.8716 1.45619 26.9849L1.45614 26.985L1.46466 26.9899L13.9761 34.2221C13.9766 34.2223 13.9771 34.2226 13.9776 34.2229C14.4427 34.4953 15.0009 34.5812 15.5307 34.4172L15.7251 34.357L15.8222 34.1782L28.9873 9.94683L29.14 9.66576L28.9488 9.4093C28.8096 9.22257 28.6321 9.08888 28.4613 9.00071L15.9586 1.77349Z" fill="white" stroke="#272626"/>
<path d="M28.4753 26.9885L28.4771 26.9875C28.9483 26.7108 29.2896 26.2474 29.4417 25.7498L29.5054 25.5411L29.3958 25.3525L15.6982 1.77592L15.5802 1.57285L15.3486 1.53399C14.9193 1.46198 14.4014 1.48791 13.9413 1.77824L1.52461 8.97708L1.10331 9.22133L1.33637 9.64892L14.7381 34.2377L14.9086 34.5506L15.26 34.4915C15.4756 34.4552 15.7326 34.3828 15.9639 34.2666L15.9775 34.2597L15.9908 34.252L28.4753 26.9885Z" fill="white" stroke="#272626"/>
</svg>
