<svg width="78" height="30" viewBox="0 0 78 30" fill="none" xmlns="http://www.w3.org/2000/svg">
<g clip-path="url(#clip0_102_789)">
<path d="M0.00390625 0H77.1468V25.7143H38.5753V30H21.4325V25.7143H0.00390625V0ZM4.28962 21.4286H12.8611V8.57143H17.1468V21.4286H21.4325V4.28571H4.28962V21.4286ZM25.7182 4.28571V25.7143H34.2896V21.4286H42.8611V4.28571H25.7182ZM34.2896 8.57143H38.5753V17.1429H34.2896V8.57143ZM47.1468 4.28571V21.4286H55.7182V8.57143H60.0039V21.4286H64.2896V8.57143H68.5753V21.4286H72.8611V4.28571H47.1468Z" fill="#CB3837"/>
<path d="M4.28955 21.4286H12.861V8.57142H17.1467V21.4286H21.4324V4.28571H4.28955V21.4286Z" fill="white"/>
<path d="M25.7183 4.28571V25.7143H34.2897V21.4286H42.8611V4.28571H25.7183ZM38.5754 17.1428H34.2897V8.57142H38.5754V17.1428Z" fill="white"/>
<path d="M47.1467 4.28571V21.4286H55.7182V8.57142H60.0039V21.4286H64.2896V8.57142H68.5753V21.4286H72.861V4.28571H47.1467Z" fill="white"/>
</g>
<defs>
<clipPath id="clip0_102_789">
<rect width="77.1429" height="30" fill="white" transform="translate(0.00390625)"/>
</clipPath>
</defs>
</svg>
