<svg width="32" height="34" viewBox="0 0 32 34" fill="none" xmlns="http://www.w3.org/2000/svg">
<path d="M24.3572 24.9271C24.5787 23.0825 24.5123 22.812 25.8862 23.1108L26.235 23.1415C27.2914 23.1895 28.6734 22.9715 29.4852 22.5944C31.233 21.7834 32.2693 20.4295 30.546 20.7852C26.615 21.5962 26.3447 20.2651 26.3447 20.2651C30.4956 14.1062 32.2308 6.28813 30.7331 4.37443C26.6479 -0.845486 19.5766 1.62289 19.4582 1.68698L19.4206 1.69393C18.6439 1.53278 17.7746 1.43649 16.7982 1.4207C15.0193 1.39147 13.6694 1.88706 12.6455 2.66369C12.6455 2.66369 0.0306481 -2.53348 0.617516 9.19965C0.74233 11.6956 4.19523 28.0863 8.31346 23.1355C9.81865 21.3252 11.2733 19.7945 11.2733 19.7945C11.9956 20.2744 12.8604 20.5192 13.7674 20.4313L13.8375 20.3715C13.8155 20.5962 13.8252 20.8161 13.8655 21.0764C12.8048 22.2617 13.1165 22.4699 10.9954 22.9064C8.84953 23.3487 10.1103 24.1361 10.9331 24.3419C11.931 24.5915 14.2395 24.945 15.7997 22.7613L15.7376 23.0105C16.1538 23.3434 16.1256 25.4035 16.1846 26.8754C16.2437 28.3474 16.3423 29.721 16.6423 30.5308C16.9423 31.3405 17.2964 33.4265 20.084 32.829C22.4137 32.3298 24.1949 31.6113 24.3572 24.9271Z" fill="white"/>
<path d="M15.9697 21.9775C15.8614 25.8475 15.9969 29.7444 16.3755 30.6915C16.7544 31.6385 17.5653 33.4807 20.3536 32.8833C22.6831 32.3839 23.5307 31.4174 23.8985 29.2842C24.1694 27.7147 24.6916 23.3558 24.7586 22.4627" stroke="#272626" stroke-linecap="round" stroke-linejoin="round"/>
<path d="M12.627 2.57702C12.627 2.57702 0.0032908 -2.58248 0.590159 9.15058C0.714972 11.6467 4.16803 28.0379 8.28634 23.0869C9.7913 21.2764 11.1524 19.8564 11.1524 19.8564" stroke="#272626" stroke-linecap="round" stroke-linejoin="round"/>
<path d="M19.4461 1.63545C19.0091 1.77246 26.4682 -1.0913 30.7073 4.32532C32.2046 6.23888 30.4694 14.0571 26.3186 20.2166" stroke="#272626" stroke-linecap="round" stroke-linejoin="round"/>
<path d="M26.318 20.2166C26.318 20.2166 26.5885 21.5481 30.5199 20.7366C32.2424 20.3808 31.2058 21.7349 29.4588 22.5463C28.025 23.2117 24.8106 23.3822 24.7581 22.4627C24.6229 20.0903 26.4498 20.8111 26.318 20.2166ZM26.318 20.2166C26.1988 19.6813 25.3818 19.1558 24.8414 17.8455C24.3696 16.7019 18.3704 7.93163 26.5051 9.23417C26.8031 9.1725 24.3835 1.49664 16.7706 1.37183C9.15944 1.24701 9.40915 10.7319 9.40915 10.7319" stroke="#272626" stroke-linecap="round" stroke-linejoin="bevel"/>
<path d="M13.8379 21.0277C12.7768 22.213 13.0888 22.4211 10.9678 22.8578C8.82172 23.3002 10.0826 24.0874 10.9055 24.2931C11.9034 24.5428 14.212 24.8963 15.7719 22.7121C16.2469 22.0471 15.7691 20.986 15.1166 20.7155C14.8013 20.5849 14.3797 20.4212 13.8379 21.0277Z" stroke="#272626" stroke-linecap="round" stroke-linejoin="round"/>
<path d="M13.7697 21.0071C13.6628 20.3102 13.9987 19.4809 14.3587 18.5107C14.8997 17.055 16.1479 15.599 15.1494 10.9813C14.4051 7.54018 9.41309 10.2651 9.40996 10.7317C9.40691 11.1982 9.63575 13.0967 9.32657 15.3076C8.92313 18.1925 11.1623 20.6324 13.7407 20.3828" stroke="#272626" stroke-linecap="round" stroke-linejoin="round"/>
<path d="M12.5812 10.662C12.5587 10.8214 12.873 11.2466 13.2827 11.3034C13.6918 11.3605 14.0419 11.0282 14.0641 10.869C14.0863 10.7096 13.7725 10.5341 13.3625 10.477C12.9532 10.4199 12.6029 10.503 12.5813 10.662H12.5812Z" fill="#272626" stroke="#272626"/>
<path d="M25.0412 10.3368C25.0634 10.4961 24.7495 10.9214 24.3396 10.9782C23.9303 11.0353 23.5801 10.7029 23.5577 10.5437C23.536 10.3844 23.85 10.2088 24.2595 10.1518C24.6689 10.0947 25.019 10.1778 25.0412 10.3369V10.3368Z" fill="#272626" stroke="#272626"/>
<path d="M26.5046 9.23389C26.572 10.4839 26.2353 11.3353 26.1929 12.666C26.13 14.6002 27.115 16.814 25.6309 19.0306" stroke="#272626" stroke-linecap="round" stroke-linejoin="round"/>
</svg>
