<svg width="28" height="32" viewBox="0 0 28 32" fill="none" xmlns="http://www.w3.org/2000/svg">
<path d="M23.9045 6.09521H25.4283C25.855 6.09521 26.1902 6.43045 26.1902 6.85712C26.1902 7.28379 25.855 7.61902 25.4283 7.61902H23.9045C23.4778 7.61902 23.1426 7.28379 23.1426 6.85712C23.1426 6.43045 23.4778 6.09521 23.9045 6.09521Z" fill="white"/>
<path d="M1.04706 30.4761H8.66611C9.09277 30.4761 9.42801 30.8113 9.42801 31.238C9.42801 31.6646 9.09277 31.9999 8.66611 31.9999H1.04706C0.620394 31.9999 0.285156 31.6646 0.285156 31.238C0.285156 30.8113 0.620394 30.4761 1.04706 30.4761Z" fill="white"/>
<path d="M19.3322 18.2856H23.9036C24.3303 18.2856 24.6655 18.6209 24.6655 19.0475C24.6655 19.4742 24.3303 19.8095 23.9036 19.8095H19.3322C18.9056 19.8095 18.5703 19.4742 18.5703 19.0475C18.5703 18.6209 18.9056 18.2856 19.3322 18.2856Z" fill="white"/>
<path d="M10.1896 18.2856H16.2849C16.7115 18.2856 17.0468 18.6209 17.0468 19.0475C17.0468 19.4742 16.7115 19.8095 16.2849 19.8095H10.1896C9.76297 19.8095 9.42773 19.4742 9.42773 19.0475C9.42773 18.6209 9.76297 18.2856 10.1896 18.2856Z" fill="white"/>
<path d="M1.04706 18.2856H7.1423C7.56896 18.2856 7.9042 18.6209 7.9042 19.0475C7.9042 19.4742 7.56896 19.8095 7.1423 19.8095H1.04706C0.620394 19.8095 0.285156 19.4742 0.285156 19.0475C0.285156 18.6209 0.620394 18.2856 1.04706 18.2856Z" fill="white"/>
<path d="M1.04706 24.3809H8.66611C9.09277 24.3809 9.42801 24.7161 9.42801 25.1428C9.42801 25.5694 9.09277 25.9047 8.66611 25.9047H1.04706C0.620394 25.9047 0.285156 25.5694 0.285156 25.1428C0.285156 24.7161 0.620394 24.3809 1.04706 24.3809Z" fill="white"/>
<path d="M1.04706 12.1904H8.66611C9.09277 12.1904 9.42801 12.5257 9.42801 12.9523C9.42801 13.379 9.09277 13.7142 8.66611 13.7142H1.04706C0.620394 13.7142 0.285156 13.379 0.285156 12.9523C0.285156 12.5257 0.620394 12.1904 1.04706 12.1904Z" fill="white"/>
<path d="M8.6662 3.04736H23.9043C24.331 3.04736 24.6662 3.3826 24.6662 3.80927C24.6662 4.23593 24.331 4.57117 23.9043 4.57117H8.6662C8.23953 4.57117 7.9043 4.23593 7.9043 3.80927C7.9043 3.3826 8.23953 3.04736 8.6662 3.04736Z" fill="white"/>
<path d="M1.04706 3.04736H5.61849C6.04515 3.04736 6.38039 3.3826 6.38039 3.80927C6.38039 4.23593 6.04515 4.57117 5.61849 4.57117H1.04706C0.620394 4.57117 0.285156 4.23593 0.285156 3.80927C0.285156 3.3826 0.620394 3.04736 1.04706 3.04736Z" fill="white"/>
<path d="M7.14276 27.4287H8.66657C9.09324 27.4287 9.42848 27.7639 9.42848 28.1906C9.42848 28.6173 9.09324 28.9525 8.66657 28.9525H7.14276C6.7161 28.9525 6.38086 28.6173 6.38086 28.1906C6.38086 27.7639 6.7161 27.4287 7.14276 27.4287Z" fill="white"/>
<path d="M7.14276 9.14307H8.66657C9.09324 9.14307 9.42848 9.4783 9.42848 9.90497C9.42848 10.3316 9.09324 10.6669 8.66657 10.6669H7.14276C6.7161 10.6669 6.38086 10.3316 6.38086 9.90497C6.38086 9.4783 6.7161 9.14307 7.14276 9.14307Z" fill="white"/>
<path d="M1.04706 27.4287H4.09468C4.52135 27.4287 4.85658 27.7639 4.85658 28.1906C4.85658 28.6173 4.52135 28.9525 4.09468 28.9525H1.04706C0.620394 28.9525 0.285156 28.6173 0.285156 28.1906C0.285156 27.7639 0.620394 27.4287 1.04706 27.4287Z" fill="white"/>
<path d="M1.04706 9.14307H4.09468C4.52135 9.14307 4.85658 9.4783 4.85658 9.90497C4.85658 10.3316 4.52135 10.6669 4.09468 10.6669H1.04706C0.620394 10.6669 0.285156 10.3316 0.285156 9.90497C0.285156 9.4783 0.620394 9.14307 1.04706 9.14307Z" fill="white"/>
<path d="M13.2365 15.2383H25.427C25.8537 15.2383 26.1889 15.5735 26.1889 16.0002C26.1889 16.4269 25.8537 16.7621 25.427 16.7621H13.2365C12.8098 16.7621 12.4746 16.4269 12.4746 16.0002C12.4746 15.5735 12.8098 15.2383 13.2365 15.2383Z" fill="white"/>
<path d="M5.61737 15.2383H10.1888C10.6155 15.2383 10.9507 15.5735 10.9507 16.0002C10.9507 16.4269 10.6155 16.7621 10.1888 16.7621H5.61737C5.19071 16.7621 4.85547 16.4269 4.85547 16.0002C4.85547 15.5735 5.19071 15.2383 5.61737 15.2383Z" fill="white"/>
<path d="M1.04706 15.2383H2.57087C2.99754 15.2383 3.33277 15.5735 3.33277 16.0002C3.33277 16.4269 2.99754 16.7621 2.57087 16.7621H1.04706C0.620394 16.7621 0.285156 16.4269 0.285156 16.0002C0.285156 15.5735 0.620394 15.2383 1.04706 15.2383Z" fill="white"/>
<path d="M14.76 6.09521H20.8552C21.2819 6.09521 21.6171 6.43045 21.6171 6.85712C21.6171 7.28379 21.2819 7.61902 20.8552 7.61902H14.76C14.3333 7.61902 13.998 7.28379 13.998 6.85712C13.998 6.43045 14.3333 6.09521 14.76 6.09521Z" fill="white"/>
<path d="M1.04706 6.09521H11.7137C12.1404 6.09521 12.4756 6.43045 12.4756 6.85712C12.4756 7.28379 12.1404 7.61902 11.7137 7.61902H1.04706C0.620394 7.61902 0.285156 7.28379 0.285156 6.85712C0.285156 6.43045 0.620394 6.09521 1.04706 6.09521Z" fill="white"/>
<path d="M5.61737 21.3335H19.3317C19.7583 21.3335 20.0936 21.6687 20.0936 22.0954C20.0936 22.5221 19.7583 22.8573 19.3317 22.8573H5.61737C5.19071 22.8573 4.85547 22.5221 4.85547 22.0954C4.85547 21.6687 5.19071 21.3335 5.61737 21.3335Z" fill="white"/>
<path d="M1.04706 21.3335H2.57087C2.99754 21.3335 3.33277 21.6687 3.33277 22.0954C3.33277 22.5221 2.99754 22.8573 2.57087 22.8573H1.04706C0.620394 22.8573 0.285156 22.5221 0.285156 22.0954C0.285156 21.6687 0.620394 21.3335 1.04706 21.3335Z" fill="white"/>
<path d="M19.3322 9.14307H26.9513C27.3779 9.14307 27.7132 9.4783 27.7132 9.90497C27.7132 10.3316 27.3779 10.6669 26.9513 10.6669H19.3322C18.9056 10.6669 18.5703 10.3316 18.5703 9.90497C18.5703 9.4783 18.9056 9.14307 19.3322 9.14307Z" fill="white"/>
<path d="M19.3322 12.1904H26.9513C27.3779 12.1904 27.7132 12.5257 27.7132 12.9523C27.7132 13.379 27.3779 13.7142 26.9513 13.7142H19.3322C18.9056 13.7142 18.5703 13.379 18.5703 12.9523C18.5703 12.5257 18.9056 12.1904 19.3322 12.1904Z" fill="white"/>
<path d="M1.04706 0H19.3328C19.7594 0 20.0947 0.335238 20.0947 0.761905C20.0947 1.18857 19.7594 1.52381 19.3328 1.52381H1.04706C0.620394 1.52381 0.285156 1.18857 0.285156 0.761905C0.285156 0.335238 0.620394 0 1.04706 0Z" fill="white"/>
</svg>
