<svg width="31" height="30" viewBox="0 0 31 30" fill="none" xmlns="http://www.w3.org/2000/svg">
<path d="M23.7261 5.71429H22.2975C21.903 5.71429 21.5833 6.03409 21.5833 6.42858C21.5833 6.82307 21.903 7.14287 22.2975 7.14287H23.7261C24.1206 7.14287 24.4404 6.82307 24.4404 6.42858C24.4404 6.03409 24.1206 5.71429 23.7261 5.71429Z" fill="#56B3B4"/>
<path d="M8.01193 28.5714H0.869071C0.474582 28.5714 0.154785 28.8912 0.154785 29.2857C0.154785 29.6802 0.474582 30 0.869071 30H8.01193C8.40642 30 8.72621 29.6802 8.72621 29.2857C8.72621 28.8912 8.40642 28.5714 8.01193 28.5714Z" fill="#EA5E5E"/>
<path d="M22.2976 17.1429H18.0119C17.6174 17.1429 17.2976 17.4627 17.2976 17.8572C17.2976 18.2517 17.6174 18.5715 18.0119 18.5715H22.2976C22.6921 18.5715 23.0119 18.2517 23.0119 17.8572C23.0119 17.4627 22.6921 17.1429 22.2976 17.1429Z" fill="#BF85BF"/>
<path d="M15.1549 17.1429H9.4406C9.04611 17.1429 8.72632 17.4627 8.72632 17.8572C8.72632 18.2517 9.04611 18.5715 9.4406 18.5715H15.1549C15.5494 18.5715 15.8692 18.2517 15.8692 17.8572C15.8692 17.4627 15.5494 17.1429 15.1549 17.1429Z" fill="#EA5E5E"/>
<path d="M6.58336 17.1429H0.869071C0.474582 17.1429 0.154785 17.4627 0.154785 17.8572C0.154785 18.2517 0.474582 18.5715 0.869071 18.5715H6.58336C6.97785 18.5715 7.29764 18.2517 7.29764 17.8572C7.29764 17.4627 6.97785 17.1429 6.58336 17.1429Z" fill="#56B3B4"/>
<path d="M8.01193 22.8571H0.869071C0.474582 22.8571 0.154785 23.1769 0.154785 23.5714C0.154785 23.9659 0.474582 24.2857 0.869071 24.2857H8.01193C8.40642 24.2857 8.72621 23.9659 8.72621 23.5714C8.72621 23.1769 8.40642 22.8571 8.01193 22.8571Z" fill="#BF85BF"/>
<path d="M8.01193 11.4286H0.869071C0.474582 11.4286 0.154785 11.7484 0.154785 12.1429C0.154785 12.5374 0.474582 12.8572 0.869071 12.8572H8.01193C8.40642 12.8572 8.72621 12.5374 8.72621 12.1429C8.72621 11.7484 8.40642 11.4286 8.01193 11.4286Z" fill="#BF85BF"/>
<path d="M22.2976 2.85712H8.01189C7.6174 2.85712 7.29761 3.17691 7.29761 3.5714C7.29761 3.96589 7.6174 4.28569 8.01189 4.28569H22.2976C22.6921 4.28569 23.0119 3.96589 23.0119 3.5714C23.0119 3.17691 22.6921 2.85712 22.2976 2.85712Z" fill="#F7BA3E"/>
<path d="M5.15479 2.85712H0.869071C0.474582 2.85712 0.154785 3.17691 0.154785 3.5714C0.154785 3.96589 0.474582 4.28569 0.869071 4.28569H5.15479C5.54927 4.28569 5.86907 3.96589 5.86907 3.5714C5.86907 3.17691 5.54927 2.85712 5.15479 2.85712Z" fill="#EA5E5E"/>
<path d="M8.012 25.7143H6.58343C6.18894 25.7143 5.86914 26.0341 5.86914 26.4286C5.86914 26.8231 6.18894 27.1429 6.58343 27.1429H8.012C8.40649 27.1429 8.72628 26.8231 8.72628 26.4286C8.72628 26.0341 8.40649 25.7143 8.012 25.7143Z" fill="#F7BA3E"/>
<path d="M8.012 8.57141H6.58343C6.18894 8.57141 5.86914 8.89121 5.86914 9.2857C5.86914 9.68019 6.18894 9.99998 6.58343 9.99998H8.012C8.40649 9.99998 8.72628 9.68019 8.72628 9.2857C8.72628 8.89121 8.40649 8.57141 8.012 8.57141Z" fill="#56B3B4"/>
<path d="M3.72621 25.7143H0.869071C0.474582 25.7143 0.154785 26.0341 0.154785 26.4286C0.154785 26.8231 0.474582 27.1429 0.869071 27.1429H3.72621C4.1207 27.1429 4.4405 26.8231 4.4405 26.4286C4.4405 26.0341 4.1207 25.7143 3.72621 25.7143Z" fill="#56B3B4"/>
<path d="M3.72621 8.57141H0.869071C0.474582 8.57141 0.154785 8.89121 0.154785 9.2857C0.154785 9.68019 0.474582 9.99998 0.869071 9.99998H3.72621C4.1207 9.99998 4.4405 9.68019 4.4405 9.2857C4.4405 8.89121 4.1207 8.57141 3.72621 8.57141Z" fill="#F7BA3E"/>
<path opacity="0.5" d="M20.8692 25.7143H19.4406C19.0461 25.7143 18.7263 26.0341 18.7263 26.4286C18.7263 26.8231 19.0461 27.1429 19.4406 27.1429H20.8692C21.2637 27.1429 21.5835 26.8231 21.5835 26.4286C21.5835 26.0341 21.2637 25.7143 20.8692 25.7143Z" fill="#4D616E"/>
<path opacity="0.5" d="M16.5834 25.7143H10.8691C10.4746 25.7143 10.1548 26.0341 10.1548 26.4286C10.1548 26.8231 10.4746 27.1429 10.8691 27.1429H16.5834C16.9778 27.1429 17.2976 26.8231 17.2976 26.4286C17.2976 26.0341 16.9778 25.7143 16.5834 25.7143Z" fill="#4D616E"/>
<path opacity="0.5" d="M29.4405 25.7143H23.7262C23.3318 25.7143 23.012 26.0341 23.012 26.4286C23.012 26.8231 23.3318 27.1429 23.7262 27.1429H29.4405C29.835 27.1429 30.1548 26.8231 30.1548 26.4286C30.1548 26.0341 29.835 25.7143 29.4405 25.7143Z" fill="#4D616E"/>
<path d="M23.7261 14.2857H12.2975C11.903 14.2857 11.5833 14.6055 11.5833 15C11.5833 15.3945 11.903 15.7143 12.2975 15.7143H23.7261C24.1206 15.7143 24.4404 15.3945 24.4404 15C24.4404 14.6055 24.1206 14.2857 23.7261 14.2857Z" fill="#56B3B4"/>
<path d="M9.44043 14.2857H5.15472C4.76023 14.2857 4.44043 14.6055 4.44043 15C4.44043 15.3945 4.76023 15.7143 5.15472 15.7143H9.44043C9.83492 15.7143 10.1547 15.3945 10.1547 15C10.1547 14.6055 9.83492 14.2857 9.44043 14.2857Z" fill="#F7BA3E"/>
<path d="M2.29764 14.2857H0.869071C0.474582 14.2857 0.154785 14.6055 0.154785 15C0.154785 15.3945 0.474582 15.7143 0.869071 15.7143H2.29764C2.69213 15.7143 3.01193 15.3945 3.01193 15C3.01193 14.6055 2.69213 14.2857 2.29764 14.2857Z" fill="#EA5E5E"/>
<path d="M19.4405 5.71429H13.7262C13.3318 5.71429 13.012 6.03409 13.012 6.42858C13.012 6.82307 13.3318 7.14287 13.7262 7.14287H19.4405C19.835 7.14287 20.1548 6.82307 20.1548 6.42858C20.1548 6.03409 19.835 5.71429 19.4405 5.71429Z" fill="#BF85BF"/>
<path d="M10.8691 5.71429H0.869071C0.474582 5.71429 0.154785 6.03409 0.154785 6.42858C0.154785 6.82307 0.474582 7.14287 0.869071 7.14287H10.8691C11.2636 7.14287 11.5834 6.82307 11.5834 6.42858C11.5834 6.03409 11.2636 5.71429 10.8691 5.71429Z" fill="#56B3B4"/>
<path d="M18.0119 20H5.15472C4.76023 20 4.44043 20.3198 4.44043 20.7143C4.44043 21.1088 4.76023 21.4286 5.15472 21.4286H18.0119C18.4063 21.4286 18.7261 21.1088 18.7261 20.7143C18.7261 20.3198 18.4063 20 18.0119 20Z" fill="#F7BA3E"/>
<path d="M2.29764 20H0.869071C0.474582 20 0.154785 20.3198 0.154785 20.7143C0.154785 21.1088 0.474582 21.4286 0.869071 21.4286H2.29764C2.69213 21.4286 3.01193 21.1088 3.01193 20.7143C3.01193 20.3198 2.69213 20 2.29764 20Z" fill="#BF85BF"/>
<path d="M25.1547 8.57141H18.0119C17.6174 8.57141 17.2976 8.89121 17.2976 9.2857C17.2976 9.68019 17.6174 9.99998 18.0119 9.99998H25.1547C25.5492 9.99998 25.869 9.68019 25.869 9.2857C25.869 8.89121 25.5492 8.57141 25.1547 8.57141Z" fill="#EA5E5E"/>
<path d="M25.1547 11.4286H18.0119C17.6174 11.4286 17.2976 11.7484 17.2976 12.1429C17.2976 12.5374 17.6174 12.8572 18.0119 12.8572H25.1547C25.5492 12.8572 25.869 12.5374 25.869 12.1429C25.869 11.7484 25.5492 11.4286 25.1547 11.4286Z" fill="#F7BA3E"/>
<path d="M18.0119 0H0.869071C0.474582 0 0.154785 0.319797 0.154785 0.714286C0.154785 1.10877 0.474582 1.42857 0.869071 1.42857H18.0119C18.4064 1.42857 18.7262 1.10877 18.7262 0.714286C18.7262 0.319797 18.4064 0 18.0119 0Z" fill="#56B3B4"/>
<path opacity="0.5" d="M29.4405 0H20.8691C20.4746 0 20.1548 0.319797 20.1548 0.714286C20.1548 1.10877 20.4746 1.42857 20.8691 1.42857H29.4405C29.835 1.42857 30.1548 1.10877 30.1548 0.714286C30.1548 0.319797 29.835 0 29.4405 0Z" fill="#4D616E"/>
<path opacity="0.5" d="M23.7262 20H20.8691C20.4746 20 20.1548 20.3198 20.1548 20.7143C20.1548 21.1088 20.4746 21.4286 20.8691 21.4286H23.7262C24.1207 21.4286 24.4405 21.1088 24.4405 20.7143C24.4405 20.3198 24.1207 20 23.7262 20Z" fill="#4D616E"/>
<path opacity="0.5" d="M29.4406 20H26.5834C26.1889 20 25.8691 20.3198 25.8691 20.7143C25.8691 21.1088 26.1889 21.4286 26.5834 21.4286H29.4406C29.8351 21.4286 30.1549 21.1088 30.1549 20.7143C30.1549 20.3198 29.8351 20 29.4406 20Z" fill="#4D616E"/>
<path opacity="0.5" d="M29.4404 17.1429H25.1547C24.7602 17.1429 24.4404 17.4627 24.4404 17.8572C24.4404 18.2517 24.7602 18.5715 25.1547 18.5715H29.4404C29.8349 18.5715 30.1547 18.2517 30.1547 17.8572C30.1547 17.4627 29.8349 17.1429 29.4404 17.1429Z" fill="#4D616E"/>
<path opacity="0.5" d="M29.4404 2.85712H25.1547C24.7602 2.85712 24.4404 3.17691 24.4404 3.5714C24.4404 3.96589 24.7602 4.28569 25.1547 4.28569H29.4404C29.8349 4.28569 30.1547 3.96589 30.1547 3.5714C30.1547 3.17691 29.8349 2.85712 29.4404 2.85712Z" fill="#4D616E"/>
<path opacity="0.5" d="M29.4406 14.2857H26.5834C26.1889 14.2857 25.8691 14.6055 25.8691 15C25.8691 15.3945 26.1889 15.7143 26.5834 15.7143H29.4406C29.8351 15.7143 30.1549 15.3945 30.1549 15C30.1549 14.6055 29.8351 14.2857 29.4406 14.2857Z" fill="#4D616E"/>
<path opacity="0.5" d="M29.4406 5.71429H26.5834C26.1889 5.71429 25.8691 6.03409 25.8691 6.42858C25.8691 6.82307 26.1889 7.14287 26.5834 7.14287H29.4406C29.8351 7.14287 30.1549 6.82307 30.1549 6.42858C30.1549 6.03409 29.8351 5.71429 29.4406 5.71429Z" fill="#4D616E"/>
<path opacity="0.5" d="M29.4405 8.57141H28.0119C27.6174 8.57141 27.2976 8.89121 27.2976 9.2857C27.2976 9.68019 27.6174 9.99998 28.0119 9.99998H29.4405C29.835 9.99998 30.1548 9.68019 30.1548 9.2857C30.1548 8.89121 29.835 8.57141 29.4405 8.57141Z" fill="#4D616E"/>
<path opacity="0.5" d="M29.4405 11.4286H28.0119C27.6174 11.4286 27.2976 11.7484 27.2976 12.1429C27.2976 12.5374 27.6174 12.8572 28.0119 12.8572H29.4405C29.835 12.8572 30.1548 12.5374 30.1548 12.1429C30.1548 11.7484 29.835 11.4286 29.4405 11.4286Z" fill="#4D616E"/>
<path opacity="0.5" d="M29.4406 22.8571H16.5834C16.1889 22.8571 15.8691 23.1769 15.8691 23.5714C15.8691 23.9659 16.1889 24.2857 16.5834 24.2857H29.4406C29.8351 24.2857 30.1549 23.9659 30.1549 23.5714C30.1549 23.1769 29.8351 22.8571 29.4406 22.8571Z" fill="#4D616E"/>
<path opacity="0.5" d="M13.7262 22.8571H10.8691C10.4746 22.8571 10.1548 23.1769 10.1548 23.5714C10.1548 23.9659 10.4746 24.2857 10.8691 24.2857H13.7262C14.1207 24.2857 14.4405 23.9659 14.4405 23.5714C14.4405 23.1769 14.1207 22.8571 13.7262 22.8571Z" fill="#4D616E"/>
<path opacity="0.5" d="M29.4404 28.5714H22.2975C21.903 28.5714 21.5833 28.8912 21.5833 29.2857C21.5833 29.6802 21.903 30 22.2975 30H29.4404C29.8349 30 30.1547 29.6802 30.1547 29.2857C30.1547 28.8912 29.8349 28.5714 29.4404 28.5714Z" fill="#4D616E"/>
<path opacity="0.5" d="M19.4405 28.5714H10.8691C10.4746 28.5714 10.1548 28.8912 10.1548 29.2857C10.1548 29.6802 10.4746 30 10.8691 30H19.4405C19.835 30 20.1548 29.6802 20.1548 29.2857C20.1548 28.8912 19.835 28.5714 19.4405 28.5714Z" fill="#4D616E"/>
<path opacity="0.5" d="M15.1548 8.57141H10.8691C10.4746 8.57141 10.1548 8.89121 10.1548 9.2857C10.1548 9.68019 10.4746 9.99998 10.8691 9.99998H15.1548C15.5493 9.99998 15.8691 9.68019 15.8691 9.2857C15.8691 8.89121 15.5493 8.57141 15.1548 8.57141Z" fill="#4D616E"/>
<path opacity="0.5" d="M15.1548 11.4286H10.8691C10.4746 11.4286 10.1548 11.7484 10.1548 12.1429C10.1548 12.5374 10.4746 12.8572 10.8691 12.8572H15.1548C15.5493 12.8572 15.8691 12.5374 15.8691 12.1429C15.8691 11.7484 15.5493 11.4286 15.1548 11.4286Z" fill="#4D616E"/>
</svg>
