<svg width="36" height="32" viewBox="0 0 36 32" fill="none" xmlns="http://www.w3.org/2000/svg">
<path d="M17.8553 19.1517C19.606 19.1517 21.0251 17.7403 21.0251 16.0001C21.0251 14.2595 19.606 12.8486 17.8553 12.8486C16.1047 12.8486 14.6855 14.2595 14.6855 16.0001C14.6855 17.7403 16.1047 19.1517 17.8553 19.1517Z" fill="#139FCD"/>
<path d="M17.8553 22.4567C27.2487 22.4567 34.8636 19.5662 34.8636 16.0002C34.8636 12.4342 27.2487 9.54324 17.8553 9.54324C8.46187 9.54324 0.846924 12.4342 0.846924 16.0002C0.846924 19.5662 8.46187 22.4567 17.8553 22.4567Z" stroke="#139FCD"/>
<path d="M12.2316 19.2284C16.9283 27.3167 23.2535 32.4284 26.3595 30.6451C29.4656 28.8624 28.1763 20.8598 23.4796 12.7715C18.7829 4.68319 12.4572 -0.428225 9.35117 1.35482C6.24511 3.13759 7.53487 11.1401 12.2316 19.2284Z" stroke="#139FCD"/>
<path d="M12.2316 12.7715C7.53487 20.8598 6.24511 28.8624 9.35117 30.6451C12.4572 32.4284 18.7829 27.3167 23.4796 19.2284C28.1763 11.1401 29.4656 3.13759 26.3595 1.35482C23.2535 -0.428225 16.9283 4.68319 12.2316 12.7715Z" stroke="#139FCD"/>
</svg>
