<svg width="32" height="29" viewBox="0 0 32 29" fill="none" xmlns="http://www.w3.org/2000/svg">
<g clip-path="url(#clip0_157_280)">
<path d="M9.72196 18.0666C13.9298 25.3549 19.9998 29.7282 23.2795 27.8346C26.5592 25.9411 25.8068 18.4977 21.5989 11.2095C17.391 3.92117 11.3211 -0.452118 8.04137 1.44143C4.76165 3.33498 5.51407 10.7784 9.72196 18.0666Z" stroke="white"/>
<path d="M9.72195 11.2095C5.51407 18.4977 4.76165 25.9411 8.04137 27.8346C11.3211 29.7282 17.391 25.3549 21.5989 18.0666C25.8068 10.7783 26.5592 3.33498 23.2795 1.44143C19.9998 -0.452117 13.9298 3.92117 9.72195 11.2095Z" stroke="white"/>
<path d="M16.2381 21.7143C24.6539 21.7143 31.4762 18.6442 31.4762 14.8571C31.4762 11.0701 24.6539 8 16.2381 8C7.82233 8 1 11.0701 1 14.8571C1 18.6442 7.82233 21.7143 16.2381 21.7143Z" stroke="white"/>
<path d="M16.0476 18.0952C17.7308 18.0952 19.0952 16.7308 19.0952 15.0476C19.0952 13.3645 17.7308 12 16.0476 12C14.3645 12 13 13.3645 13 15.0476C13 16.7308 14.3645 18.0952 16.0476 18.0952Z" fill="white"/>
</g>
<defs>
<clipPath id="clip0_157_280">
<rect width="32" height="28.8" fill="white"/>
</clipPath>
</defs>
</svg>
