<svg width="56" height="30" viewBox="0 0 56 30" fill="none" xmlns="http://www.w3.org/2000/svg">
<path d="M17.4762 19.9203C20.234 19.9203 22.4696 17.6847 22.4696 14.9269C22.4696 12.1692 20.234 9.93353 17.4762 9.93353C14.7184 9.93353 12.4828 12.1692 12.4828 14.9269C12.4828 17.6847 14.7184 19.9203 17.4762 19.9203ZM5.67358 29.9072C8.43137 29.9072 10.667 27.6715 10.667 24.9138C10.667 22.156 8.43137 19.9203 5.67358 19.9203C2.9158 19.9203 0.680176 22.156 0.680176 24.9138C0.680176 27.6715 2.9158 29.9072 5.67358 29.9072ZM50.7656 29.9072C53.5233 29.9072 55.759 27.6715 55.759 24.9138C55.759 22.156 53.5233 19.9203 50.7656 19.9203C48.0078 19.9203 45.7722 22.156 45.7722 24.9138C45.7722 27.6715 48.0078 29.9072 50.7656 29.9072Z" fill="black"/>
<path d="M34.3654 15.1374C34.2057 13.4691 34.1244 12.0805 32.8464 11.1047C31.2279 9.86872 29.3945 10.6707 27.1361 9.85551C24.917 9.31867 23.271 7.34841 23.271 5C23.271 2.23858 25.5468 0 28.3542 0C30.4335 0 32.2212 1.22797 33.0087 2.98685C34.2138 5.27597 33.4306 7.60562 34.9447 8.77907C36.7377 10.1685 39.1548 9.15102 41.8519 10.4675C42.7186 10.8657 43.4521 11.4974 43.969 12.2802C44.4859 13.063 44.7861 13.997 44.7861 15C44.7861 17.3484 43.1402 19.3187 40.9211 19.8555C38.6627 20.6707 36.8293 19.8687 35.2107 21.1047C33.3907 22.4945 34.365 24.8196 32.8817 27.2757C32.0397 28.893 30.3284 30 28.3542 30C25.5468 30 23.271 27.7614 23.271 25C23.271 22.994 24.4719 21.264 26.2052 20.4675C28.9023 19.151 31.3195 20.1685 33.1124 18.7791C34.1467 17.9775 34.3654 16.741 34.3654 15.1374Z" fill="#D0021B"/>
</svg>
