<svg width="32" height="22" viewBox="0 0 32 22" fill="none" xmlns="http://www.w3.org/2000/svg">
<path d="M24.8727 7.62434C23.9572 7.32729 23.4845 7.42743 22.5243 7.31914C21.0401 7.15205 20.4487 6.55332 20.1978 5.01239C20.0574 4.15219 20.2232 2.89273 19.8648 2.11298C19.1793 0.626206 17.5756 -0.0406007 15.9643 0.33999C14.604 0.66179 13.472 2.06503 13.4093 3.50539C13.3377 5.14997 14.2456 6.55321 15.8046 7.03746C16.5452 7.26798 17.3322 7.38402 18.1057 7.44281C19.5243 7.54956 19.6333 8.36344 20.0171 9.03334C20.2591 9.45567 20.4935 9.87188 20.4935 11.1313C20.4935 12.3906 20.2575 12.8067 20.0171 13.2291C19.6333 13.8975 19.16 14.3353 17.7414 14.4437C16.9678 14.5024 16.1794 14.6185 15.4402 14.849C13.8812 15.3347 12.9733 16.7364 13.045 18.381C13.1077 19.8214 14.2396 21.2246 15.6 21.5464C17.2112 21.9286 18.815 21.2602 19.5004 19.7734C19.8604 18.9937 20.0574 18.1102 20.1978 17.2501C20.4502 15.7091 21.0415 15.1104 22.5243 14.9433C23.4845 14.835 24.4783 14.9433 25.378 14.4157C26.3288 13.6987 27.1783 12.6227 27.1783 11.1313C27.1783 9.63982 26.2629 8.07609 24.8727 7.62434Z" fill="white"/>
<path d="M9.64344 14.6263C7.77234 14.6263 6.24609 13.0482 6.24609 11.1134C6.24609 9.17875 7.77234 7.60059 9.64344 7.60059C11.5145 7.60059 13.0407 9.17875 13.0407 11.1134C13.0407 13.0467 11.513 14.6263 9.64344 14.6263Z" fill="white"/>
<path d="M3.38533 21.7655C1.51726 21.7608 -0.0044779 20.1765 9.90091e-06 18.2402C0.00451759 16.307 1.53675 14.7336 3.40931 14.7398C5.27887 14.7444 6.8006 16.3287 6.79463 18.265C6.79011 20.1966 5.25788 21.7702 3.38533 21.7655Z" fill="white"/>
<path d="M28.6278 21.7654C26.7538 21.7763 25.2156 20.209 25.2051 18.2791C25.1946 16.3413 26.7104 14.7507 28.5768 14.7398C30.4509 14.729 31.9891 16.2963 31.9996 18.2263C32.01 20.1626 30.4944 21.7546 28.6278 21.7654Z" fill="white"/>
</svg>
