<svg width="32" height="32" viewBox="0 0 32 32" fill="none" xmlns="http://www.w3.org/2000/svg">
<path d="M22.1729 22.0265C23.3538 21.9043 24.2497 20.8863 24.209 19.6646C24.1682 18.443 23.1502 17.4657 21.9285 17.4657H21.8471C20.5847 17.5064 19.6074 18.5652 19.6481 19.8275C19.6888 20.4384 19.9332 20.9677 20.2997 21.3342C18.9151 24.0626 16.7976 26.058 13.6213 27.7276C11.463 28.8678 9.22334 29.275 6.98364 28.9899C5.15116 28.7456 3.72589 27.9312 2.83001 26.5874C1.52692 24.592 1.40475 22.4337 2.50424 20.2755C3.27795 18.728 4.49961 17.5878 5.27332 17.0177C5.11043 16.4883 4.8661 15.5925 4.74394 14.9409C-1.16073 19.2167 -0.549898 24.9992 1.24186 27.7276C2.58568 29.7637 5.31404 31.026 8.32746 31.026C9.14189 31.026 9.95633 30.9446 10.7708 30.741C15.9832 29.7229 19.9332 26.6281 22.1729 22.0265Z" fill="white"/>
<path d="M29.3396 16.977C26.2448 13.3528 21.6839 11.3574 16.4715 11.3574H15.82C15.4535 10.6244 14.6798 10.1357 13.8246 10.1357H13.7432C12.4808 10.1765 11.5035 11.2352 11.5442 12.4976C11.5849 13.7193 12.603 14.6966 13.8246 14.6966H13.9061C14.8019 14.6559 15.5757 14.0858 15.9014 13.312H16.6344C19.7293 13.312 22.6613 14.2079 25.3082 15.959C27.3443 17.3028 28.8102 19.0538 29.6247 21.1714C30.317 22.8817 30.2762 24.5513 29.5432 25.9765C28.403 28.1348 26.4891 29.3157 23.9644 29.3157C22.3355 29.3157 20.788 28.8271 19.9736 28.4606C19.5257 28.8678 18.7112 29.5193 18.1411 29.9265C19.8922 30.741 21.6839 31.1889 23.3942 31.1889C27.3035 31.1889 30.1948 29.0307 31.2943 26.8724C32.4752 24.5105 32.3938 20.4384 29.3396 16.977Z" fill="white"/>
<path d="M8.6538 22.7189C8.69452 23.9405 9.71257 24.9179 10.9342 24.9179H11.0157C12.278 24.8771 13.2554 23.8184 13.2146 22.556C13.1739 21.3343 12.1559 20.357 10.9342 20.357H10.8528C10.7713 20.357 10.6492 20.357 10.5677 20.3977C8.89813 17.6287 8.20586 14.6152 8.45019 11.3575C8.61308 8.91419 9.42751 6.79665 10.8528 5.04562C12.0337 3.53891 14.3141 2.80592 15.8616 2.76519C20.1781 2.68375 22.0106 8.05903 22.1327 10.2173C22.6621 10.3395 23.558 10.6245 24.1688 10.8281C23.6801 4.23118 19.608 0.810547 15.6987 0.810547C12.0337 0.810547 8.6538 3.45746 7.30998 7.36676C5.43678 12.5792 6.65843 17.5879 8.93885 21.538C8.73524 21.823 8.61308 22.2709 8.6538 22.7189Z" fill="white"/>
</svg>
