<svg width="32" height="30" viewBox="0 0 32 30" fill="none" xmlns="http://www.w3.org/2000/svg">
<path d="M22.1178 20.9517C23.284 20.8311 24.1688 19.8257 24.1285 18.6193C24.0883 17.4129 23.083 16.4477 21.8765 16.4477H21.7961C20.5495 16.4879 19.5843 17.5335 19.6245 18.7801C19.6647 19.3834 19.906 19.9061 20.268 20.2681C18.9007 22.9625 16.8095 24.933 13.6728 26.5818C11.5414 27.7078 9.32962 28.1099 7.11782 27.8284C5.30817 27.5871 3.90067 26.7828 3.01595 25.4557C1.72908 23.4852 1.60844 21.3539 2.69423 19.2225C3.45831 17.6944 4.66474 16.5683 5.42882 16.0053C5.26796 15.4826 5.02667 14.5978 4.90603 13.9544C-0.925073 18.1769 -0.321855 23.8874 1.44758 26.5818C2.77466 28.5925 5.46903 29.8391 8.4449 29.8391C9.24919 29.8391 10.0535 29.7587 10.8578 29.5576C16.0052 28.5523 19.906 25.496 22.1178 20.9517Z" fill="white"/>
<path d="M29.1955 15.9651C26.1392 12.3861 21.6352 10.4155 16.4878 10.4155H15.8443C15.4824 9.69168 14.7183 9.20911 13.8738 9.20911H13.7934C12.5468 9.24932 11.5816 10.2949 11.6218 11.5415C11.662 12.748 12.6674 13.7131 13.8738 13.7131H13.9543C14.839 13.6729 15.6031 13.1099 15.9248 12.3458H16.6486C19.7049 12.3458 22.6004 13.2306 25.2143 14.9598C27.225 16.2869 28.6728 18.0161 29.477 20.1072C30.1607 21.7962 30.1205 23.445 29.3966 24.8525C28.2706 26.9839 26.3805 28.1501 23.8872 28.1501C22.2787 28.1501 20.7505 27.6676 19.9462 27.3056C19.5039 27.7078 18.6996 28.3512 18.1366 28.7533C19.8658 29.5576 21.6352 30 23.3242 30C27.1848 30 30.04 27.8686 31.1258 25.7373C32.2921 23.4048 32.2116 19.3834 29.1955 15.9651Z" fill="white"/>
<path d="M8.7665 21.6354C8.80671 22.8418 9.81207 23.807 11.0185 23.807H11.0989C12.3456 23.7668 13.3107 22.7212 13.2705 21.4745C13.2303 20.2681 12.2249 19.3029 11.0185 19.3029H10.9381C10.8577 19.3029 10.737 19.3029 10.6566 19.3432C9.00778 16.6086 8.32414 13.6327 8.56543 10.4155C8.72628 8.00268 9.53057 5.91153 10.9381 4.18231C12.1043 2.69437 14.3563 1.97051 15.8845 1.93029C20.1472 1.84987 21.9568 7.15818 22.0775 9.28954C22.6003 9.41019 23.485 9.69169 24.0882 9.89276C23.6056 3.37802 19.5842 0 15.7236 0C12.1043 0 8.7665 2.61394 7.43942 6.47453C5.58955 11.622 6.79599 16.5684 9.048 20.4692C8.84693 20.7507 8.72628 21.193 8.7665 21.6354Z" fill="white"/>
</svg>
