<svg width="24" height="30" viewBox="0 0 24 30" fill="none" xmlns="http://www.w3.org/2000/svg">
<path d="M23.1642 9.87699C23.1642 8.11081 22.7016 6.455 21.8869 5.01999C19.7265 2.79647 15.0271 2.28133 13.8602 5.00945C12.6617 7.80594 15.8734 10.9178 17.2769 10.6707C19.0641 10.3553 16.9615 6.25524 16.9615 6.25524C19.6949 11.4067 19.0641 9.8297 14.123 14.5606C9.18187 19.2914 4.13561 29.2735 3.3997 29.6941C3.36817 29.7151 3.33663 29.7309 3.2998 29.7466H22.6806C23.0223 29.7466 23.2431 29.3839 23.0906 29.0791L18.0233 19.0496C17.913 18.8341 17.9918 18.566 18.2021 18.4451C21.1667 16.742 23.1642 13.546 23.1642 9.87699Z" fill="url(#paint0_linear_102_826)"/>
<path d="M23.1642 9.87699C23.1642 8.11081 22.7016 6.455 21.8869 5.01999C19.7265 2.79647 15.0271 2.28133 13.8602 5.00945C12.6617 7.80594 15.8734 10.9178 17.2769 10.6707C19.0641 10.3553 16.9615 6.25524 16.9615 6.25524C19.6949 11.4067 19.0641 9.8297 14.123 14.5606C9.18187 19.2914 4.13561 29.2735 3.3997 29.6941C3.36817 29.7151 3.33663 29.7309 3.2998 29.7466H22.6806C23.0223 29.7466 23.2431 29.3839 23.0906 29.0791L18.0233 19.0496C17.913 18.8341 17.9918 18.566 18.2021 18.4451C21.1667 16.742 23.1642 13.546 23.1642 9.87699Z" fill="url(#paint1_linear_102_826)"/>
<path d="M3.39963 29.6941C4.13557 29.2736 9.18184 19.2862 14.123 14.5554C19.0641 9.82449 19.6949 11.4014 16.9615 6.25006C16.9615 6.25006 6.501 20.9158 2.71631 28.1698" fill="url(#paint2_linear_102_826)"/>
<path d="M4.87153 16.5528C11.9363 3.56392 12.8614 2.25505 16.541 2.25505C18.4754 2.25505 20.4256 3.12763 21.6871 4.67832C19.9683 1.90812 16.9247 0.0525638 13.4396 0H1.43904C1.1867 0 0.981689 0.205005 0.981689 0.457317V24.6478C1.69659 22.8028 2.91084 20.164 4.87153 16.5528Z" fill="url(#paint3_linear_102_826)"/>
<path d="M14.123 14.5553C9.18181 19.2862 4.13555 29.2736 3.39965 29.6941C2.66375 30.1146 1.42846 30.1672 0.771381 29.4313C0.0722721 28.648 -1.01582 27.3812 4.87148 16.5528C11.9362 3.56394 12.8614 2.25507 16.541 2.25507C18.4754 2.25507 20.4255 3.12765 21.6871 4.67833C21.7554 4.78873 21.8237 4.90434 21.8921 5.01999C19.7317 2.79649 15.0323 2.28135 13.8654 5.00949C12.6669 7.80594 15.8786 10.9178 17.2821 10.6708C19.0693 10.3554 16.9667 6.25528 16.9667 6.25528C19.6949 11.4014 19.0641 9.82446 14.123 14.5553Z" fill="url(#paint4_linear_102_826)"/>
<path opacity="0.3" d="M5.4497 17.131C12.5144 4.14215 13.4396 2.83329 17.1192 2.83329C18.7119 2.83329 20.3151 3.42727 21.5347 4.4996C20.2731 3.05931 18.4018 2.25507 16.541 2.25507C12.8614 2.25507 11.9362 3.56394 4.87148 16.5528C-1.01582 27.3812 0.0722721 28.648 0.771381 29.4313C0.871281 29.5417 0.986894 29.6363 1.10779 29.7151C0.492794 28.8215 0.219456 26.7452 5.4497 17.131Z" fill="url(#paint5_linear_102_826)"/>
<defs>
<linearGradient id="paint0_linear_102_826" x1="8.6283" y1="15.9772" x2="16.7234" y2="17.8696" gradientUnits="userSpaceOnUse">
<stop stop-color="#FF6533"/>
<stop offset="0.157" stop-color="#FF5633"/>
<stop offset="0.434" stop-color="#FF4333"/>
<stop offset="0.714" stop-color="#FF3733"/>
<stop offset="1" stop-color="#FF3333"/>
</linearGradient>
<linearGradient id="paint1_linear_102_826" x1="7.36218" y1="13.2938" x2="21.8702" y2="24.5428" gradientUnits="userSpaceOnUse">
<stop stop-color="#BF3338"/>
<stop offset="1" stop-color="#FF3333"/>
</linearGradient>
<linearGradient id="paint2_linear_102_826" x1="7.8354" y1="15.5098" x2="9.93803" y2="17.7175" gradientUnits="userSpaceOnUse">
<stop stop-color="#FF6533"/>
<stop offset="0.157" stop-color="#FF5633"/>
<stop offset="0.434" stop-color="#FF4333"/>
<stop offset="0.714" stop-color="#FF3733"/>
<stop offset="1" stop-color="#FF3333"/>
</linearGradient>
<linearGradient id="paint3_linear_102_826" x1="11.6583" y1="19.3102" x2="11.0275" y2="10.269" gradientUnits="userSpaceOnUse">
<stop stop-color="#FF6533"/>
<stop offset="0.157" stop-color="#FF5633"/>
<stop offset="0.434" stop-color="#FF4333"/>
<stop offset="0.714" stop-color="#FF3733"/>
<stop offset="1" stop-color="#FF3333"/>
</linearGradient>
<linearGradient id="paint4_linear_102_826" x1="8.92557" y1="15.3548" x2="11.9122" y2="17.3857" gradientUnits="userSpaceOnUse">
<stop stop-color="#FBB040"/>
<stop offset="1" stop-color="#FB8840"/>
</linearGradient>
<linearGradient id="paint5_linear_102_826" x1="11.9853" y1="3.87185" x2="8.93649" y2="37.4085" gradientUnits="userSpaceOnUse">
<stop stop-color="white"/>
<stop offset="1" stop-color="white" stop-opacity="0"/>
</linearGradient>
</defs>
</svg>
