<svg width="41" height="30" viewBox="0 0 41 30" fill="none" xmlns="http://www.w3.org/2000/svg">
<path d="M34.5196 17.2458C33.124 17.2531 31.9111 17.5892 30.8955 18.0861C30.5228 17.3481 30.1502 16.6905 30.0844 16.2083C30.0114 15.6457 29.9237 15.3022 30.0114 14.63C30.099 13.9578 30.4936 13.0006 30.4863 12.9275C30.479 12.8545 30.3986 12.5111 29.5949 12.5038C28.7911 12.4964 28.097 12.6572 28.0166 12.8691C27.9362 13.081 27.7828 13.5632 27.6805 14.0601C27.5417 14.7908 26.073 17.3993 25.2327 18.7656C24.9624 18.2322 24.7286 17.7646 24.6774 17.392C24.6044 16.8293 24.5167 16.4859 24.6044 15.8137C24.692 15.1415 25.0866 14.1843 25.0793 14.1112C25.072 14.0382 24.9916 13.6948 24.1879 13.6874C23.3841 13.6801 22.69 13.8409 22.6096 14.0528C22.5292 14.2647 22.4416 14.7615 22.2735 15.2438C22.1055 15.726 20.1546 20.0808 19.6431 21.2061C19.38 21.7833 19.1535 22.2436 18.9928 22.5578C18.9928 22.5578 18.9855 22.5797 18.9636 22.6163C18.8247 22.8866 18.7444 23.0328 18.7444 23.0328C18.7444 23.0328 18.7444 23.0328 18.7444 23.0401C18.6348 23.2374 18.5179 23.42 18.4594 23.42C18.4156 23.42 18.3352 22.8939 18.474 22.1779C18.7663 20.6654 19.4604 18.3126 19.4531 18.2322C19.4531 18.1884 19.5846 17.7792 19.0001 17.5673C18.4302 17.3554 18.2256 17.7062 18.1744 17.7062C18.1233 17.7062 18.0868 17.8304 18.0868 17.8304C18.0868 17.8304 18.7224 15.1853 16.8738 15.1853C15.7194 15.1853 14.1265 16.4494 13.3374 17.5892C12.8405 17.8596 11.781 18.4368 10.6485 19.0579C10.2174 19.299 9.77169 19.5401 9.3552 19.7667C9.32598 19.7374 9.29675 19.7009 9.26752 19.6717C7.03166 17.2824 2.89605 15.5945 3.07141 12.3868C3.13717 11.2178 3.53904 8.14894 11.0138 4.4225C17.1661 1.39021 22.0616 2.23048 22.9092 4.0937C24.1221 6.75335 20.2861 11.6927 13.9292 12.4088C11.5034 12.6791 10.232 11.7439 9.91051 11.3931C9.57441 11.0278 9.52326 11.0059 9.39904 11.0789C9.19445 11.1885 9.32598 11.5173 9.39904 11.7073C9.58902 12.2042 10.3708 13.081 11.6934 13.5121C12.8624 13.892 15.7048 14.1039 19.1462 12.7741C22.9969 11.2835 26.0073 7.14061 25.1231 3.66991C24.239 0.148062 18.3936 -1.01371 12.8624 0.951803C9.5744 2.12088 6.00872 3.96218 3.44405 6.35879C0.397142 9.20842 -0.085102 11.6854 0.11218 12.723C0.820933 16.4056 5.89912 18.8022 7.93039 20.5777C7.82809 20.6362 7.73311 20.6873 7.65273 20.7311C6.6371 21.2353 2.76453 23.2593 1.80004 25.4001C0.704026 27.826 1.9754 29.565 2.81567 29.7988C5.42418 30.5222 8.10575 29.2216 9.54518 27.0734C10.9846 24.9252 10.8092 22.134 10.1443 20.8554C10.137 20.8407 10.1297 20.8261 10.1151 20.8115C10.3781 20.6581 10.6485 20.4973 10.9115 20.3439C11.4303 20.037 11.9418 19.752 12.3802 19.5182C12.1318 20.1977 11.9491 21.0088 11.8614 22.1779C11.7518 23.5515 12.3144 25.3344 13.0524 26.0358C13.3812 26.3427 13.7685 26.35 14.0169 26.35C14.8791 26.35 15.2664 25.634 15.6975 24.7864C16.2235 23.7488 16.6985 22.5432 16.6985 22.5432C16.6985 22.5432 16.1066 25.802 17.7141 25.802C18.2986 25.802 18.8905 25.0421 19.1535 24.6549C19.1535 24.6622 19.1535 24.6622 19.1535 24.6622C19.1535 24.6622 19.1682 24.6402 19.1974 24.5891C19.2558 24.4941 19.2924 24.4357 19.2924 24.4357C19.2924 24.4357 19.2924 24.4284 19.2924 24.421C19.5262 24.0119 20.0523 23.0839 20.8341 21.5422C21.8424 19.5548 22.8142 17.0705 22.8142 17.0705C22.8142 17.0705 22.9019 17.6769 23.2015 18.6853C23.3768 19.2771 23.7422 19.9274 24.0344 20.5558C23.8006 20.8846 23.6545 21.0672 23.6545 21.0672C23.6545 21.0672 23.6545 21.0673 23.6618 21.0746C23.4718 21.323 23.2672 21.5933 23.0407 21.8564C22.2443 22.8063 21.2944 23.895 21.1629 24.2091C21.0094 24.5818 21.046 24.8521 21.3383 25.0713C21.5501 25.2321 21.9301 25.254 22.3174 25.2321C23.0334 25.1809 23.5376 25.0056 23.786 24.896C24.1733 24.7572 24.6263 24.5453 25.0501 24.2311C25.8319 23.6538 26.3068 22.8282 26.263 21.7395C26.2411 21.1403 26.0438 20.5412 25.8027 19.9785C25.8757 19.8763 25.9415 19.774 26.0146 19.6717C27.2494 17.8669 28.2066 15.8868 28.2066 15.8868C28.2066 15.8868 28.2943 16.4932 28.5938 17.5016C28.74 18.013 29.0396 18.5683 29.3026 19.109C28.1408 20.0516 27.4248 21.1476 27.169 21.8637C26.7087 23.1935 27.0667 23.7927 27.7463 23.9315C28.0531 23.9973 28.4915 23.8511 28.813 23.7123C29.2222 23.5808 29.7045 23.3543 30.1648 23.0181C30.9466 22.4409 31.6992 21.6372 31.6554 20.5485C31.6334 20.0516 31.5019 19.5621 31.3193 19.0871C32.3057 18.6779 33.577 18.4514 35.1991 18.6414C38.6771 19.0506 39.364 21.2207 39.2325 22.134C39.1009 23.0474 38.3703 23.5442 38.1291 23.6977C37.888 23.8511 37.8076 23.9023 37.8296 24.0119C37.8588 24.1726 37.9757 24.1653 38.1803 24.1361C38.4652 24.0849 40.007 23.3981 40.0727 21.7176C40.1823 19.5694 38.1364 17.2239 34.5196 17.2458ZM7.68927 26.2916C6.5348 27.5483 4.92732 28.0233 4.23318 27.6214C3.48789 27.1903 3.78016 25.3344 5.19767 24.0046C6.05986 23.1935 7.17049 22.4409 7.90847 21.9806C8.07652 21.8783 8.32495 21.7322 8.62453 21.5495C8.67568 21.5203 8.7049 21.5057 8.7049 21.5057C8.76336 21.4691 8.82181 21.4326 8.88027 21.3961C9.39904 23.2958 8.90219 24.969 7.68927 26.2916ZM16.092 20.5777C15.6901 21.5568 14.8499 24.063 14.3384 23.9242C13.9 23.8073 13.6296 21.9075 14.2507 20.0297C14.5649 19.0871 15.2298 17.9619 15.6171 17.5235C16.2455 16.822 16.9396 16.5882 17.1077 16.8732C17.3195 17.2458 16.3404 19.9639 16.092 20.5777ZM23.0261 23.895C22.8581 23.9826 22.6973 24.0411 22.6242 23.9973C22.5731 23.968 22.6973 23.8511 22.6973 23.8511C22.6973 23.8511 23.5668 22.9159 23.9102 22.4921C24.1075 22.2436 24.3413 21.9514 24.5898 21.6226C24.5898 21.6518 24.5898 21.6883 24.5898 21.7176C24.5898 22.8355 23.5084 23.5881 23.0261 23.895ZM28.3746 22.6747C28.2504 22.5871 28.2723 22.2948 28.6888 21.3814C28.8496 21.0234 29.2295 20.4243 29.8798 19.847C29.9529 20.0808 30.004 20.3073 29.9967 20.5192C29.9894 21.9294 28.9811 22.4555 28.3746 22.6747Z" fill="white"/>
</svg>
