<svg width="28" height="32" viewBox="0 0 28 32" fill="none" xmlns="http://www.w3.org/2000/svg">
<path d="M9.79847 23.072C10.1064 24.2111 10.0726 25.2733 9.75458 26.2353C9.71924 26.3422 9.6803 26.4479 9.63805 26.5524C9.59581 26.6566 9.55006 26.7598 9.50102 26.8615C9.2557 27.3705 8.92652 27.8469 8.52336 28.2867C7.29359 29.6283 5.57534 30.1357 4.83857 29.7082C4.04297 29.247 4.44149 27.3554 5.86733 25.8482C7.40125 24.2266 9.60828 23.1841 9.60828 23.1841L9.60488 23.1775C9.66845 23.1433 9.73305 23.108 9.79847 23.072ZM27.2818 3.91464C26.3233 0.155459 20.0901 -1.08029 14.1908 1.01556C10.68 2.26275 6.8793 4.22033 4.14651 6.77652C0.897252 9.81573 0.379079 12.4609 0.592672 13.5663C1.346 17.4664 6.68993 20.0157 8.88675 21.9071V21.9185C8.239 22.2374 3.49783 24.6368 2.3883 27.0898C1.21757 29.6776 2.57464 31.5346 3.4731 31.7846C6.25689 32.5591 9.11352 31.166 10.6487 28.8761C12.1302 26.6663 12.0068 23.8128 11.363 22.3933C12.2511 22.159 13.2865 22.054 14.6023 22.2077C18.3152 22.6414 19.0437 24.9598 18.9044 25.9298C18.7652 26.9002 17.9864 27.4337 17.7261 27.5947C17.4656 27.7559 17.3862 27.8116 17.4081 27.9313C17.4396 28.1054 17.5602 28.099 17.7822 28.0613C18.0878 28.0098 19.7319 27.2721 19.8021 25.4811C19.8917 23.2073 17.7126 20.6636 13.8542 20.7301C12.2651 20.7575 11.2659 20.9086 10.5442 21.1772C10.4908 21.1164 10.4365 21.056 10.3804 20.9961C7.99502 18.4511 3.58541 16.6509 3.77241 13.2295C3.84041 11.9858 4.27272 8.71051 12.2456 4.73765C18.7767 1.48332 24.0051 2.37886 24.9087 4.36365C26.1993 7.19915 22.1144 12.4694 15.3317 13.2295C12.7476 13.5193 11.387 12.5177 11.0485 12.1447C10.6922 11.7521 10.6391 11.7344 10.5061 11.808C10.2893 11.9281 10.4266 12.2748 10.5061 12.4814C10.7085 13.0084 11.5396 13.943 12.9564 14.4079C14.2026 14.8169 17.2367 15.0417 20.9059 13.6224C25.0153 12.0327 28.2243 7.61087 27.2818 3.91464Z" fill="white"/>
</svg>
