<svg width="32" height="20" viewBox="0 0 32 20" fill="none" xmlns="http://www.w3.org/2000/svg">
<path fill-rule="evenodd" clip-rule="evenodd" d="M16.0003 0.45752C11.7333 0.45752 9.06707 2.57819 7.99984 6.81952C9.60006 4.69885 11.4668 3.90376 13.6 4.43361C14.8171 4.73585 15.6874 5.61371 16.6499 6.58563C18.2188 8.16829 20.0347 9.99989 24.0002 9.99989C28.2666 9.99989 30.9334 7.87923 32 3.63852C30.4004 5.75919 28.5337 6.55428 26.4005 6.0238C25.1828 5.72156 24.3124 4.8437 23.3499 3.87241C21.781 2.28849 19.9657 0.45752 16.0003 0.45752ZM7.99984 9.99989C3.73343 9.99989 1.0666 12.1206 0 16.3619C1.60022 14.2412 3.46693 13.4461 5.59951 13.976C6.81724 14.2782 7.68757 15.1561 8.65009 16.128C10.219 17.7107 12.0343 19.5423 16.0003 19.5423C20.2667 19.5423 22.9336 17.4222 24.0002 13.1809C22.3999 15.3016 20.5332 16.0967 18.4 15.5668C17.1829 15.2639 16.3126 14.3861 15.3501 13.4148C13.7812 11.8321 11.9653 9.99989 7.99984 9.99989Z" fill="white"/>
</svg>
