<svg width="46" height="30" viewBox="0 0 46 30" fill="none" xmlns="http://www.w3.org/2000/svg">
<path fill-rule="evenodd" clip-rule="evenodd" d="M26.0545 21.9083V28.3817C27.1068 28.9212 28.3514 29.3256 29.7883 29.5954C31.2252 29.8651 32.7395 30 34.3316 30C35.8832 30 37.3571 29.8517 38.7535 29.5549C40.1499 29.2583 41.3744 28.7694 42.4267 28.0883C43.479 27.4073 44.3122 26.5172 44.926 25.418C45.5399 24.3189 45.8468 22.9602 45.8468 21.3419C45.8468 20.1685 45.6715 19.1403 45.3207 18.2569C44.9699 17.3736 44.464 16.5881 43.8028 15.9003C43.1418 15.2125 42.3491 14.5954 41.4249 14.0492C40.5008 13.503 39.4585 12.9872 38.2982 12.5017C37.4483 12.151 36.686 11.8106 36.0114 11.4802C35.3367 11.1497 34.7634 10.8125 34.2911 10.4687C33.8189 10.1247 33.4546 9.7606 33.1983 9.37629C32.942 8.99185 32.8138 8.55698 32.8138 8.07142C32.8138 7.62647 32.9285 7.22521 33.1579 6.8678C33.3873 6.51039 33.7111 6.20367 34.1292 5.94737C34.5476 5.69121 35.0602 5.4922 35.6673 5.3506C36.2745 5.20901 36.949 5.13827 37.6911 5.13827C38.2307 5.13827 38.8007 5.17875 39.4011 5.25957C40.0015 5.34052 40.6052 5.4653 41.2125 5.63379C41.8196 5.80241 42.4098 6.01487 42.9833 6.27103C43.5566 6.52733 44.0861 6.82397 44.5718 7.16121V1.11259C43.587 0.735 42.511 0.455172 41.344 0.273103C40.177 0.0910344 38.8378 0 37.3268 0C35.7887 0 34.3316 0.165258 32.9555 0.495646C31.5794 0.826033 30.3685 1.34185 29.3228 2.0431C28.2772 2.74448 27.4509 3.63789 26.8438 4.72358C26.2367 5.80914 25.933 7.10716 25.933 8.61763C25.933 10.5462 26.4896 12.1915 27.6027 13.5537C28.7157 14.9157 30.4055 16.0688 32.6722 17.0128C33.5626 17.377 34.3924 17.7343 35.1614 18.085C35.9304 18.4356 36.5949 18.7998 37.1547 19.1774C37.7146 19.555 38.1565 19.9663 38.4804 20.4114C38.8042 20.8563 38.9661 21.3621 38.9661 21.9286C38.9661 22.3466 38.8649 22.7343 38.6625 23.0917C38.4601 23.4491 38.1531 23.7592 37.7417 24.0222C37.3302 24.2853 36.8175 24.4909 36.2036 24.6392C35.5897 24.7876 34.8714 24.8617 34.0483 24.8617C32.6452 24.8617 31.2556 24.6156 29.8793 24.1234C28.5032 23.6312 27.2282 22.8928 26.0545 21.9083ZM15.1718 5.95888H23.4761V0.646552H0.32959V5.95888H8.5933V29.6121H15.1718V5.95888Z" fill="white"/>
</svg>
