<svg width="32" height="22" viewBox="0 0 32 22" fill="none" xmlns="http://www.w3.org/2000/svg">
<path fill-rule="evenodd" clip-rule="evenodd" d="M18.0854 15.8568V20.4078C18.8252 20.787 19.7002 21.0714 20.7104 21.261C21.7205 21.4507 22.7852 21.5455 23.9045 21.5455C24.9953 21.5455 26.0315 21.4412 27.0132 21.2326C27.9949 21.024 28.8557 20.6803 29.5955 20.2015C30.3354 19.7228 30.9211 19.097 31.3526 18.3242C31.7842 17.5515 32 16.5963 32 15.4586C32 14.6337 31.8767 13.9108 31.6301 13.2898C31.3835 12.6688 31.0278 12.1165 30.563 11.633C30.0983 11.1494 29.541 10.7156 28.8913 10.3316C28.2415 9.94759 27.5088 9.58495 26.6931 9.24368C26.0955 8.99713 25.5596 8.75777 25.0854 8.5255C24.6111 8.29314 24.208 8.05614 23.876 7.81441C23.544 7.57259 23.2879 7.31659 23.1077 7.04641C22.9275 6.77614 22.8374 6.47041 22.8374 6.12905C22.8374 5.81623 22.918 5.53413 23.0793 5.28286C23.2405 5.03159 23.4682 4.81595 23.7622 4.63577C24.0563 4.45568 24.4166 4.31577 24.8435 4.21623C25.2704 4.11668 25.7445 4.06695 26.2663 4.06695C26.6456 4.06695 27.0464 4.09541 27.4685 4.15223C27.8905 4.20914 28.315 4.29686 28.7419 4.41532C29.1687 4.53386 29.5836 4.68323 29.9868 4.86332C30.3899 5.0435 30.7622 5.25204 31.1036 5.48914V1.23677C30.4113 0.971317 29.6548 0.77459 28.8344 0.64659C28.0139 0.51859 27.0725 0.45459 26.0102 0.45459C24.9288 0.45459 23.9045 0.570771 22.937 0.803044C21.9695 1.03532 21.1183 1.39795 20.3831 1.89095C19.648 2.38404 19.0671 3.01213 18.6403 3.77541C18.2135 4.53859 18 5.45114 18 6.51305C18 7.86886 18.3913 9.02559 19.1738 9.98323C19.9563 10.9408 21.1443 11.7514 22.7378 12.4151C23.3638 12.6711 23.9472 12.9223 24.4878 13.1689C25.0285 13.4154 25.4956 13.6714 25.8892 13.9369C26.2828 14.2023 26.5935 14.4915 26.8212 14.8044C27.0488 15.1172 27.1626 15.4728 27.1626 15.871C27.1626 16.165 27.0915 16.4375 26.9492 16.6888C26.8069 16.94 26.5911 17.158 26.3018 17.343C26.0125 17.5279 25.6521 17.6724 25.2205 17.7767C24.7889 17.881 24.2839 17.9331 23.7053 17.9331C22.7188 17.9331 21.7419 17.7601 20.7744 17.414C19.8069 17.068 18.9105 16.549 18.0854 15.8568ZM10.4345 4.64386H16.2727V0.909135H0V4.64386H5.80964V21.2728H10.4345V4.64386Z" fill="white"/>
</svg>
