<svg width="31" height="30" viewBox="0 0 31 30" fill="none" xmlns="http://www.w3.org/2000/svg">
<path d="M29.6764 4.42014L16.0132 28.8524C15.7311 29.3568 15.0063 29.3598 14.72 28.8578L0.785874 4.42249C0.473932 3.87546 0.941703 3.21286 1.5616 3.32366L15.2394 5.76849C15.3267 5.78409 15.416 5.78394 15.5033 5.76804L28.8951 3.32716C29.5129 3.21456 29.9829 3.87203 29.6764 4.42014Z" fill="url(#paint0_linear_102_820)"/>
<path d="M21.7548 0.116911L11.6436 2.09816C11.4774 2.13072 11.3544 2.27156 11.3443 2.44057L10.7223 12.9453C10.7077 13.1927 10.9349 13.3848 11.1764 13.3291L13.9915 12.6794C14.2549 12.6186 14.4929 12.8506 14.4388 13.1155L13.6024 17.211C13.5461 17.4867 13.8049 17.7224 14.0741 17.6406L15.8128 17.1123C16.0824 17.0305 16.3414 17.2669 16.2844 17.5427L14.9552 23.9759C14.8721 24.3783 15.4073 24.5977 15.6305 24.2527L15.7797 24.0223L24.0188 7.5796C24.1568 7.30429 23.9189 6.99037 23.6165 7.04872L20.7188 7.60797C20.4465 7.66047 20.2148 7.40688 20.2917 7.14047L22.1829 0.584175C22.2599 0.317312 22.0274 0.0635036 21.7548 0.116911Z" fill="url(#paint1_linear_102_820)"/>
<defs>
<linearGradient id="paint0_linear_102_820" x1="0.445662" y1="2.45048" x2="17.4506" y2="25.5446" gradientUnits="userSpaceOnUse">
<stop stop-color="#41D1FF"/>
<stop offset="1" stop-color="#BD34FE"/>
</linearGradient>
<linearGradient id="paint1_linear_102_820" x1="14.4542" y1="0.654816" x2="17.5303" y2="21.7566" gradientUnits="userSpaceOnUse">
<stop stop-color="#FFEA83"/>
<stop offset="0.0833333" stop-color="#FFDD35"/>
<stop offset="1" stop-color="#FFA800"/>
</linearGradient>
</defs>
</svg>
