<svg width="32" height="33" viewBox="0 0 32 33" fill="none" xmlns="http://www.w3.org/2000/svg">
<path d="M31.8736 5.73635L16.8605 32.5824C16.5505 33.1367 15.7541 33.1399 15.4395 32.5884L0.128698 5.73893C-0.214064 5.13786 0.299923 4.40978 0.98106 4.53153L16.0102 7.21791C16.1061 7.23505 16.2043 7.23488 16.3001 7.21741L31.015 4.53538C31.6939 4.41165 32.2103 5.13409 31.8736 5.73635Z" fill="white"/>
<path d="M23.0739 0.517206L23.0739 0.517209L11.9637 2.6942C11.9637 2.6942 11.9637 2.6942 11.9637 2.6942C11.5573 2.77383 11.2564 3.11828 11.2319 3.53151L11.2319 3.53156L10.5485 15.0741L10.5485 15.0742C10.5127 15.6791 11.0683 16.1488 11.6589 16.0126L11.659 16.0126L14.6127 15.3309L13.7223 19.6908L14.2122 19.7908L13.7223 19.6908C13.5847 20.3648 14.2175 20.9412 14.8758 20.7413L14.8759 20.7413L16.6382 20.2058L15.2091 27.1228C15.2091 27.1229 15.2091 27.1229 15.2091 27.1229C15.0057 28.1069 16.3146 28.6435 16.8605 27.7998L17.0243 27.5467L17.0393 27.5236L17.0516 27.499L26.1047 9.43189C26.4422 8.7585 25.8603 7.99092 25.1209 8.1336L25.1209 8.1336L22.0844 8.71964L24.1209 1.65989L24.1209 1.65981C24.309 1.00734 23.7405 0.386597 23.0739 0.517206ZM14.6413 15.1906L14.6413 15.1907L14.6413 15.1906ZM16.6695 20.0541L16.6695 20.0542L16.6695 20.0541Z" fill="white" stroke="#272626"/>
</svg>
