<svg width="27" height="30" viewBox="0 0 27 30" fill="none" xmlns="http://www.w3.org/2000/svg">
<path d="M13.422 0L26.68 7.49914V22.5009L13.422 30L0.164062 22.5009V7.49914L13.422 0Z" fill="black"/>
<path d="M24.3127 21.9835L13.8605 27.8965V23.2922L20.373 19.7088L24.3127 21.9835ZM25.0287 21.3361V8.97224L21.2055 11.1819V19.1298L25.0287 21.3361ZM2.49017 21.9835L12.9424 27.8965V23.2922L6.42645 19.7088L2.49017 21.9835ZM1.77417 21.3361V8.97224L5.5974 11.1819V19.1298L1.77417 21.3361ZM2.22295 8.17059L12.9424 2.10687V6.55703L6.07359 10.3357L6.01877 10.3666L2.22295 8.17059ZM24.5799 8.17059L13.8605 2.10687V6.55703L20.7293 10.3323L20.7841 10.3631L24.5799 8.17059Z" fill="#8ED6FB"/>
<path d="M12.9425 22.2439L6.51562 18.7085V11.7095L12.9425 15.4197V22.2439ZM13.8606 22.2439L20.2875 18.7119V11.7095L13.8606 15.4197V22.2439ZM6.95071 10.901L13.4015 7.35529L19.8524 10.901L13.4015 14.6249L6.95071 10.901Z" fill="#1C78C0"/>
</svg>
