<svg width="29" height="30" viewBox="0 0 29 30" fill="none" xmlns="http://www.w3.org/2000/svg">
<path d="M28.2023 21.9165C28.0438 20.6662 26.9872 19.8032 25.6311 19.8208C23.6059 19.8472 21.9064 20.8951 20.7793 21.5907C20.339 21.8637 19.9604 22.0662 19.6346 22.2159C19.705 21.1945 19.6434 19.856 19.115 18.3855C18.4722 16.6244 17.6093 15.5413 16.9929 14.9162C17.7062 13.8771 18.6836 12.3626 19.1415 10.0203C19.5377 8.02144 19.4144 4.91309 18.5075 3.1696C18.3226 2.81738 18.0144 2.56202 17.6269 2.45635C17.4684 2.41232 17.169 2.32427 16.5791 2.49157C15.6897 0.651219 15.3815 0.457498 15.1438 0.298998C14.6507 -0.0180001 14.0695 -0.0884441 13.5235 0.114083C12.7927 0.378248 12.1675 1.08269 11.5775 2.33307C11.4895 2.51799 11.4102 2.6941 11.3398 2.87021C10.2215 2.94946 8.46037 3.35451 6.97224 4.96592C6.78733 5.16845 6.4263 5.31814 6.04766 5.45903H6.05647C5.28158 5.732 4.92936 6.366 4.49789 7.51072C3.89912 9.11332 4.5155 10.6895 5.12308 11.7109C4.29536 12.4506 3.19467 13.6305 2.61351 15.013C1.89146 16.7213 1.81221 18.3943 1.83863 19.3013C1.22224 19.9529 0.271243 21.1769 0.165577 22.5505C0.024689 24.4701 0.720324 25.7734 1.02852 26.2489C1.11657 26.3897 1.21343 26.5042 1.3191 26.6187C1.28388 26.8564 1.27507 27.1118 1.32791 27.376C1.44238 27.9923 1.82982 28.4943 2.41979 28.8113C3.58212 29.4276 5.20233 29.6918 6.45271 29.0666C6.9018 29.5421 7.72071 30 9.20884 30H9.2969C9.67553 30 14.4833 29.7446 15.8834 29.4012C16.5086 29.2515 16.9401 28.9874 17.2219 28.7496C18.12 28.4678 20.6032 27.6225 22.9454 26.108C24.6009 25.0337 25.1732 24.8047 26.406 24.5054C27.6036 24.2148 28.352 23.1229 28.2023 21.9165ZM26.1066 23.211C24.6977 23.5456 23.9845 23.8538 22.241 24.9897C19.5201 26.7508 16.5438 27.5697 16.5438 27.5697C16.5438 27.5697 16.2973 27.9395 15.584 28.1068C14.3513 28.4062 9.71076 28.6616 9.28809 28.6704C8.15218 28.6792 7.45654 28.3798 7.26282 27.9131C6.67285 26.5042 8.10815 25.8878 8.10815 25.8878C8.10815 25.8878 7.79115 25.6941 7.60624 25.518C7.43893 25.3507 7.26282 25.0161 7.20999 25.1394C6.98985 25.6765 6.87538 26.9885 6.28541 27.5785C5.4753 28.3974 3.94314 28.1244 3.03617 27.6489C2.04115 27.1206 3.10662 25.879 3.10662 25.879C3.10662 25.879 2.56948 26.196 2.13801 25.5444C1.75057 24.9456 1.38954 23.9242 1.4864 22.665C1.59207 21.2297 3.19467 19.8384 3.19467 19.8384C3.19467 19.8384 2.9129 17.7163 3.83748 15.5413C4.674 13.5601 6.92821 11.9663 6.92821 11.9663C6.92821 11.9663 5.03503 9.87059 5.73947 7.98621C6.19736 6.75344 6.38227 6.76225 6.53197 6.70941C7.0603 6.50689 7.57102 6.28675 7.94965 5.87289C9.84284 3.83001 12.2556 4.21745 12.2556 4.21745C12.2556 4.21745 13.4003 0.739274 14.4569 1.4173C14.7827 1.62863 15.9539 4.23506 15.9539 4.23506C15.9539 4.23506 17.2042 3.50421 17.3451 3.77718C18.1024 5.2477 18.1905 8.05666 17.8559 9.76493C17.2923 12.5827 15.8834 14.0972 15.3199 15.0482C15.1878 15.2684 16.8344 15.964 17.8735 18.8434C18.8333 21.4763 17.9791 23.6864 18.1288 23.933C18.1552 23.977 18.1641 23.9946 18.1641 23.9946C18.1641 23.9946 19.2647 24.0827 21.4749 22.7178C22.6549 21.987 24.0549 21.1681 25.6487 21.1505C27.1897 21.124 27.269 22.9292 26.1066 23.211Z" fill="white"/>
</svg>
