<svg width="30" height="32" viewBox="0 0 30 32" fill="none" xmlns="http://www.w3.org/2000/svg">
<path d="M29.9531 23.3776C29.784 22.0439 28.6569 21.1234 27.2104 21.1422C25.0502 21.1704 23.2374 22.2881 22.0351 23.0301C21.5655 23.3213 21.1616 23.5373 20.8141 23.697C20.8893 22.6075 20.8235 21.1798 20.26 19.6112C19.5743 17.7327 18.6538 16.5774 17.9964 15.9106C18.7571 14.8022 19.7997 13.1867 20.2881 10.6883C20.7108 8.5562 20.5793 5.24063 19.6119 3.3809C19.4146 3.0052 19.0859 2.73282 18.6726 2.62011C18.5036 2.57314 18.1842 2.47922 17.5549 2.65768C16.6063 0.694633 16.2775 0.487998 16.0239 0.318932C15.4979 -0.0192 14.878 -0.0943405 14.2957 0.121688C13.5161 0.403465 12.8492 1.15487 12.2199 2.48861C12.126 2.68585 12.0415 2.8737 11.9663 3.06156C10.7735 3.14609 8.89497 3.57815 7.30763 5.29698C7.11039 5.51301 6.72529 5.67269 6.32141 5.82297H6.3308C5.50426 6.11414 5.12856 6.7904 4.66832 8.01143C4.02963 9.72087 4.68711 11.4021 5.33519 12.4917C4.4523 13.2807 3.27823 14.5393 2.65832 16.0139C1.88813 17.836 1.80359 19.6206 1.83177 20.5881C1.17429 21.2831 0.159899 22.5887 0.0471887 24.0539C-0.103092 26.1015 0.638919 27.4916 0.967658 27.9988C1.06158 28.1491 1.1649 28.2712 1.27761 28.3933C1.24004 28.6469 1.23065 28.9192 1.287 29.201C1.40911 29.8585 1.82238 30.3939 2.45168 30.732C3.6915 31.3895 5.41973 31.6713 6.75347 31.0044C7.23249 31.5116 8.106 32 9.69334 32H9.78726C10.1911 32 15.3195 31.7276 16.8129 31.3613C17.4798 31.2016 17.94 30.9199 18.2406 30.6663C19.1986 30.3657 21.8473 29.464 24.3457 27.8485C26.1115 26.7026 26.722 26.4584 28.037 26.139C29.3144 25.8291 30.1127 24.6644 29.9531 23.3776ZM27.7176 24.7583C26.2148 25.1153 25.454 25.444 23.5943 26.6556C20.692 28.5342 17.5173 29.4077 17.5173 29.4077C17.5173 29.4077 17.2543 29.8021 16.4935 29.9806C15.1786 30.2999 10.2287 30.5723 9.77787 30.5817C8.56623 30.5911 7.82422 30.2718 7.61758 29.774C6.98828 28.2712 8.51927 27.6137 8.51927 27.6137C8.51927 27.6137 8.18114 27.407 7.98389 27.2192C7.80544 27.0407 7.61758 26.6838 7.56123 26.8153C7.32642 27.3883 7.20431 28.7877 6.57501 29.417C5.7109 30.2906 4.07659 29.9994 3.10916 29.4922C2.0478 28.9286 3.1843 27.6043 3.1843 27.6043C3.1843 27.6043 2.61136 27.9424 2.15112 27.2474C1.73785 26.6087 1.35275 25.5191 1.45607 24.176C1.56878 22.645 3.27822 21.161 3.27822 21.161C3.27822 21.161 2.97766 18.8974 3.96388 16.5774C4.85617 14.4641 7.26067 12.7641 7.26067 12.7641C7.26067 12.7641 5.24127 10.5286 5.99267 8.51863C6.48109 7.20367 6.67833 7.21306 6.838 7.15671C7.40156 6.94068 7.94632 6.70587 8.3502 6.26442C10.3696 4.08534 12.9432 4.49862 12.9432 4.49862C12.9432 4.49862 14.1642 0.788558 15.2913 1.51178C15.6388 1.73721 16.888 4.5174 16.888 4.5174C16.888 4.5174 18.2218 3.73782 18.3721 4.02899C19.1798 5.59755 19.2737 8.59377 18.9168 10.4159C18.3157 13.4215 16.8129 15.0371 16.2118 16.0515C16.0709 16.2863 17.8273 17.0283 18.9356 20.0996C19.9594 22.908 19.0483 25.2655 19.208 25.5285C19.2362 25.5755 19.2456 25.5943 19.2456 25.5943C19.2456 25.5943 20.4196 25.6882 22.7772 24.2324C24.0358 23.4528 25.5292 22.5793 27.2292 22.5605C28.8729 22.5323 28.9575 24.4578 27.7176 24.7583Z" fill="white"/>
</svg>
